<?xml version="1.0" standalone="no"?>
<!DOCTYPE svg PUBLIC "-//W3C//DTD SVG 1.1//EN" "http://www.w3.org/Graphics/SVG/1.1/DTD/svg11.dtd" >
<svg xmlns="http://www.w3.org/2000/svg">
<metadata>
Copyright   : Copyright 2013 Luc(as) de Groot. All rights reserved. Published by LucasFonts.com
Designer    : Luc(as) de Groot
Foundry     : LucasFonts
Foundry URL : http://lucasfonts.com
</metadata>
<defs>
<font id="TheSerif_6_" horiz-adv-x="1126" >
<font-face units-per-em="2048" ascent="1516" descent="-532" />
<missing-glyph horiz-adv-x="446" />
<glyph unicode="fi" horiz-adv-x="1335" d="M752 0v135q39 10 78.5 17t76.5 10v686h-450v-686q37 -3 76.5 -10t78.5 -17v-135h-551v135q45 10 90 17t89 10v686h-215v170h215v41q0 117 36 202.5t103.5 140.5t162.5 81t214 26q78 0 160 -10.5t157 -28.5l-43 -182q-31 9 -66 17t-70.5 13t-70 8t-65.5 3 q-81 0 -138.5 -17t-93.5 -49.5t-52.5 -80t-16.5 -109.5v-55h667v-856q43 -3 86.5 -10t83.5 -17v-135h-542z" />
<glyph unicode="fl" horiz-adv-x="1335" d="M752 0v135q39 10 78.5 17t76.5 10v1157q-42 7 -87 10.5t-87 3.5q-73 0 -125 -14.5t-85.5 -43.5t-49.5 -73t-16 -104v-80h266v-170h-266v-686q37 -3 76.5 -10t78.5 -17v-135h-551v135q45 10 90 17t89 10v686h-215v170h215v90q0 100 30 175t93.5 125t163 75.5t237.5 25.5 q82 0 175 -8t185 -22v-1317q43 -3 86.5 -10t83.5 -17v-135h-542z" />
<glyph unicode="fb" horiz-adv-x="1888" d="M457 161q41 -3 84.5 -10t83.5 -17v-134h-564v134q40 10 86 17t92 10v688h-215v169h215v91q0 99 30 174t93 125t162 75.5t238 25.5q85 0 178.5 -8t181.5 -22v-453q0 -23 -1 -48.5t-3.5 -51.5t-5.5 -50t-6 -44l3 -1q20 48 52 86.5t73.5 65t91.5 40.5t105 14q91 0 161 -31.5 t117.5 -92.5t72.5 -150t25 -204q0 -132 -36.5 -238.5t-106 -181.5t-169 -115.5t-225.5 -40.5q-58 0 -107 3t-92 8.5t-84 13.5t-82 19v1292q-23 3 -46.5 5.5t-46.5 4.5t-45 3t-42 1q-139 0 -203.5 -55.5t-64.5 -176.5v-83h256v-169h-256v-688zM1577 538q0 77 -12 137t-37 100 t-63.5 61t-89.5 21q-41 0 -76 -15t-63 -41t-49 -61t-35.5 -75.5t-22 -84t-7.5 -86.5v-315q35 -12 74 -17t88 -5q65 0 119 21t92.5 66.5t60 118t21.5 175.5z" />
<glyph unicode="fh" horiz-adv-x="1968" d="M1544 0v655q0 47 -7.5 84.5t-25.5 63.5t-47 39.5t-73 13.5q-57 0 -106 -28.5t-84.5 -78t-55.5 -116t-20 -143.5v-329q40 -3 80.5 -9t77.5 -15v-137h-531v134q35 10 74.5 17t80.5 10v1158q-45 7 -89.5 10.5t-84.5 3.5q-73 0 -125 -15t-85.5 -44t-49.5 -73t-16 -104v-79 h267v-169h-267v-688q41 -3 80.5 -10t75.5 -17v-134h-552v134q40 10 86 17t92 10v688h-215v169h215v91q0 99 30 174t93.5 125t163 75.5t237.5 25.5q86 0 179.5 -8t182.5 -22v-445q0 -24 -1 -51.5t-3 -54.5t-5.5 -53t-7.5 -46l3 -2q22 48 56 87t77.5 66.5t97 42.5t115.5 15 q86 0 144.5 -25.5t94 -69.5t50.5 -103t15 -126v-553q43 -3 87.5 -10t82.5 -17v-134h-387z" />
<glyph unicode="fj" horiz-adv-x="1282" d="M1122 -97q0 -103 -18.5 -180.5t-61.5 -130.5t-114.5 -79.5t-176.5 -26.5q-34 0 -72.5 5t-69.5 14l16 188q29 -11 62 -17t64 -6q44 0 74 10t47.5 35t25 66t7.5 102v966h-448v-688q41 -3 84.5 -10t83.5 -17v-134h-564v134q40 10 86 17t92 10v688h-215v169h215v41 q0 119 37 204t104.5 139.5t163 80.5t212.5 26q80 0 162 -10.5t152 -27.5l-42 -182q-31 9 -65.5 16.5t-70 12.5t-70 8t-63.5 3q-83 0 -140.5 -17.5t-93.5 -50t-52 -80t-16 -107.5v-56h665v-1115v0z" />
<glyph unicode="fk" horiz-adv-x="1868" d="M1511 0l-386 525v-364q39 -3 75.5 -9t67.5 -15v-137h-516v134q35 10 74.5 17t80.5 10v1158q-45 7 -89.5 10.5t-84.5 3.5q-73 0 -125 -15t-85.5 -44t-49.5 -73t-16 -104v-79h267v-169h-267v-688q41 -3 80.5 -10t75.5 -17v-134h-552v134q40 10 86 17t92 10v688h-215v169 h215v91q0 99 30 174t93.5 125t163 75.5t237.5 25.5q86 0 179.5 -8t182.5 -22v-924l268 305q-34 4 -62 9t-48 12v137h515v-137q-31 -8 -68 -14t-73 -9l-286 -307l301 -387q35 -5 75 -11.5t81 -14.5v-138h-317z" />
<glyph unicode=" "  horiz-adv-x="446" />
<glyph unicode="&#x09;" horiz-adv-x="446" />
<glyph unicode="&#xa0;" horiz-adv-x="446" />
<glyph unicode="!" horiz-adv-x="655" d="M441 362h-187l-36 1082h257zM485 116q0 -28 -11 -53t-30 -43.5t-44.5 -29t-54.5 -10.5t-54.5 10.5t-44.5 29t-30 43.5t-11 53q0 29 11 54t30 43t44.5 29t54.5 11t54.5 -11t44.5 -29t30 -43t11 -54z" />
<glyph unicode="&#x22;" horiz-adv-x="784" d="M654 942h-162l-31 493h225zM292 942h-162l-31 493h225z" />
<glyph unicode="#" horiz-adv-x="1407" d="M996 377l-41 -377h-188l40 377h-277l-40 -377h-188l40 377h-284v159h300l37 347h-279v159h296l36 340h188l-36 -340h277l36 340h189l-36 -340h283v-159h-300l-36 -347h278v-159h-295zM861 883h-278l-37 -347h278z" />
<glyph unicode="$" horiz-adv-x="1016" d="M149 396h145q8 -42 13.5 -80.5t9.5 -74.5q28 -7 59.5 -11t57.5 -4q53 0 98.5 10t79 32t52.5 56.5t19 82.5t-24.5 81t-65 57.5t-92 44.5t-106 42t-106 49.5t-92 67t-65 95.5t-24.5 135q0 67 24 125.5t68 104.5t104.5 77.5t134.5 43.5v223h159v-212q65 -2 123 -9.5 t113 -20.5v-312h-145q-8 42 -14 80.5t-8 71.5q-24 6 -49.5 8.5t-50.5 2.5q-64 0 -108.5 -13.5t-73 -35.5t-41 -51t-12.5 -60q0 -45 25 -77t66 -56.5t93 -44.5t106 -43t106.5 -51.5t93.5 -68.5t66 -95.5t25 -132.5q0 -70 -24 -132.5t-69 -112t-109 -85t-145 -51.5v-259h-159 v248q-71 1 -132.5 8.5t-125.5 24.5v322z" />
<glyph unicode="%" horiz-adv-x="1658" d="M745 1090q0 -86 -28.5 -153t-76 -113.5t-110 -71t-130.5 -24.5q-69 0 -127.5 20t-101 61t-66.5 104t-24 148q0 86 28.5 153t75.5 112t108 69t127 24q68 0 127.5 -18.5t103.5 -57.5t69 -101.5t25 -151.5zM556 1076q0 51 -8.5 87t-26.5 58.5t-45 33t-62 10.5 q-30 0 -56 -13.5t-45.5 -38t-30.5 -60t-11 -79.5q0 -50 8.5 -86.5t26 -60t43 -35t60.5 -11.5q33 0 60 13t46.5 38t30 61.5t10.5 82.5zM399 -50l-157 112l984 1371l156 -113zM1550 326q0 -86 -28.5 -153t-76.5 -113.5t-110 -71t-130 -24.5q-70 0 -128 20t-100.5 61.5 t-66.5 104t-24 147.5q0 86 28.5 153t75 112t108 69t127.5 24q67 0 126.5 -18.5t103.5 -57.5t69.5 -101.5t25.5 -151.5zM1362 312q0 51 -9 87t-27 58.5t-45.5 33t-62.5 10.5q-30 0 -56 -13.5t-45 -38t-30 -60t-11 -79.5q0 -50 8.5 -86.5t26 -60t43 -34.5t60.5 -11q32 0 59 13 t46.5 38t31 61t11.5 82z" />
<glyph unicode="&#x26;" horiz-adv-x="1681" d="M1323 0q-60 43 -119.5 87t-104.5 82q-50 -41 -108.5 -76t-126 -60.5t-143 -39.5t-159.5 -14q-115 0 -200.5 31.5t-142 86t-84.5 128t-28 157.5q0 68 19.5 127t55.5 111.5t86.5 101t111.5 96.5q-50 59 -85 107.5t-56.5 92.5t-31.5 85t-10 84q0 65 25 123.5t74 102.5 t120 70t164 26q84 0 148 -21t108 -59t66 -91t22 -117q0 -53 -14 -102.5t-44.5 -98t-78 -97.5t-112.5 -101q41 -42 90.5 -90t103.5 -97t110.5 -97.5t111.5 -91.5v-2q22 30 41.5 66t34.5 77.5t24.5 87.5t12.5 96q-36 3 -69.5 9t-64.5 13v137h513v-137q-37 -9 -77.5 -15 t-80.5 -10q-12 -126 -56 -238.5t-115 -204.5q58 -45 116 -88t108 -78q34 -4 66.5 -9t63.5 -13v-137h-285zM708 1203q0 28 -8.5 54t-26.5 45.5t-45.5 30.5t-64.5 11q-33 0 -60.5 -10.5t-47 -30t-30.5 -46.5t-11 -59q0 -24 6.5 -50t22.5 -56t42 -66t63 -79q39 32 68.5 62.5 t50 61.5t31 63.5t10.5 68.5zM941 288q-57 48 -117.5 100.5t-117.5 105.5t-108 102.5t-91 91.5q-46 -38 -79 -73.5t-54 -69.5t-31 -67.5t-10 -68.5q0 -48 18.5 -92.5t53 -78t84 -53.5t111.5 -20q54 0 103 10t92 27t79.5 39.5t66.5 46.5z" />
<glyph unicode="'" horiz-adv-x="422" d="M292 942h-162l-31 493h225z" />
<glyph unicode="(" horiz-adv-x="623" d="M427 -433q-88 139 -145.5 271t-92 258.5t-48.5 247.5t-14 238q0 116 15.5 239.5t50.5 252.5t92.5 262t143.5 269l159 -75q-121 -211 -183.5 -448t-62.5 -489q0 -131 15.5 -255t47 -242.5t78.5 -231.5t110 -220z" />
<glyph unicode=")" horiz-adv-x="623" d="M505 591q0 -117 -15.5 -240.5t-51 -252.5t-93 -262t-144.5 -269l-158 75q121 211 184 448.5t63 489.5q0 261 -62.5 497.5t-186.5 450.5l165 77q87 -139 144.5 -271t92 -258.5t48.5 -247t14 -237.5z" />
<glyph unicode="*" horiz-adv-x="774" d="M614 954l-180 137l28 -225h-160l28 225l-181 -136l-78 137l210 88l-210 88l80 138l181 -136l-29 225h160l-28 -225l181 136l78 -137l-209 -88l209 -88z" />
<glyph unicode="+" d="M668 518v-399h-210v399h-374v182h374v398h210v-398h374v-182h-374z" />
<glyph unicode="," horiz-adv-x="494" d="M244 265q42 0 75.5 -23t51 -64t17.5 -96.5t-25 -122t-78 -141t-139 -151.5l-92 82q51 54 78 99t36 82t1 67t-29 55q-16 20 -23.5 43.5t-6 47t12 46t27 39.5t40.5 27t54 10z" />
<glyph unicode="-" horiz-adv-x="680" d="M94 492v176h492v-176h-492z" />
<glyph unicode="&#xad;" horiz-adv-x="680" d="M94 492v176h492v-176h-492z" />
<glyph unicode="." horiz-adv-x="494" d="M392 125q0 -30 -11.5 -56t-31 -46t-46 -31.5t-56.5 -11.5q-29 0 -55.5 11.5t-46 31.5t-31.5 46t-12 56t12 56t31.5 46t46 31.5t55.5 11.5q30 0 56.5 -11.5t46 -31.5t31 -46t11.5 -56z" />
<glyph unicode="/" horiz-adv-x="920" d="M207 -330h-214l718 1880h213z" />
<glyph unicode="0" horiz-adv-x="1257" d="M1161 547q0 -132 -43.5 -238.5t-121 -180.5t-177.5 -112.5t-211 -38.5q-110 0 -203 32t-162.5 98t-108 170.5t-38.5 244.5q0 129 43 234t119.5 179t177 113t213.5 39q88 0 160.5 -18.5t129.5 -53t99 -83t69 -108.5t40.5 -129.5t13.5 -147.5zM942 532q0 80 -19 147.5 t-57 117t-96 77t-135 27.5q-66 0 -124.5 -25t-102.5 -72.5t-68.5 -116t-24.5 -152.5q0 -81 18.5 -148.5t56.5 -117.5t97 -77.5t138 -27.5q65 0 123 25t101.5 72.5t68 116.5t24.5 154z" />
<glyph unicode="1" horiz-adv-x="760" d="M78 0v137q50 10 107 17t114 10v702l-221 -94l-37 180l309 117h174v-905q41 -3 87 -10t91 -17v-137h-624z" />
<glyph unicode="2" horiz-adv-x="987" d="M95 0v177l246 204q70 53 120 99.5t82.5 88t47.5 81t15 79.5t-12 73t-36 57t-59.5 37.5t-81.5 13.5q-37 0 -72.5 -7.5t-66.5 -19.5q-3 -37 -8.5 -79t-13.5 -81h-137v301q71 29 154 46t178 17q96 0 170 -24t124 -67.5t76 -103.5t26 -132q0 -57 -17 -110t-49.5 -104 t-81 -101t-112.5 -100l-187 -155l-3 -3q39 2 93 4t118 2.5t136 1t146 0.5v-195h-795z" />
<glyph unicode="3" horiz-adv-x="950" d="M416 1087q107 0 184 -26.5t126 -73t72.5 -108.5t23.5 -133q0 -58 -18 -110t-51 -95.5t-78.5 -78t-100.5 -56.5v-2q65 -14 116.5 -44t86.5 -73t54 -96.5t19 -114.5q0 -103 -40.5 -188.5t-115.5 -147.5t-180.5 -96.5t-235.5 -34.5q-48 0 -99.5 6t-95.5 16l20 197 q40 -14 87.5 -21t100.5 -7q72 0 131.5 16.5t101 49t64.5 79.5t23 107q0 71 -32.5 118.5t-92 73.5t-144 32t-187.5 -4v175q104 0 186 18t137 52t84 83.5t29 112.5q0 90 -51.5 141.5t-147.5 51.5q-32 0 -64.5 -7t-56.5 -17q-4 -37 -9.5 -77t-13.5 -82h-137v304q70 28 145.5 44 t159.5 16z" />
<glyph unicode="4" horiz-adv-x="1131" d="M865 0v-221q45 -3 89 -10.5t81 -17.5v-128h-566v128q40 10 86 17.5t92 10.5v221h-583l-35 179l554 886h282v-868h227v-197h-227zM650 851h-2l-409 -657q26 1 62 1.5t76 1t81.5 0.5h191.5v654z" />
<glyph unicode="5" horiz-adv-x="965" d="M877 106q0 -71 -21 -136t-60.5 -120.5t-94.5 -100t-123.5 -76t-147.5 -48t-164 -16.5q-41 0 -80.5 2.5t-81.5 7.5l23 199q34 -7 73.5 -11t78.5 -4q86 0 153.5 20.5t113 57t68.5 86.5t23 109q0 58 -24 106t-71 83.5t-116 55t-156 19.5h-34t-29 -0.5t-30.5 -1.5t-29.5 -2 v729h672v-215l-465 2v-330q124 0 222 -30t165 -86t101.5 -132t34.5 -168z" />
<glyph unicode="6" horiz-adv-x="1192" d="M1100 472q0 -108 -37 -198.5t-103.5 -156t-160 -102t-207.5 -36.5q-111 0 -198 39t-147.5 113.5t-92.5 182.5t-32 245q0 218 54.5 383t152 276t233.5 167.5t300 56.5q10 0 23.5 -0.5t28 -1.5t28.5 -1.5t25 -1.5v-193q-30 4 -61.5 6.5t-61.5 2.5q-101 0 -180 -29.5 t-137.5 -84.5t-98 -132.5t-59.5 -172.5q-4 -15 -8 -32t-9 -41l2 -2q46 68 129 108t192 40q99 0 178 -31t134 -88t84 -137.5t29 -178.5zM871 444q0 64 -17.5 114.5t-49.5 86t-77.5 54.5t-101.5 19q-64 0 -112 -22t-80 -58t-48 -82t-16 -94q0 -60 15 -113.5t46 -94t77.5 -64.5 t110.5 -24q59 0 106 21t79.5 58.5t50 88t17.5 110.5z" />
<glyph unicode="7" horiz-adv-x="956" d="M903 881q-61 -138 -118 -286.5t-109.5 -307t-99.5 -326t-87 -338.5h-245q40 165 88 329t101.5 321t110.5 306t118 291q-12 0 -41.5 -0.5t-70 -1t-85.5 -0.5h-87.5h-74h-63.5q-3 -42 -9.5 -85.5t-17.5 -90.5h-166v373h856v-184z" />
<glyph unicode="8" horiz-adv-x="1133" d="M1028 374q0 -96 -38.5 -170t-104.5 -124t-153.5 -76t-186.5 -26q-107 0 -189 26.5t-138 75t-85 114.5t-29 146q0 70 24 127t62.5 103t86.5 82.5t97 67.5l-2 1q-59 35 -105.5 73t-78 81t-48.5 93t-17 108q0 84 33.5 153t93.5 118.5t143 76.5t183 27q99 0 178.5 -24.5 t134.5 -69t84.5 -107t29.5 -137.5q0 -55 -16.5 -103t-48 -91.5t-79.5 -84t-112 -82.5q52 -31 102.5 -67t90 -81t64 -102t24.5 -128zM775 1093q0 36 -13.5 68.5t-40 57t-65.5 39t-90 14.5t-90.5 -14t-67 -39t-41.5 -58.5t-14 -72.5t15 -71.5t43.5 -62t69 -57t93.5 -56.5l2 -1 q51 34 89 64t62.5 59.5t36 61t11.5 68.5zM796 352q0 46 -18 84.5t-50.5 71.5t-78.5 62.5t-101 59.5h-2q-46 -28 -84.5 -57.5t-66.5 -62t-44 -69t-16 -77.5q0 -46 16 -83t46.5 -63.5t73 -41t96.5 -14.5q48 0 90 13t73 37.5t48.5 60t17.5 79.5z" />
<glyph unicode="9" horiz-adv-x="1192" d="M1069 491q0 -212 -50.5 -376.5t-146.5 -276.5t-235 -170.5t-316 -58.5q-30 0 -66.5 3t-69.5 9v201q33 -10 74 -15t76 -5q99 0 177 26.5t137 77t99 125t63 170.5q2 9 4 20.5t4.5 24.5t4.5 25t4 23l-2 1q-23 -32 -56.5 -57.5t-74.5 -43.5t-88 -27.5t-98 -9.5 q-97 0 -175 30.5t-132 87t-83 136.5t-29 179q0 107 36.5 198t102 157.5t157.5 104t203 37.5q105 0 193 -35t152 -107.5t99.5 -185.5t35.5 -268zM820 600q0 65 -16 120.5t-47.5 95t-78.5 62t-108 22.5q-56 0 -102 -21t-78.5 -58.5t-50.5 -88t-18 -107.5q0 -132 63 -203 t182 -71q59 0 106 20t79.5 54.5t50.5 79.5t18 95z" />
<glyph unicode=":" horiz-adv-x="598" d="M471 715q0 -29 -11.5 -55.5t-31 -46.5t-46 -31.5t-56.5 -11.5t-56.5 11.5t-46 31.5t-31 46.5t-11.5 55.5q0 30 11.5 56t31 46t46 31.5t56.5 11.5t56.5 -11.5t46 -31.5t31 -46t11.5 -56zM471 125q0 -30 -11.5 -56t-31 -46t-46 -31.5t-56.5 -11.5t-56.5 11.5t-46 31.5 t-31 46t-11.5 56t11.5 56t31 46t46 31.5t56.5 11.5t56.5 -11.5t46 -31.5t31 -46t11.5 -56z" />
<glyph unicode=";" horiz-adv-x="598" d="M471 715q0 -29 -11.5 -55.5t-31 -46.5t-46 -31.5t-56.5 -11.5t-56.5 11.5t-46 31.5t-31 46.5t-11.5 55.5q0 30 11.5 56t31 46t46 31.5t56.5 11.5t56.5 -11.5t46 -31.5t31 -46t11.5 -56zM325 265q42 0 75.5 -23t51.5 -64t17.5 -96.5t-25.5 -122t-77.5 -141t-139.5 -151.5 l-92 82q51 54 78.5 99t36 82t0.5 67t-29 55q-16 20 -23 43.5t-5.5 47t11.5 46t27 39.5t40.5 27t53.5 10z" />
<glyph unicode="&#x3c;" d="M790 27l-651 591l649 590l142 -143l-510 -445l511 -444z" />
<glyph unicode="=" d="M112 703v179h903v-179h-903zM112 335v179h903v-179h-903z" />
<glyph unicode="&#x3e;" d="M338 27l-142 143l510 446l-511 443l141 149l651 -590z" />
<glyph unicode="?" horiz-adv-x="918" d="M806 1054q0 -64 -17.5 -113t-45 -89t-62.5 -73.5t-69 -65.5t-63.5 -66t-47.5 -75.5t-20.5 -92t16.5 -117.5h-213q-24 74 -25.5 133t14 107t43 86.5t60.5 72t66.5 64t61 62t45 66.5t17.5 78q0 48 -28.5 89t-81.5 71t-128.5 48t-171.5 22l27 199q155 -4 271.5 -39 t194.5 -91t117.5 -127.5t39.5 -148.5zM533 116q0 -28 -11 -53t-30 -43.5t-44.5 -29t-54.5 -10.5t-54.5 10.5t-44.5 29t-30 43.5t-11 53q0 29 11 54t30 43t44.5 29t54.5 11t54.5 -11t44.5 -29t30 -43t11 -54z" />
<glyph unicode="@" horiz-adv-x="1997" d="M1808 838q0 -133 -34.5 -241t-97.5 -182.5t-148 -113.5t-185 -39q-59 0 -103 16.5t-72.5 46t-41 68t-10.5 82.5h-4q-18 -42 -46 -79.5t-65 -68t-83 -48t-99 -17.5q-52 0 -94.5 18.5t-73 56t-47 92.5t-16.5 126q0 113 30.5 211.5t91.5 174t152 117.5t207 42q52 0 101.5 -5 t87 -11.5t59 -11.5t29.5 -7l-76 -410q-11 -59 -9.5 -102t14.5 -71t38 -42t61 -14q54 0 100 26.5t80 78t53 127t19 171.5q0 100 -32 191.5t-100 165.5t-176 117t-255 43q-97 0 -188 -25t-170.5 -72.5t-144.5 -115t-111.5 -151.5t-71.5 -183t-25 -207q0 -140 39 -252 t117.5 -191t196 -121t272.5 -42q88 0 180.5 14.5t181.5 42.5l25 -152q-47 -15 -100 -27t-107 -20t-105.5 -12t-97.5 -4q-186 0 -332.5 52t-247.5 149.5t-152.5 235t-51.5 306.5q0 134 32 256t91 226t141.5 187t183.5 141.5t216.5 89t238.5 30.5q120 0 223 -24t185 -68 t143 -105t102 -135t61.5 -157.5t20.5 -173.5zM1135 930q-11 3 -39.5 7.5t-67.5 4.5q-41 0 -76 -15.5t-63 -42.5t-48.5 -62.5t-34 -75.5t-20 -81.5t-6.5 -80.5q0 -78 21.5 -116t68.5 -38q35 0 70 25t67.5 75t60 126t46.5 175z" />
<glyph unicode="A" horiz-adv-x="1421" d="M889 0v135q47 10 82 16t69 9l-71 202h-541l-72 -202q35 -3 74 -9.5t82 -15.5v-135h-498v135q26 7 58.5 13.5t60.5 9.5l436 1224h279l440 -1224q28 -3 60.5 -9.5t58.5 -13.5v-135h-518zM764 967q-18 54 -33.5 104.5t-30.5 104.5h-4q-11 -46 -23 -87.5t-36 -119.5 l-154 -430h432z" />
<glyph unicode="B" horiz-adv-x="1245" d="M1153 418q0 -45 -10.5 -94t-35.5 -96t-66 -89t-101.5 -74.5t-142.5 -51t-188 -18.5q-29 0 -67.5 0.5t-86 1.5t-104 2t-120.5 1h-178v134q40 10 85.5 17t92.5 10v1060q-47 3 -92.5 10t-85.5 17v134h173q39 0 86.5 1t101 2.5t113 2.5t122.5 1q112 0 196 -22.5t140.5 -66 t85.5 -105.5t29 -142q0 -54 -13.5 -102.5t-40.5 -89.5t-67 -72.5t-94 -51.5v-4q68 -13 118 -43.5t83.5 -73t50 -93.5t16.5 -105zM866 1018q0 43 -13 78t-42.5 60.5t-78 39.5t-120.5 14q-23 0 -43.5 -0.5t-39.5 -1t-37.5 -1t-38.5 -1.5v-408q28 -2 55 -2h63q78 0 133.5 14.5 t91.5 43.5t53 70t17 94zM915 413q0 60 -25.5 101t-70.5 66.5t-106.5 37t-135.5 11.5h-24.5h-34.5t-35.5 -0.5t-29.5 -1.5v-442q26 -4 68.5 -6t96.5 -2q77 0 132.5 17.5t92 48.5t54.5 74.5t18 95.5z" />
<glyph unicode="C" horiz-adv-x="1204" d="M1130 57q-43 -16 -91 -30t-100 -24t-105.5 -15.5t-104.5 -5.5q-160 0 -281.5 46.5t-202 135t-121 214.5t-40.5 284q0 161 43 295.5t128.5 234t214 153.5t294.5 54q82 0 167 -11t169 -30v-363h-166q-4 23 -11.5 73.5t-13.5 107.5q-20 6 -68.5 14t-109.5 8 q-98 0 -173.5 -37.5t-126.5 -105.5t-77 -160t-26 -201q0 -120 26.5 -214.5t80.5 -161t138.5 -101.5t198.5 -35q40 0 82 5t84 14.5t81.5 22t76.5 26.5z" />
<glyph unicode="D" horiz-adv-x="1448" d="M1363 710q0 -177 -56.5 -311.5t-157.5 -225t-242.5 -136t-310.5 -45.5q-54 0 -107 1.5t-101.5 3t-89.5 2.5t-67 1h-178v134q40 10 85.5 17t92.5 10v1060q-47 3 -92.5 10t-85.5 17v134h173q41 0 91 1t106.5 2.5t116 3t119.5 1.5q163 0 293.5 -39t221.5 -121.5t140 -211 t49 -308.5zM1125 694q0 123 -28 218t-87 160t-150.5 98.5t-219.5 33.5h-51t-50 -1t-46 -2t-40 -2v-1006q17 -3 37.5 -5t42 -3.5t44 -2t42.5 -0.5q112 0 205 30t160 93t104 159.5t37 229.5z" />
<glyph unicode="E" horiz-adv-x="1092" d="M53 0v135q43 10 89 17t89 10v1059q-44 3 -90.5 10t-87.5 16v135h916v-325h-162q-4 18 -11.5 60t-13.5 89h-329v-413h264q5 43 13.5 78t12.5 49h140v-418h-140q-4 14 -12.5 48.5t-13.5 78.5h-264v-449h331q6 48 14.5 91.5t12.5 62.5h162v-334h-920z" />
<glyph unicode="F" horiz-adv-x="1038" d="M807 1053q-6 32 -14 76t-11 75h-329v-428h272q5 35 11 67t14 60h139v-424h-139q-8 28 -14 60t-11 67h-272v-444q43 -3 89 -10t89 -17v-135h-578v135q43 10 89 17t89 10v1059q-44 3 -90.5 10t-87.5 16v135h914v-329h-160z" />
<glyph unicode="G" horiz-adv-x="1415" d="M1362 575q-32 -7 -63.5 -12.5t-61.5 -9.5v-490q-51 -20 -108 -35.5t-116.5 -26t-120.5 -16t-120 -5.5q-159 0 -287.5 46.5t-218.5 135t-137 215.5t-47 285q0 162 50 297.5t147 234.5t236.5 153t313.5 54q95 0 189.5 -12.5t195.5 -36.5v-346h-165q-10 42 -15.5 80.5 t-11.5 95.5q-53 12 -105.5 19t-101.5 7q-108 0 -198 -33.5t-156.5 -100t-102.5 -165t-36 -225.5q0 -119 33 -213t95 -159.5t151 -99.5t200 -34q58 0 111 8.5t102 24.5v340q-47 3 -92.5 10.5t-81.5 18.5v133h522v-138z" />
<glyph unicode="H" horiz-adv-x="1559" d="M948 0v137q34 9 74.5 15.5t83.5 9.5v459h-653v-459q42 -3 82.5 -9.5t74.5 -15.5v-137h-557v135q43 10 89 17t89 10v1059q-44 3 -90.5 10t-87.5 16v135h557v-137q-34 -9 -74.5 -15t-82.5 -9v-410h653v410q-42 3 -83 9t-75 15v137h559v-135q-42 -9 -87.5 -16t-90.5 -10 v-1059q44 -3 89 -10t89 -17v-135h-559z" />
<glyph unicode="I" horiz-adv-x="684" d="M53 0v135q43 10 89 17t89 10v1059q-44 3 -90.5 10t-87.5 16v135h578v-135q-41 -9 -87.5 -16t-90.5 -10v-1059q43 -3 89 -10t89 -17v-135h-578z" />
<glyph unicode="J" horiz-adv-x="721" d="M670 1245q-64 -15 -135 -24v-848q0 -59 -8.5 -110t-26.5 -94.5t-46.5 -78t-68.5 -58.5t-93 -37t-118 -13q-20 0 -41 1.5t-41.5 3.5t-40 5t-37.5 6v188q28 -9 64.5 -14.5t68.5 -5.5q41 0 71 10t51 34t31.5 65.5t10.5 103.5v842q-44 3 -90.5 10t-87.5 16v135h537v-137z" />
<glyph unicode="K" horiz-adv-x="1391" d="M798 0v137q29 7 59 12t59 8l-463 533v-529q34 -3 72.5 -9t72.5 -15v-137h-545v134q40 10 85.5 17t92.5 10v1060q-47 3 -92.5 10t-85.5 17v134h545v-137q-34 -9 -72.5 -15t-72.5 -9v-496l457 499q-31 3 -65 8.5t-61 12.5v137h534v-136q-31 -7 -67.5 -13t-68.5 -10 l-477 -505l507 -559q33 -3 69 -9t67 -14v-136h-550z" />
<glyph unicode="L" horiz-adv-x="999" d="M53 0v135q43 10 89 17t89 10v1059q-44 3 -90.5 10t-87.5 16v135h578v-135q-41 -9 -87.5 -16t-90.5 -10v-1037h325q5 43 14.5 94.5t22.5 100.5h156v-379h-918z" />
<glyph unicode="M" horiz-adv-x="1939" d="M1407 0v135q36 8 77 15t77 10l-91 645q-15 106 -24 189.5t-14 154.5h-5q-12 -71 -27 -133.5t-36 -124.5l-301 -891h-207l-289 854q-24 74 -41.5 145t-33.5 150h-5q-1 -40 -4 -84t-7 -88.5t-9 -89.5l-10 -90l-78 -637q35 -3 72.5 -9.5t78.5 -15.5v-135h-503v135 q12 3 28.5 6.5t34.5 6.5t35.5 6t30.5 4l157 1063q-43 3 -85.5 9.5t-84.5 16.5v135h480l268 -774q11 -31 22 -67t21 -73t19 -74.5t16 -71.5h4q16 76 34 143t42 133l266 784h481v-135q-41 -10 -84 -16.5t-86 -9.5l162 -1063q26 -3 60.5 -9.5t66.5 -13.5v-135h-508z" />
<glyph unicode="N" horiz-adv-x="1556" d="M1505 1245q-39 -9 -72 -15t-65 -9v-1221h-301l-414 715q-33 56 -62 106.5t-58.5 103t-56.5 103.5t-48 96q6 -82 9.5 -184t5.5 -220.5t2.5 -251t0.5 -306.5q42 -3 82 -9.5t76 -15.5v-137h-551v135q43 10 89 17t89 10v1059q-44 3 -90.5 10t-87.5 16v135h482l411 -710 q28 -47 58.5 -100t60 -107t56.5 -105.5t50 -97.5q-6 84 -10 187t-6 222t-3 254t-1 296q-39 3 -77.5 9t-72.5 15v137h504v-137z" />
<glyph unicode="O" horiz-adv-x="1442" d="M1364 711q0 -174 -52.5 -309.5t-143 -229.5t-211.5 -143.5t-257 -49.5q-155 0 -271.5 49t-194.5 139.5t-117 218.5t-39 286q0 173 52.5 309t142.5 230t211 143.5t257 49.5q155 0 271.5 -49.5t195 -140t117.5 -218.5t39 -285zM1129 681q0 118 -25.5 214.5t-76 165.5 t-127 107t-178.5 38q-87 0 -162 -33t-129.5 -96.5t-86 -157.5t-31.5 -216q0 -118 25.5 -215t76 -166t126.5 -106.5t179 -37.5q86 0 161 32.5t130 96t86.5 158t31.5 216.5z" />
<glyph unicode="P" horiz-adv-x="1184" d="M1139 954q0 -105 -38.5 -195t-111 -156.5t-176.5 -103t-231 -36.5q-31 0 -67.5 2t-61.5 4v-307q43 -3 89 -10t89 -17v-135h-578v135q43 10 89 17t89 10v1059q-44 3 -90.5 10t-87.5 16v135h178q20 0 69.5 1.5t100.5 3.5t104 3t99 1q136 0 238 -32.5t167.5 -91.5 t97.5 -138.5t32 -174.5zM907 928q0 58 -16.5 107.5t-53.5 88.5t-99 61.5t-150 22.5q-48 0 -79.5 -0.5t-55.5 -3.5v-547q25 -5 62.5 -7.5t80.5 -2.5q76 0 134.5 21t98 59t59 89t19.5 112z" />
<glyph unicode="Q" horiz-adv-x="1440" d="M1441 -136q-88 -12 -153.5 -8.5t-117.5 16.5t-97 31.5t-91.5 35t-100.5 28.5t-125 12h-56q-155 0 -271.5 49t-194.5 139.5t-117 218.5t-39 286q0 173 52.5 309t142.5 230t211 143.5t257 49.5q155 0 271.5 -49.5t195 -140t117.5 -218.5t39 -285q0 -107 -21.5 -202 t-62.5 -173t-100.5 -137.5t-134.5 -94.5q30 0 57.5 -5t55.5 -12.5t57 -15.5t63 -13.5t74 -7t89 4.5v-191zM1129 681q0 118 -25.5 214.5t-76 165.5t-127 107t-178.5 38q-87 0 -162 -33t-129.5 -96.5t-86 -157.5t-31.5 -216q0 -118 25.5 -215t76 -166t126.5 -106.5t179 -37.5 q86 0 161 32.5t130 96t86.5 158t31.5 216.5z" />
<glyph unicode="R" horiz-adv-x="1260" d="M899 0l-346 598h-100v-436q37 -3 72.5 -9.5t68.5 -15.5v-137h-541v135q43 10 89 17t89 10v1059q-44 3 -90.5 10t-87.5 16v135h160q12 0 34 0.5t68.5 2t75.5 2.5t68.5 2t80 1.5t76.5 0.5q117 0 208.5 -20.5t157 -65.5t100 -118t34.5 -175q0 -75 -24.5 -138t-70.5 -110 t-108.5 -78.5t-138.5 -46.5q20 -26 41.5 -56.5t40.5 -60.5l217 -358q37 -5 74 -11t74 -14v-139h-322zM883 993q0 59 -18 100.5t-54.5 68.5t-92 39.5t-132.5 12.5q-14 0 -32 -0.5t-37 -1t-36 -2t-28 -2.5v-444h145q68 0 121.5 15.5t90 45t55 72t18.5 96.5z" />
<glyph unicode="S" horiz-adv-x="1053" d="M965 387q0 -92 -34 -167t-99 -129t-158 -82.5t-209 -28.5t-213 13t-139 21v348h163q5 -22 13.5 -71.5t13.5 -104.5q22 -6 72.5 -15t111.5 -9q57 0 102 13t76 39t47.5 64t16.5 87q0 52 -25.5 91t-68 67.5t-107 57.5t-125.5 56t-114.5 58.5t-97 75.5t-69.5 106t-26 143 q0 86 33.5 157t97.5 121.5t156 77.5t207 27q94 0 176.5 -11t118.5 -18v-334h-162q-4 22 -11.5 70t-11.5 102q-16 3 -52.5 8t-80.5 5q-56 0 -100 -12t-74.5 -35.5t-46.5 -57.5t-16 -78q0 -51 25.5 -89.5t68.5 -66.5t106 -56t125.5 -56t116 -59.5t97.5 -76t70 -107t26 -144.5z " />
<glyph unicode="T" horiz-adv-x="1174" d="M977 1018q-11 63 -19 107t-10 75h-250v-1038q44 -3 89 -10t90 -17v-135h-580v135q43 10 89 17t89 10v1038h-252q-3 -34 -8.5 -72.5t-17.5 -109.5h-160v364h1100v-364h-160z" />
<glyph unicode="U" horiz-adv-x="1460" d="M1409 1245q-64 -15 -135 -24v-689q0 -135 -36 -238t-107 -173t-175.5 -105.5t-240.5 -35.5q-106 0 -187.5 18.5t-140 52.5t-97 80t-61 101t-32 115.5t-9.5 127.5v746q-77 10 -135 24v137h514v-137q-36 -9 -75.5 -15t-79.5 -9v-729q0 -75 14 -134t49 -103t97.5 -68.5 t156.5 -24.5q85 0 146 19.5t101 62t59.5 111t19.5 167.5v699q-41 3 -81.5 9t-74.5 15v137h510v-137z" />
<glyph unicode="V" horiz-adv-x="1386" d="M1372 1245q-25 -6 -57 -11.5t-60 -8.5l-438 -1225h-256l-430 1225q-28 3 -60 8.5t-57 11.5v137h516v-135q-39 -8 -79 -14.5t-76 -9.5l233 -693q23 -68 45.5 -140.5t40.5 -141.5h4q8 33 18 68t20.5 69.5t29 93t20.5 66.5l240 678q-35 3 -73.5 9t-80.5 15v135h500v-137z " />
<glyph unicode="W" horiz-adv-x="1999" d="M1984 1245q-25 -7 -57 -12t-60 -9l-283 -1224h-290l-246 830q-17 62 -32 127.5t-25 131.5h-2q-8 -65 -20 -131t-29 -130l-231 -828h-291l-286 1224q-28 4 -60 9t-57 12v137h502v-134q-35 -8 -74.5 -14.5t-78.5 -10.5l168 -709q8 -34 15 -69.5t13.5 -71.5t12 -71.5 t10.5 -69.5h2q5 33 12 68.5t14.5 70t15.5 68.5t17 67l251 876h218l268 -889q17 -59 33 -127t27 -134h2q8 66 17 129t19 121l164 741q-38 4 -76 10.5t-73 14.5v134h490v-137v0z" />
<glyph unicode="X" horiz-adv-x="1393" d="M813 0v137q35 8 68.5 14t66.5 7l-266 403l-262 -403q29 -1 64.5 -7t68.5 -14v-137h-530v135q35 8 70 14t67 9l395 542l-381 525q-31 3 -64.5 9t-64.5 13v135h555v-137q-33 -8 -67.5 -13.5t-69.5 -6.5l244 -371l245 371q-32 1 -66 6.5t-67 13.5v137h529v-135 q-29 -7 -64 -12.5t-76 -11.5l-370 -510l405 -555q29 -3 62.5 -9t66.5 -14v-135h-559z" />
<glyph unicode="Y" horiz-adv-x="1233" d="M1219 1245q-25 -7 -57 -12t-60 -9l-377 -743v-320q46 -3 92 -10t86 -17v-134h-579v134q40 10 85.5 17t92.5 10v319l-371 744q-26 4 -59 9t-58 12v137h503v-137q-32 -8 -66.5 -13.5t-70.5 -8.5l148 -322q11 -26 23.5 -53.5t25 -56t24.5 -56t22 -53.5h2q10 27 22 56.5 t25 59.5t26.5 58.5t25.5 54.5l145 312q-37 3 -72 8.5t-67 13.5v137h489v-137v0z" />
<glyph unicode="Z" horiz-adv-x="1110" d="M86 0v170l573 879q34 52 56 84t47 65q-50 -2 -111.5 -3t-134.5 -1h-225q-3 -37 -9.5 -79t-15.5 -87h-164v354h918v-176l-602 -907q-19 -29 -36.5 -55.5t-37.5 -55.5q14 2 39 3t58.5 1.5t71 0.5h101.5h228q5 46 11.5 88t16.5 86h158v-367h-942z" />
<glyph unicode="[" horiz-adv-x="664" d="M162 -412v1997h426v-172h-221v-1651h221v-174h-426z" />
<glyph unicode="\" horiz-adv-x="940" d="M735 -330l-717 1880h215l717 -1880h-215z" />
<glyph unicode="]" horiz-adv-x="664" d="M76 -412v174h221v1651h-221v172h426v-1997h-426z" />
<glyph unicode="^" d="M825 696l-284 527l-271 -527l-147 78l338 608h172l352 -604z" />
<glyph unicode="_" d="M0 -508v175h1126v-175h-1126z" />
<glyph unicode="`" horiz-adv-x="717" d="M461 1155l-307 262l127 131l282 -288z" />
<glyph unicode="a" horiz-adv-x="1101" d="M1066 14q-11 -1 -41 -4t-81.5 -6.5t-117 -5t-130.5 0.5q-1 76 3.5 124.5t7.5 65.5l-3 1q-18 -45 -50.5 -83.5t-76.5 -67t-96.5 -44t-109.5 -15.5q-68 0 -122 19.5t-91.5 56t-57 88.5t-19.5 116q0 87 44 152.5t124 108.5t189.5 64.5t242.5 22.5v62q0 52 -10 89.5t-33 63.5 t-61.5 39t-94.5 13q-58 0 -105 -9.5t-67 -15.5q-4 -44 -11.5 -88t-11.5 -65h-136v286q38 14 133.5 34t221.5 20q112 0 188.5 -23.5t122 -68.5t65 -108.5t19.5 -148.5v-519q21 -3 67 -9.5t98 -10.5v-135zM681 462q-95 0 -167 -9.5t-122 -30.5t-75.5 -54.5t-25.5 -80.5 q0 -31 9.5 -56t27.5 -43.5t45 -28.5t62 -10q53 0 98.5 24t78.5 65.5t51 93.5t18 106v24z" />
<glyph unicode="b" horiz-adv-x="1146" d="M1065 559q0 -131 -36.5 -237.5t-107 -182.5t-171 -116t-226.5 -40q-53 0 -101 3t-91.5 8.5t-85 13.5t-84.5 19v1299q-39 6 -85 11.5t-89 8.5v134q44 5 92 9t98.5 6t101.5 2.5t100 -1.5v-470q0 -23 -1 -48.5t-3 -51.5t-5 -50.5t-7 -43.5l3 -1q20 48 52 86t73.5 65t92 41 t105.5 14q90 0 160 -31.5t118 -92.5t72.5 -150t24.5 -204zM835 538q0 78 -12.5 137.5t-37.5 100t-63 61t-90 20.5q-40 0 -74.5 -14.5t-62.5 -40.5t-49.5 -61t-36 -76t-22 -84.5t-7.5 -86.5v-315q35 -11 74.5 -16.5t87.5 -5.5q67 0 120.5 21.5t92 67.5t59.5 119t21 173z" />
<glyph unicode="c" horiz-adv-x="914" d="M861 36q-32 -11 -67.5 -20.5t-75 -17t-82 -11.5t-86.5 -4q-69 0 -130 11.5t-113.5 36t-95 64t-72 94.5t-45.5 127.5t-16 162.5q0 122 31.5 223t95 176t161.5 116t227 41q61 0 124.5 -9.5t119.5 -25.5v-317h-137q-4 20 -12.5 64.5t-12.5 92.5q-12 4 -42.5 9t-69.5 5 q-60 0 -108 -24.5t-81 -70t-50.5 -108.5t-17.5 -140q0 -80 14.5 -141.5t47.5 -106t88.5 -68.5t135.5 -24q58 0 122 12.5t117 33.5z" />
<glyph unicode="d" horiz-adv-x="1184" d="M1151 15q-40 -5 -87 -9t-96.5 -6t-99 -2.5t-94.5 1.5q0 22 1 46t2.5 49.5t4.5 50.5t7 45l-4 2q-21 -48 -53.5 -87t-75.5 -67.5t-94.5 -43.5t-109.5 -15q-92 0 -162.5 33t-117.5 95.5t-70.5 151t-23.5 199.5q0 131 36.5 237.5t106 182.5t168.5 116t221 40q37 0 74 -2 t79 -7v301q-38 6 -86 11.5t-92 8.5v134q44 5 93 9t100.5 6t103 2.5t100.5 -1.5v-1327q37 -6 83.5 -11.5t85.5 -8.5v-134zM763 841q-39 10 -79 14.5t-82 4.5q-67 0 -120.5 -21.5t-92 -67t-59.5 -118t-21 -173.5q0 -78 12 -137.5t37 -100t63.5 -61.5t89.5 -21q40 0 74.5 14.5 t63 41t49.5 61.5t35.5 76.5t22 85.5t7.5 88v314z" />
<glyph unicode="e" horiz-adv-x="1046" d="M959 612q0 -24 -1 -48t-2.5 -43t-2.5 -30t-1 -15h-651q0 -82 17.5 -142.5t53.5 -100t92 -59.5t132 -20q75 0 151 13.5t152 39.5l26 -164q-85 -30 -176 -46.5t-179 -16.5q-121 0 -212.5 31.5t-153.5 96t-94 163t-32 231.5q0 114 32 212t93 170.5t148.5 112.5t195.5 40 q106 0 184.5 -32.5t129 -90.5t74.5 -135t24 -167zM740 627q1 59 -12.5 105.5t-40.5 78t-66 47.5t-87 16q-45 0 -84.5 -16.5t-69.5 -48t-49.5 -78t-26.5 -104.5h436z" />
<glyph unicode="f" horiz-adv-x="751" d="M797 1311q-37 10 -74 15.5t-71 5.5q-99 0 -147 -56.5t-48 -175.5v-82h267v-169h-267v-688q45 -3 91 -10t88 -17v-134h-575v134q40 10 86.5 17t91.5 10v688h-215v169h215v78q0 104 25.5 181.5t76.5 129t126.5 77t175.5 25.5q43 0 85 -4t86 -13z" />
<glyph unicode="g" horiz-adv-x="1098" d="M1044 -129q0 -82 -38 -155t-109.5 -126.5t-174.5 -81.5t-216 -28q-100 0 -178.5 17.5t-139 57.5t-90.5 96t-30 130q0 42 13 81.5t39 75.5t56 63.5t60 45.5q-47 28 -69 63t-22 87q0 28 8.5 54.5t24 49.5t37 40.5t47.5 32.5q-75 48 -114 118.5t-39 164.5q0 77 26.5 145.5 t77.5 121t137 83.5t186 31q44 0 79.5 -5t75.5 -15h341v-172h-132q21 -39 29.5 -74.5t8.5 -80.5q0 -86 -27 -154t-79.5 -117t-133.5 -78t-185 -29q-22 0 -42 3t-43 10q-28 -19 -41.5 -40t-13.5 -39q0 -19 9 -31.5t27.5 -20.5t50.5 -13.5t77 -6.5l163 -4q74 -3 139 -22.5 t110.5 -56.5t70 -93.5t24.5 -127.5zM728 673q0 95 -55 149.5t-148 54.5q-51 0 -88 -15.5t-65 -43t-40.5 -65t-12.5 -81.5q0 -86 54.5 -143.5t151.5 -57.5q49 0 84 13.5t62.5 39.5t42 63.5t14.5 85.5zM825 -157q0 33 -11 59.5t-33.5 46t-61 31.5t-97.5 14l-165 6h-28t-26 1 q-53 -38 -83.5 -83.5t-30.5 -96.5q0 -41 18 -75t51 -56.5t80.5 -33t101.5 -10.5q75 0 124 13.5t86.5 40t56 64t18.5 79.5z" />
<glyph unicode="h" horiz-adv-x="1263" d="M843 0v654q0 50 -7.5 86.5t-25 62t-47 39t-72.5 13.5q-56 0 -105 -28t-85 -78.5t-56 -117.5t-20 -142v-328q51 -4 92.5 -11.5t58.5 -12.5v-137h-538v134q38 10 81.5 17t86.5 10v1165q-37 6 -84.5 11.5t-89.5 8.5v134q43 5 91 9t99 6t102.5 2.5t100.5 -1.5v-464 q0 -25 -1 -52t-3 -54.5t-5.5 -53t-8.5 -45.5l4 -1q22 48 55.5 87t77.5 67t98 42.5t115 14.5q84 0 143 -24.5t94.5 -69t51.5 -102.5t16 -128v-552q41 -3 83.5 -10t80.5 -17v-134h-383z" />
<glyph unicode="i" horiz-adv-x="649" d="M477 1335q0 -28 -11 -53t-30.5 -44t-45 -29.5t-54.5 -10.5t-54.5 10.5t-45 29t-30.5 43.5t-11 54q0 28 11 53t30.5 44.5t45 30t54.5 10.5t54.5 -10.5t45 -30t30.5 -44.5t11 -53zM57 0v135q20 5 66.5 14t101.5 13v686q-38 6 -83.5 11.5t-84.5 8.5v136q45 5 92 8.5 t96.5 5.5t100 2t98.5 -2v-856q42 -3 83.5 -10t82.5 -17v-135h-553z" />
<glyph unicode="j" horiz-adv-x="582" d="M452 1335q0 -29 -11 -54t-30 -43t-44.5 -29t-54.5 -11t-55 10.5t-45 29t-30 43.5t-11 54t11 54t30 43t45 29t55 11t54.5 -10.5t44.5 -29t30 -43.5t11 -54zM421 -97q0 -103 -19.5 -180.5t-63.5 -130.5t-116 -79.5t-177 -26.5q-30 0 -67.5 4t-71.5 13l16 188 q28 -10 60 -15.5t62 -5.5q45 0 75 10t49 35t27 66t8 102v966q-37 6 -82.5 11.5t-87.5 8.5v134q42 5 89 9t96.5 6t101 2t101.5 -1v-1116z" />
<glyph unicode="k" horiz-adv-x="1166" d="M808 0l-383 525v-364q40 -3 76.5 -9t65.5 -15v-137h-529v134q38 10 82 17t86 10v1165q-37 6 -84.5 11.5t-89.5 8.5v134q43 5 91 9t99 6t102.5 2.5t100.5 -1.5v-951l280 316q-35 3 -66.5 9t-52.5 15v133h512v-137q-30 -8 -67 -14t-75 -9l-286 -305l300 -389 q38 -5 79 -11.5t79 -14.5v-138h-320z" />
<glyph unicode="l" horiz-adv-x="629" d="M38 0v134q38 10 81.5 17t86.5 10v1165q-37 6 -84.5 11.5t-89.5 8.5v134q44 5 92 9t99 6t102 2.5t100 -1.5v-1335q43 -3 85 -10t81 -17v-134h-553z" />
<glyph unicode="m" horiz-adv-x="1894" d="M1477 0v653q0 49 -7 85.5t-23.5 63t-45 40.5t-70.5 14q-50 0 -97 -26.5t-84.5 -76t-59 -118.5t-21.5 -150v-323q51 -4 93 -12t59 -13v-137h-369v653q0 46 -6 82t-22 63.5t-45 42.5t-72 15q-53 0 -100.5 -27.5t-84.5 -78t-57.5 -119t-20.5 -146.5v-323q51 -4 93 -12 t59 -13v-137h-539v135q20 5 66.5 14t101.5 13v686q-38 6 -83.5 11.5t-84.5 8.5v136q45 5 92 8.5t96 5.5t97.5 2t93.5 -2q0 -21 -1 -46.5t-2.5 -52.5t-5 -53.5t-7.5 -48.5l4 -2q22 50 56.5 91.5t79.5 71t98.5 45t111.5 15.5q48 0 87 -9.5t69 -26.5t51.5 -38.5t36.5 -46 t23.5 -49.5t13.5 -49q18 39 48 77t72.5 70.5t98.5 52t123 19.5q77 0 134 -21.5t94.5 -63.5t56 -104t18.5 -142v-545q58 -5 102 -13.5t62 -13.5v-135h-383z" />
<glyph unicode="n" horiz-adv-x="1280" d="M862 0v653q0 50 -7.5 87t-25 63t-46.5 39.5t-72 13.5q-55 0 -104 -27.5t-85.5 -78t-57 -118t-20.5 -145.5v-325q51 -4 93 -12t59 -13v-137h-539v135q20 5 66.5 14t101.5 13v686q-38 6 -83.5 11.5t-84.5 8.5v136q45 5 92 8.5t96 5.5t97.5 2t93.5 -2q0 -21 -1 -47t-3 -53.5 t-5 -54t-7 -46.5l4 -2q22 50 56 91t78 70.5t98.5 45.5t117.5 16q85 0 144.5 -25t95.5 -70t51.5 -104.5t15.5 -131.5v-545q56 -5 101 -13.5t63 -13.5v-135h-383z" />
<glyph unicode="o" d="M1049 526q0 -116 -33 -215.5t-98 -174t-159.5 -115.5t-213.5 -41q-107 0 -193 31t-147.5 94.5t-94 160.5t-32.5 226q0 116 33 215.5t97.5 174t159.5 115.5t214 41q107 0 193 -31t147.5 -94.5t94 -160.5t32.5 -226zM823 510q0 82 -17.5 146.5t-51 108.5t-81 66.5 t-108.5 22.5q-59 0 -107.5 -22t-83 -65.5t-53 -109t-18.5 -149.5q0 -82 17.5 -146t51 -107.5t81 -66t108.5 -22.5q57 0 105 20.5t83 63t54.5 108t19.5 152.5z" />
<glyph unicode="p" horiz-adv-x="1188" d="M1106 560q0 -135 -35 -241.5t-102.5 -180t-166.5 -112.5t-226 -39q-21 0 -40.5 0.5t-38 1.5t-37 3t-38.5 5v-336q46 -3 92 -10t86 -17v-134h-565v134q40 10 81 17t88 10v1188q-37 6 -81 11.5t-88 8.5v134q42 5 89 9t96 6t98 2t94 -1q0 -21 -1 -45t-2.5 -50t-4.5 -50.5 t-6 -45.5l4 -2q21 50 53.5 89t74.5 66t93 41.5t110 14.5q90 0 159.5 -31.5t117 -92t72 -149.5t24.5 -204zM876 538q0 77 -12 137t-37 100.5t-63 61.5t-90 21q-41 0 -75.5 -15t-62.5 -41.5t-49.5 -61.5t-35.5 -76t-21.5 -85t-7.5 -88v-312q36 -12 75.5 -17t85.5 -5 q65 0 119 21t92.5 66.5t60 118t21.5 175.5z" />
<glyph unicode="q" horiz-adv-x="1143" d="M588 -500v134q40 10 85.5 17t92.5 10v337q0 19 0.5 42t2 47.5t4.5 50t7 49.5l-4 1q-20 -48 -52 -86.5t-73 -65.5t-90 -42t-102 -15q-91 0 -161.5 30.5t-118.5 90.5t-73 149.5t-25 207.5q0 132 36.5 238.5t106.5 182t171.5 116.5t231.5 41q49 0 95.5 -2t91.5 -6t87 -9.5 t83 -11.5v-1345q46 -3 88.5 -10t79.5 -17v-134h-564zM766 844q-40 9 -80 13t-82 4q-65 0 -118.5 -21t-92.5 -66.5t-60.5 -118t-21.5 -175.5q0 -78 12 -137.5t37 -100t63 -61.5t90 -21q41 0 75.5 15t62.5 41.5t49.5 62t36 76.5t22 86t7.5 90v313z" />
<glyph unicode="r" horiz-adv-x="819" d="M779 822q-95 15 -155 -5.5t-99.5 -72.5t-59.5 -134.5t-21 -196.5v-251q46 -4 88 -10.5t82 -16.5v-135h-557v135q40 10 80.5 17t87.5 10v686q-37 6 -80 11.5t-88 8.5v135q43 5 86 9t93.5 6t100.5 2t96 -1q0 -45 -4.5 -108t-14.5 -122l5 -2q15 52 43.5 104t70 87.5 t102 50.5t149.5 7z" />
<glyph unicode="s" horiz-adv-x="903" d="M819 287q0 -70 -27 -126.5t-81 -97t-133.5 -62t-182.5 -21.5q-55 0 -107.5 4t-93 9t-63 9t-31.5 6v295h140q4 -17 11 -57.5t11 -87.5q17 -5 58.5 -12t93.5 -7q43 0 76.5 8.5t57 24.5t36 40.5t12.5 55.5q0 36 -20.5 63t-54.5 46.5t-81 38.5t-100 40t-95.5 44.5t-78 57.5 t-56 81.5t-20.5 110.5q0 65 27 118t80.5 91t132 58.5t178.5 20.5q79 0 150 -9.5t102 -16.5v-287h-135q-4 18 -12 58.5t-13 88.5q-13 3 -43 7t-68 4q-87 0 -133.5 -29.5t-46.5 -87.5q0 -36 20.5 -63t54.5 -46.5t81.5 -38t101 -39t97 -44t78.5 -57t56 -81t21 -110.5z" />
<glyph unicode="t" horiz-adv-x="764" d="M698 6q-47 -11 -105 -17.5t-108 -6.5q-82 0 -136 17t-86 53.5t-46 94.5t-14 146v555h-195v170h195v323l219 60v-383h266v-170h-266v-488q0 -58 6.5 -94.5t21.5 -58t40.5 -30.5t64.5 -9q32 0 63.5 4t61.5 10z" />
<glyph unicode="u" horiz-adv-x="1262" d="M1227 14q-41 -5 -88 -8.5t-97 -5.5t-99 -2t-93 2q0 22 1 47.5t2.5 52t4 53t6.5 48.5h-4q-22 -50 -56 -90.5t-79 -69.5t-99.5 -45t-117.5 -16q-84 0 -143.5 25t-95 69t-51 102.5t-15.5 128.5v543q-38 6 -82.5 11.5t-83.5 8.5v136q41 5 87 8.5t96 5.5t101 2t99 -2v-653 q0 -50 7.5 -87t25 -63t47.5 -39.5t73 -13.5q56 0 105 28t85.5 78.5t56.5 117.5t20 142v322q-49 7 -86 11t-72 7v136q42 5 88 9t94 5.5t97 1.5t96 -2v-848q38 -6 83.5 -11.5t86.5 -8.5v-136z" />
<glyph unicode="v" horiz-adv-x="1159" d="M1145 883q-26 -8 -57.5 -14t-67.5 -11l-295 -858h-293l-293 858q-36 5 -67.5 11t-57.5 14v135h488v-137q-30 -9 -63 -14.5t-64 -6.5l143 -432q16 -47 29 -90.5t41 -140.5h2q12 48 28 102t39 129l138 432q-33 1 -66 6.5t-63 14.5v137h479v-135z" />
<glyph unicode="w" horiz-adv-x="1747" d="M1733 881q-24 -7 -50.5 -12t-70.5 -11l-269 -858h-245l-178 532q-15 48 -28.5 99.5t-29.5 116.5h-2q-13 -61 -29 -115.5t-43 -140.5l-151 -492h-246l-256 858q-44 6 -70.5 11t-50.5 12v137h478v-137q-28 -8 -58.5 -13t-66.5 -8l104 -383q18 -64 35.5 -126.5t28.5 -106.5 h2q12 59 24 103t45 157l164 514h213l164 -514q14 -44 24.5 -79t19 -65t16 -57.5t14.5 -58.5h4q6 26 12 51t12.5 48t17.5 61.5t17 62.5l113 393q-36 3 -67 8t-56 13v137h459v-137z" />
<glyph unicode="x" horiz-adv-x="1112" d="M750 0l-205 362l-203 -362h-324v137q50 12 90 19t76 10l232 346l-217 340q-37 3 -75.5 10t-88.5 19v137h330l196 -354l203 354h313v-137q-48 -11 -88.5 -18.5t-77.5 -10.5l-211 -334l228 -352q35 -3 74.5 -10t89.5 -19v-137h-342z" />
<glyph unicode="y" horiz-adv-x="1153" d="M1139 881q-24 -7 -50.5 -12t-70.5 -11l-344 -967q-42 -118 -85.5 -195.5t-95.5 -124.5t-118 -68t-154 -21q-15 0 -33.5 1t-38.5 3t-39 4.5t-36 5.5l14 193q38 -12 71.5 -17.5t67.5 -5.5q39 0 70 11t58.5 36.5t52 69t49.5 108.5l39 109h-60l-301 858q-44 6 -70.5 11 t-50.5 12v137h478v-137q-27 -8 -56 -13t-65 -8l131 -375q28 -84 46 -142.5t34 -117.5h2q6 27 16 62t22 74t25.5 79.5l28.5 85.5l117 334q-35 3 -65 8t-56 13v137h467v-137z" />
<glyph unicode="z" horiz-adv-x="930" d="M84 0v160l501 694q-19 -1 -44.5 -1.5t-55 -1t-60.5 -1t-61 -0.5h-108q-4 -36 -9.5 -69t-13.5 -71h-139v308h734v-160l-493 -683q19 1 45.5 1.5t56.5 1t61 0.5h59h120q5 34 10 70t14 74h139v-322h-756z" />
<glyph unicode="{" horiz-adv-x="717" d="M612 -412q-93 0 -158.5 25.5t-106.5 78.5t-59.5 132.5t-18.5 187.5v322q0 62 -12 104t-38 68.5t-66 39t-96 15.5v168q57 3 97.5 14.5t66 36.5t37 66t11.5 105v212q0 98 18 176.5t58 133t105.5 83.5t161.5 29h40v-172q-52 0 -87 -11t-55.5 -38.5t-29 -75t-8.5 -121.5v-210 q0 -74 -12.5 -128.5t-37 -92t-59.5 -59.5t-81 -30v-3q45 -7 80 -29.5t59.5 -61.5t37.5 -95t13 -130v-319q0 -73 8.5 -121t29 -76t55.5 -39t87 -11v-174h-40z" />
<glyph unicode="|" horiz-adv-x="586" d="M203 -500v2048h174v-2048h-174z" />
<glyph unicode="}" horiz-adv-x="713" d="M670 561q-56 -3 -96 -15.5t-65.5 -39t-37.5 -68.5t-12 -104v-322q0 -108 -19 -187.5t-60.5 -132.5t-106.5 -78.5t-157 -25.5h-41v174q52 0 86.5 11t55.5 39t30 76t9 121v319q0 74 13 130t37 95t59 61.5t80 29.5v3q-45 6 -80.5 27.5t-60 59t-36.5 91.5t-12 126v216 q0 74 -9 121.5t-30 75t-55.5 38.5t-86.5 11v172h41q95 0 161 -29t106 -83.5t58 -133t18 -176.5v-206q0 -66 11.5 -108.5t37 -68t65.5 -37t97 -14.5v-168v0z" />
<glyph unicode="~" d="M1028 1157q0 -70 -20 -127.5t-57.5 -98t-91 -63.5t-119.5 -23q-58 0 -98 16t-69.5 41t-52 53t-44 52.5t-45.5 41t-57 16.5q-29 0 -49.5 -12t-34 -34.5t-20 -55t-7.5 -72.5h-163v27q0 70 20 127.5t58 98.5t91 64t121 23q57 0 97 -16.5t69.5 -41t52 -53t44 -53.5t45 -41 t56.5 -16q29 0 50 12t34.5 34.5t20 55.5t7.5 73h162v-28v0z" />
<glyph unicode="&#xa1;" horiz-adv-x="655" d="M451 901q0 -28 -10.5 -52.5t-30 -43.5t-45 -29t-54.5 -10t-55 10t-44.5 28.5t-29 43.5t-10.5 53q0 29 10.5 54t29 43.5t44 29t55.5 10.5q29 0 54.5 -10.5t45 -29t30 -43.5t10.5 -54zM180 -426l35 1081h186l37 -1081h-258z" />
<glyph unicode="&#xa2;" horiz-adv-x="972" d="M641 1205q57 -1 112 -10t111 -25v-313h-138q-11 45 -16 82.5t-7 76.5q-30 7 -57.5 10t-57.5 3q-59 1 -110 -19.5t-88.5 -61.5t-57.5 -107.5t-19 -133.5q-1 -56 14.5 -115.5t51 -103t93 -67.5t136.5 -24q61 0 117.5 10.5t123.5 36.5l28 -177q-54 -21 -113.5 -35 t-122.5 -19v-263h-168v266q-95 11 -169 48t-123.5 100t-72.5 146t-23 187q0 98 26.5 182t76.5 149.5t122.5 108.5t162.5 59v229h168v-220v0z" />
<glyph unicode="&#xa3;" horiz-adv-x="1067" d="M84 0v150q56 37 94 73.5t61.5 75.5t34.5 83.5t11 98.5q0 37 -4.5 76.5t-12.5 77.5h-200v160h174q-12 59 -20.5 123.5t-8.5 109.5q0 94 26.5 165t78 118t127 70.5t173.5 23.5q30 0 65 -2t69.5 -5.5t65.5 -8.5t52 -11v-317h-135q-10 41 -16.5 81t-9.5 77q-12 2 -40.5 5 t-60.5 3q-51 0 -85.5 -13.5t-55 -38t-29 -58t-8.5 -75.5q0 -25 2.5 -53.5t6 -58.5t7 -52.5t13.5 -82.5h329v-160h-303q7 -39 11 -71.5t4 -67.5q0 -52 -8.5 -94.5t-27.5 -79t-49 -71t-75 -71.5q32 4 68.5 6t85.5 2h290q3 37 11 80t20 92h143v-360h-874z" />
<glyph unicode="&#xa4;" d="M874 110l-161 218q-37 -21 -79.5 -31.5t-87.5 -10.5q-37 0 -68.5 6t-59.5 16l-144 -196l-166 119l144 180q-36 46 -55.5 110t-19.5 150q0 77 22 141t64 113l-154 193l163 118l149 -203q35 17 75.5 24.5t82.5 7.5q36 0 75 -6t74 -23l150 202l160 -121l-151 -191 q28 -41 45.5 -99.5t17.5 -139.5q0 -73 -21 -135.5t-58 -110.5l167 -209zM756 684q0 49 -11 89.5t-34.5 69.5t-61 45t-90.5 16q-38 0 -72.5 -15t-60.5 -43.5t-41 -70.5t-15 -97q0 -48 10.5 -90t33.5 -73.5t60.5 -49.5t90.5 -18q37 0 72 15t61.5 45t42 74t15.5 103z" />
<glyph unicode="&#xa5;" horiz-adv-x="1231" d="M1213 1245q-25 -7 -56.5 -12t-59.5 -9l-308 -581h272v-128h-337v-132h337v-130h-337v-103q46 -3 92 -10.5t86 -17.5v-122h-578v122q41 10 86.5 17.5t92.5 10.5v103h-337v130h337v132h-337v128h271l-301 581q-26 4 -59 9t-58 12v137h496v-137q-32 -8 -68 -13.5t-71 -8.5 l141 -298q28 -55 54 -106t47 -100h3q23 52 53 109t59 113l137 282q-36 3 -71.5 8.5t-67.5 13.5v137h482v-137v0z" />
<glyph unicode="&#xa6;" horiz-adv-x="586" d="M203 794v754h174v-754h-174zM203 -500v774h174v-774h-174z" />
<glyph unicode="&#xa7;" horiz-adv-x="1073" d="M911 492q0 -43 -11.5 -84t-32 -78t-50 -70t-66.5 -60q35 -46 56.5 -98t21.5 -117q0 -61 -24 -119.5t-75 -104t-131 -73t-191 -27.5q-17 0 -37.5 1t-42.5 4t-43.5 6.5t-41.5 8.5l16 185q22 -7 41.5 -11.5t38.5 -7.5t37.5 -4.5t37.5 -1.5q45 0 79.5 10.5t57 30t34 45.5 t11.5 57q0 38 -20 73.5t-52 71t-73.5 72t-84.5 75.5t-84 82.5t-73.5 93.5t-52 107t-19.5 123q0 43 10 84t30.5 77.5t50 70t68.5 61.5q-38 48 -58 99t-20 113q0 65 22.5 123.5t70.5 102.5t123 70t179 26q38 0 81 -4t79 -13l-14 -183q-37 12 -71.5 16.5t-71.5 4.5 q-85 0 -125.5 -35t-40.5 -98q0 -37 20 -72.5t52 -71.5t73.5 -73t85 -78t84.5 -85t73.5 -94.5t52.5 -107.5t20 -123zM709 463q0 55 -25 103t-66.5 95.5t-93.5 95.5t-107 103q-41 -30 -59.5 -70t-18.5 -80q0 -52 22.5 -98t61.5 -92.5t92.5 -96.5t116.5 -108q40 29 58.5 68.5 t18.5 79.5z" />
<glyph unicode="&#xa8;" horiz-adv-x="958" d="M805 1335q0 -25 -9.5 -48t-26.5 -40.5t-40 -27t-49 -9.5q-25 0 -47.5 9.5t-39.5 27t-26.5 40.5t-9.5 48t9.5 47.5t26.5 39.5t39.5 26.5t47.5 9.5q26 0 49 -9.5t40 -26.5t26.5 -39.5t9.5 -47.5zM401 1335q0 -25 -9.5 -48t-26.5 -40.5t-39 -27t-47 -9.5q-26 0 -49 9.5 t-40 27t-26.5 40.5t-9.5 48t9.5 47.5t26.5 39.5t40 26.5t49 9.5q25 0 47 -9.5t39 -26.5t26.5 -39.5t9.5 -47.5z" />
<glyph unicode="&#xa9;" horiz-adv-x="1552" d="M1470 692q0 -95 -24 -183.5t-69 -166t-108 -140.5t-141 -108.5t-167 -69.5t-185 -24t-185.5 24t-167.5 68.5t-140.5 107t-107.5 139.5t-69 165.5t-24 183.5t24 183.5t69 166t108.5 140.5t141 108.5t167.5 69.5t186 24t185.5 -24t167 -69t140 -107.5t107 -139.5 t68.5 -165.5t24 -182.5zM1313 688q0 74 -18.5 144t-53 131t-83.5 111t-109 86t-129 55.5t-144 19.5q-111 0 -209.5 -42.5t-172 -118t-114 -174.5t-40.5 -210t40.5 -210t114 -174.5t172 -118t209.5 -42.5q75 0 144 19.5t129 55t109 85.5t83.5 110.5t53 130t18.5 142.5z M993 352q-48 -18 -103 -27.5t-108 -9.5q-93 0 -160 26.5t-109 74.5t-61.5 113.5t-19.5 146.5q0 79 21.5 149t67.5 124.5t119 86t173 31.5q55 0 101 -6t65 -10v-260h-115q-3 13 -9.5 46t-10.5 76q-7 1 -22.5 3t-33.5 2q-45 0 -77 -16t-52 -46t-29 -71.5t-9 -92.5 q0 -56 11 -97t34 -68.5t59.5 -41.5t87.5 -14q40 0 81 7.5t79 21.5z" />
<glyph unicode="&#xaa;" horiz-adv-x="852" d="M813 700q-31 -4 -68 -7.5t-77 -5t-80.5 -2t-77.5 0.5q0 26 2 55t6 56l-4 2q-10 -25 -31 -48t-50 -41t-63.5 -28t-70.5 -10q-52 0 -92 13.5t-66.5 38t-39.5 57.5t-13 73q0 61 29 108.5t83.5 81t131 50.5t170.5 18v37q0 23 -5.5 42.5t-19.5 35.5t-40.5 25.5t-65.5 9.5 q-28 0 -54 -4t-51 -11q-4 -36 -7.5 -58.5t-8.5 -43.5h-113v213q24 8 51.5 15t59.5 13.5t68 10.5t71 4q84 0 141 -18t91 -50.5t48.5 -77t14.5 -100.5v-319q6 -1 29.5 -4t40 -5t32.5 -3.5t29 -2.5v-121zM119 399v172h635v-172h-635zM502 995q-61 0 -105.5 -7t-74 -21 t-44 -35.5t-14.5 -50.5q0 -32 21.5 -52t60.5 -20q38 0 67.5 17t49 43.5t29.5 55.5t10 52v18z" />
<glyph unicode="&#xab;" horiz-adv-x="1065" d="M764 226l-248 374l252 378l162 -81l-199 -296l202 -291zM327 219l-228 381l232 385l167 -80l-184 -304l186 -300z" />
<glyph unicode="&#xac;" d="M801 205v313h-717v182h909v-495h-192z" />
<glyph unicode="&#xae;" horiz-adv-x="1153" d="M1040 1084q0 -95 -35 -179.5t-100 -148.5t-149.5 -97t-179.5 -33q-98 0 -182.5 35.5t-147 97t-98.5 145.5t-36 180t36 180t99 146t148 97.5t181 35.5q97 0 184 -34t147.5 -94t96.5 -142.5t36 -188.5zM901 1082q0 68 -22 128t-67 107.5t-107 71.5t-129 24 q-68 0 -129.5 -23.5t-106 -69.5t-67 -105t-22.5 -128t24.5 -129.5t69 -106t104 -70.5t127.5 -25q67 0 127.5 22.5t105.5 65.5t68.5 107t23.5 131zM647 856l-75 181h-31v-101q10 -2 22.5 -6t22.5 -10v-64h-199v64q13 5 27.5 9.5t24.5 6.5v302q-10 2 -24.5 6t-27.5 9v65h51 q17 0 37 0.5t39.5 1t38.5 1t35 0.5q43 0 75 -9t53.5 -25t32.5 -40t11 -55q0 -47 -24 -80.5t-66 -47.5q9 -13 16.5 -27t12.5 -23l34 -78q14 -3 26 -7t21 -9v-64h-133zM650 1181q0 26 -15.5 39t-50.5 13h-22h-21v-115q7 0 14.5 -0.5t15.5 -0.5q21 0 36 5.5t24.5 14.5t14 20.5 t4.5 23.5z" />
<glyph unicode="&#xaf;" horiz-adv-x="840" d="M154 1247v161h532v-161h-532z" />
<glyph unicode="&#xb0;" horiz-adv-x="780" d="M672 1239q0 -63 -24.5 -114.5t-66.5 -87t-95 -54t-109 -18.5q-64 0 -116 18.5t-88.5 53.5t-55.5 84.5t-19 111.5q0 63 24.5 114.5t66.5 87t94 54t106 18.5q72 0 126 -21t89 -57.5t51.5 -85t16.5 -104.5zM506 1239q0 23 -6.5 46t-20.5 41.5t-37 30t-55 11.5 q-26 0 -48 -9.5t-38.5 -27t-25.5 -41.5t-9 -53q0 -62 32 -97.5t87 -35.5q27 0 49 10t38.5 28t25 43t8.5 54z" />
<glyph unicode="&#xb1;" d="M667 697v-389h-208v389h-375v182h375v387h208v-387h376v-182h-376zM89 0v183h948v-183h-948z" />
<glyph unicode="&#xb2;" horiz-adv-x="774" d="M70 741v158l209 178q52 43 87 78t55.5 65.5t29 57.5t8.5 55q0 29 -8 52.5t-24 40t-41 25.5t-58 9q-23 0 -46 -4t-44 -10q-3 -29 -8.5 -64t-12.5 -79h-131v272q56 22 131 34.5t150 12.5q78 0 137 -18.5t97.5 -52t57.5 -80.5t19 -105q0 -88 -42 -164.5t-134 -154.5 l-150 -132q55 3 132.5 4t224.5 1v-179h-639z" />
<glyph unicode="&#xb3;" horiz-adv-x="756" d="M690 1004q0 -64 -29.5 -116t-83 -88.5t-127 -55.5t-159.5 -19q-57 0 -117 5.5t-108 14.5l22 154q25 -5 50 -9.5t52 -8t55 -5.5t54 -2q37 0 68 7t54.5 21t36.5 36t13 51q0 33 -16.5 58t-55 40t-105 18.5t-163.5 -7.5v139q88 0 148 8t97 24.5t53.5 42t16.5 62.5 q0 24 -7.5 42.5t-23.5 32.5t-40 21t-56 7q-19 0 -40.5 -2.5t-38.5 -6.5q-3 -31 -8.5 -61t-12.5 -53h-131v239q29 7 61 12.5t65.5 9t66.5 5.5t65 2q78 0 136.5 -15.5t96.5 -44t57 -69.5t19 -92q0 -75 -36 -126.5t-103 -76.5q39 -7 71.5 -24.5t55.5 -43.5t35 -58.5t12 -67.5z " />
<glyph unicode="&#xb4;" horiz-adv-x="717" d="M256 1155l-102 105l282 288l127 -129z" />
<glyph unicode="&#xb6;" horiz-adv-x="1188" d="M942 1210v-1407h-338v172h148v1407h329v-172h-139zM594 492q-118 -1 -207 33.5t-147 96.5t-86.5 143t-28.5 175q0 97 33.5 178.5t96 140.5t149.5 91t190 32v-890z" />
<glyph unicode="&#xb7;" horiz-adv-x="512" d="M404 609q0 -31 -11.5 -58t-31.5 -47t-47 -32t-58 -12t-58 12t-47.5 32t-32 47t-11.5 58t11.5 58t32 47t47.5 32t58 12t58 -12t47 -32t31.5 -47t11.5 -58z" />
<glyph unicode="&#xb8;" horiz-adv-x="586" d="M367 -82q38 -52 53 -103t8 -100.5t-33 -98t-71 -97.5h-170q41 50 63.5 91t27 80t-10.5 79.5t-52 85.5z" />
<glyph unicode="&#xb9;" horiz-adv-x="674" d="M469 895q40 -5 83.5 -12.5t80.5 -16.5v-125h-563v125q38 10 86.5 18t99.5 11v530l-176 -67l-33 160l242 90h180v-713z" />
<glyph unicode="&#xba;" horiz-adv-x="885" d="M793 1051q0 -85 -27 -155.5t-77 -120.5t-118 -76.5t-147 -26.5q-73 0 -133 20t-105 62.5t-69.5 111t-24.5 162.5q0 84 27.5 153.5t77 119t116 76t142.5 26.5q70 0 130.5 -18.5t107.5 -59.5t73.5 -109.5t26.5 -164.5zM127 399v172h631v-172h-631zM600 1038q0 45 -8.5 82.5 t-27 66t-48.5 44.5t-72 16q-30 0 -58.5 -11.5t-51 -36.5t-36 -65t-13.5 -94q0 -42 7.5 -79.5t25 -67.5t47.5 -48t73 -18q35 0 64 12.5t51 38.5t34.5 66t12.5 94z" />
<glyph unicode="&#xbb;" horiz-adv-x="1065" d="M734 219l-166 80l183 305l-184 299l172 82l227 -380zM298 226l-163 82l199 296l-200 291l169 83l246 -373z" />
<glyph unicode="&#xbc;" horiz-adv-x="1794" d="M469 895q40 -5 83.5 -12.5t80.5 -16.5v-125h-563v125q38 10 86.5 18t99.5 11v530l-176 -67l-33 160l242 90h180v-713zM324 -297l-140 96l1321 1852l137 -97zM1611 -6v-91q36 -3 69.5 -9t62.5 -15v-100h-482v100q33 9 72 15t78 9v91h-386l-16 151l334 500h268v-501h135 v-150h-135zM1413 502l-237 -363q23 1 55.5 2t66.5 1.5t64.5 0.5h50.5v359z" />
<glyph unicode="&#xbd;" horiz-adv-x="1858" d="M469 895q40 -5 83.5 -12.5t80.5 -16.5v-125h-563v125q38 10 86.5 18t99.5 11v530l-176 -67l-33 160l242 90h180v-713zM324 -297l-140 96l1321 1852l137 -97zM1153 -221v158l209 178q52 43 87 78t55.5 65.5t29 57.5t8.5 55q0 29 -8 52.5t-24 40t-41 25.5t-58 9 q-23 0 -46 -4t-44 -10q-3 -29 -8.5 -64t-12.5 -79h-131v272q56 22 131 34.5t150 12.5q78 0 137 -18.5t97.5 -52t57.5 -80.5t19 -105q0 -88 -42 -164.5t-134 -154.5l-150 -132q55 3 132.5 4t224.5 1v-179h-639z" />
<glyph unicode="&#xbe;" horiz-adv-x="1765" d="M690 1004q0 -64 -29.5 -116t-83 -88.5t-127 -55.5t-159.5 -19q-57 0 -117 5.5t-108 14.5l22 154q25 -5 50 -9.5t52 -8t55 -5.5t54 -2q37 0 68 7t54.5 21t36.5 36t13 51q0 33 -16.5 58t-55 40t-105 18.5t-163.5 -7.5v139q88 0 148 8t97 24.5t53.5 42t16.5 62.5 q0 24 -7.5 42.5t-23.5 32.5t-40 21t-56 7q-19 0 -40.5 -2.5t-38.5 -6.5q-3 -31 -8.5 -61t-12.5 -53h-131v239q29 7 61 12.5t65.5 9t66.5 5.5t65 2q78 0 136.5 -15.5t96.5 -44t57 -69.5t19 -92q0 -75 -36 -126.5t-103 -76.5q39 -7 71.5 -24.5t55.5 -43.5t35 -58.5t12 -67.5z M295 -297l-140 96l1321 1852l137 -97zM1582 -6v-91q36 -3 69.5 -9t62.5 -15v-100h-482v100q33 9 72 15t78 9v91h-386l-16 151l334 500h268v-501h135v-150h-135zM1384 502l-237 -363q23 1 55.5 2t66.5 1.5t64.5 0.5h50.5v359z" />
<glyph unicode="&#xbf;" horiz-adv-x="918" d="M664 902q0 -29 -11 -54t-30 -43t-44.5 -29t-54.5 -11t-54.5 11t-44.5 29t-30 43t-11 54q0 28 11 52.5t30 43.5t44.5 29.5t54.5 10.5t54.5 -10.5t44.5 -29.5t30 -43.5t11 -52.5zM734 -442q-154 4 -271 39t-195 90.5t-117.5 127.5t-39.5 149q0 64 18 113t45.5 89t62 73.5 t68.5 65.5t63.5 66t47.5 75.5t20.5 92t-16.5 117.5h213q24 -75 25.5 -134t-14 -106.5t-43 -86t-60.5 -72t-66.5 -64t-61 -62t-45 -66.5t-17.5 -78q0 -48 28.5 -89t81.5 -71t129 -48.5t171 -22.5z" />
<glyph unicode="&#xc0;" horiz-adv-x="1421" d="M889 0v135q47 10 82 16t69 9l-71 202h-541l-72 -202q35 -3 74 -9.5t82 -15.5v-135h-498v135q26 7 58.5 13.5t60.5 9.5l436 1224h279l440 -1224q28 -3 60.5 -9.5t58.5 -13.5v-135h-518zM764 967q-18 54 -33.5 104.5t-30.5 104.5h-4q-11 -46 -23 -87.5t-36 -119.5 l-154 -430h432zM823 1477l-413 112l55 162l397 -152z" />
<glyph unicode="&#xc1;" horiz-adv-x="1421" d="M889 0v135q47 10 82 16t69 9l-71 202h-541l-72 -202q35 -3 74 -9.5t82 -15.5v-135h-498v135q26 7 58.5 13.5t60.5 9.5l436 1224h279l440 -1224q28 -3 60.5 -9.5t58.5 -13.5v-135h-518zM764 967q-18 54 -33.5 104.5t-30.5 104.5h-4q-11 -46 -23 -87.5t-36 -119.5 l-154 -430h432zM590 1477l-39 122l395 152l57 -162z" />
<glyph unicode="&#xc2;" horiz-adv-x="1421" d="M889 0v135q47 10 82 16t69 9l-71 202h-541l-72 -202q35 -3 74 -9.5t82 -15.5v-135h-498v135q26 7 58.5 13.5t60.5 9.5l436 1224h279l440 -1224q28 -3 60.5 -9.5t58.5 -13.5v-135h-518zM764 967q-18 54 -33.5 104.5t-30.5 104.5h-4q-11 -46 -23 -87.5t-36 -119.5 l-154 -430h432zM989 1475l-277 118l-278 -118l-53 116l335 172l328 -168z" />
<glyph unicode="&#xc3;" horiz-adv-x="1421" d="M889 0v135q47 10 82 16t69 9l-71 202h-541l-72 -202q35 -3 74 -9.5t82 -15.5v-135h-498v135q26 7 58.5 13.5t60.5 9.5l436 1224h279l440 -1224q28 -3 60.5 -9.5t58.5 -13.5v-135h-518zM764 967q-18 54 -33.5 104.5t-30.5 104.5h-4q-11 -46 -23 -87.5t-36 -119.5 l-154 -430h432zM1077 1657q-44 -77 -105 -118t-137 -41q-47 0 -82.5 13.5t-76.5 40.5t-60.5 37.5t-47.5 10.5q-36 0 -67 -22t-57 -67l-110 77q43 77 104.5 118t137.5 41q47 0 82 -13.5t75.5 -40.5t61 -37.5t48.5 -10.5q36 0 66 22t57 67z" />
<glyph unicode="&#xc4;" horiz-adv-x="1421" d="M889 0v135q47 10 82 16t69 9l-71 202h-541l-72 -202q35 -3 74 -9.5t82 -15.5v-135h-498v135q26 7 58.5 13.5t60.5 9.5l436 1224h279l440 -1224q28 -3 60.5 -9.5t58.5 -13.5v-135h-518zM764 967q-18 54 -33.5 104.5t-30.5 104.5h-4q-11 -46 -23 -87.5t-36 -119.5 l-154 -430h432zM1045 1606q0 -25 -9.5 -47.5t-27 -39.5t-40.5 -26.5t-48 -9.5t-47.5 9.5t-39.5 26.5t-26.5 39.5t-9.5 47.5t9.5 48t26.5 40.5t39.5 27t47.5 9.5t48 -9.5t40.5 -27t27 -40.5t9.5 -48zM604 1606q0 -25 -9.5 -47.5t-26.5 -39.5t-39 -26.5t-47 -9.5 q-26 0 -49 9.5t-40 26.5t-26.5 39.5t-9.5 47.5t9.5 48t26.5 40.5t40 27t49 9.5q25 0 47 -9.5t39 -27t26.5 -40.5t9.5 -48z" />
<glyph unicode="&#xc5;" horiz-adv-x="1421" d="M889 0v135q47 10 82 16t69 9l-71 202h-541l-72 -202q35 -3 74 -9.5t82 -15.5v-135h-498v135q26 7 58.5 13.5t60.5 9.5l436 1224h279l440 -1224q28 -3 60.5 -9.5t58.5 -13.5v-135h-518zM764 967q-18 54 -33.5 104.5t-30.5 104.5h-4q-11 -46 -23 -87.5t-36 -119.5 l-154 -430h432zM967 1688q0 -51 -19 -94t-55 -74.5t-84.5 -48.5t-106.5 -17t-103.5 13.5t-77 40.5t-48 68.5t-16.5 96.5q0 51 19 94t54 74.5t84 48.5t107 17t103.5 -13.5t77.5 -41t48.5 -69t16.5 -95.5zM811 1679q0 28 -6.5 49.5t-19 35.5t-30.5 21t-42 7q-21 0 -40 -7 t-33 -21t-22 -35t-8 -48q0 -28 6.5 -49t19 -35t31.5 -21t44 -7q21 0 39 7t32 21t21.5 34.5t7.5 47.5z" />
<glyph unicode="&#xc6;" horiz-adv-x="1692" d="M670 0v137q43 9 81.5 15.5t73.5 9.5v192h-442l-104 -194q17 -1 35.5 -4t36.5 -6t35 -7l34 -8v-135h-483v135q25 7 57 13.5t59 9.5l576 1063q-45 3 -90.5 10t-87.5 16v135h1105v-325h-159q-4 13 -12.5 62t-12.5 87h-323v-413h262q5 43 13.5 78t12.5 49h140v-418h-140 q-4 14 -12.5 48.5t-13.5 78.5h-262v-449h335q6 48 14.5 91.5t12.5 62.5h162v-334h-903zM825 1202h-8q-15 -33 -29.5 -65.5t-31.5 -68t-36.5 -75t-41.5 -82.5l-209 -381h356v672z" />
<glyph unicode="&#xc7;" horiz-adv-x="1204" d="M1130 57q-43 -16 -91 -30t-100 -24t-105.5 -15.5t-104.5 -5.5q-160 0 -281.5 46.5t-202 135t-121 214.5t-40.5 284q0 161 43 295.5t128.5 234t214 153.5t294.5 54q82 0 167 -11t169 -30v-363h-166q-4 23 -11.5 73.5t-13.5 107.5q-20 6 -68.5 14t-109.5 8 q-98 0 -173.5 -37.5t-126.5 -105.5t-77 -160t-26 -201q0 -120 26.5 -214.5t80.5 -161t138.5 -101.5t198.5 -35q40 0 82 5t84 14.5t81.5 22t76.5 26.5zM738 -82q38 -52 53 -103t8 -100.5t-33 -98t-71 -97.5h-170q41 50 63.5 91t27 80t-10.5 79.5t-52 85.5z" />
<glyph unicode="&#xc8;" horiz-adv-x="1092" d="M53 0v135q43 10 89 17t89 10v1059q-44 3 -90.5 10t-87.5 16v135h916v-325h-162q-4 18 -11.5 60t-13.5 89h-329v-413h264q5 43 13.5 78t12.5 49h140v-418h-140q-4 14 -12.5 48.5t-13.5 78.5h-264v-449h331q6 48 14.5 91.5t12.5 62.5h162v-334h-920zM643 1477l-413 112 l55 162l397 -152z" />
<glyph unicode="&#xc9;" horiz-adv-x="1092" d="M53 0v135q43 10 89 17t89 10v1059q-44 3 -90.5 10t-87.5 16v135h916v-325h-162q-4 18 -11.5 60t-13.5 89h-329v-413h264q5 43 13.5 78t12.5 49h140v-418h-140q-4 14 -12.5 48.5t-13.5 78.5h-264v-449h331q6 48 14.5 91.5t12.5 62.5h162v-334h-920zM449 1477l-39 122 l395 152l57 -162z" />
<glyph unicode="&#xca;" horiz-adv-x="1092" d="M53 0v135q43 10 89 17t89 10v1059q-44 3 -90.5 10t-87.5 16v135h916v-325h-162q-4 18 -11.5 60t-13.5 89h-329v-413h264q5 43 13.5 78t12.5 49h140v-418h-140q-4 14 -12.5 48.5t-13.5 78.5h-264v-449h331q6 48 14.5 91.5t12.5 62.5h162v-334h-920zM836 1475l-277 118 l-278 -118l-53 116l335 172l328 -168z" />
<glyph unicode="&#xcb;" horiz-adv-x="1092" d="M53 0v135q43 10 89 17t89 10v1059q-44 3 -90.5 10t-87.5 16v135h916v-325h-162q-4 18 -11.5 60t-13.5 89h-329v-413h264q5 43 13.5 78t12.5 49h140v-418h-140q-4 14 -12.5 48.5t-13.5 78.5h-264v-449h331q6 48 14.5 91.5t12.5 62.5h162v-334h-920zM891 1606 q0 -25 -9.5 -47.5t-27 -39.5t-40.5 -26.5t-48 -9.5t-47.5 9.5t-39.5 26.5t-26.5 39.5t-9.5 47.5t9.5 48t26.5 40.5t39.5 27t47.5 9.5t48 -9.5t40.5 -27t27 -40.5t9.5 -48zM450 1606q0 -25 -9.5 -47.5t-26.5 -39.5t-39 -26.5t-47 -9.5q-26 0 -49 9.5t-40 26.5t-26.5 39.5 t-9.5 47.5t9.5 48t26.5 40.5t40 27t49 9.5q25 0 47 -9.5t39 -27t26.5 -40.5t9.5 -48z" />
<glyph unicode="&#xcc;" horiz-adv-x="684" d="M53 0v135q43 10 89 17t89 10v1059q-44 3 -90.5 10t-87.5 16v135h578v-135q-41 -9 -87.5 -16t-90.5 -10v-1059q43 -3 89 -10t89 -17v-135h-578zM453 1477l-413 112l55 162l397 -152z" />
<glyph unicode="&#xcd;" horiz-adv-x="684" d="M53 0v135q43 10 89 17t89 10v1059q-44 3 -90.5 10t-87.5 16v135h578v-135q-41 -9 -87.5 -16t-90.5 -10v-1059q43 -3 89 -10t89 -17v-135h-578zM201 1477l-39 122l395 152l57 -162z" />
<glyph unicode="&#xce;" horiz-adv-x="684" d="M53 0v135q43 10 89 17t89 10v1059q-44 3 -90.5 10t-87.5 16v135h578v-135q-41 -9 -87.5 -16t-90.5 -10v-1059q43 -3 89 -10t89 -17v-135h-578zM620 1475l-277 118l-278 -118l-53 116l335 172l328 -168z" />
<glyph unicode="&#xcf;" horiz-adv-x="684" d="M53 0v135q43 10 89 17t89 10v1059q-44 3 -90.5 10t-87.5 16v135h578v-135q-41 -9 -87.5 -16t-90.5 -10v-1059q43 -3 89 -10t89 -17v-135h-578zM687 1606q0 -25 -9.5 -47.5t-27 -39.5t-40.5 -26.5t-48 -9.5t-47.5 9.5t-39.5 26.5t-26.5 39.5t-9.5 47.5t9.5 48t26.5 40.5 t39.5 27t47.5 9.5t48 -9.5t40.5 -27t27 -40.5t9.5 -48zM246 1606q0 -25 -9.5 -47.5t-26.5 -39.5t-39 -26.5t-47 -9.5q-26 0 -49 9.5t-40 26.5t-26.5 39.5t-9.5 47.5t9.5 48t26.5 40.5t40 27t49 9.5q25 0 47 -9.5t39 -27t26.5 -40.5t9.5 -48z" />
<glyph unicode="&#xd0;" horiz-adv-x="1470" d="M1384 711q0 -175 -55 -310.5t-157 -226t-243 -136.5t-313 -46q-73 0 -193 4t-171 4h-178v135q44 10 89 17t89 10v461h-170v168h170v430q-45 3 -90.5 10t-87.5 16v135h174q36 0 75 1t116 2.5t132.5 2.5t110.5 1q110 0 204 -17t172 -52.5t138.5 -90.5t102.5 -130.5 t63.5 -172t21.5 -215.5zM1147 694q0 124 -28.5 219t-87.5 159.5t-150.5 98t-216.5 33.5q-24 0 -50 -0.5t-50.5 -1t-47 -1t-41.5 -1.5v-409h275v-168h-275v-430q16 -3 36.5 -5t43 -3.5t44.5 -2t42 -0.5q114 0 206.5 30.5t160 94t103.5 160.5t36 227z" />
<glyph unicode="&#xd1;" horiz-adv-x="1556" d="M1505 1245q-39 -9 -72 -15t-65 -9v-1221h-301l-414 715q-33 56 -62 106.5t-58.5 103t-56.5 103.5t-48 96q6 -82 9.5 -184t5.5 -220.5t2.5 -251t0.5 -306.5q42 -3 82 -9.5t76 -15.5v-137h-551v135q43 10 89 17t89 10v1059q-44 3 -90.5 10t-87.5 16v135h482l411 -710 q28 -47 58.5 -100t60 -107t56.5 -105.5t50 -97.5q-6 84 -10 187t-6 222t-3 254t-1 296q-39 3 -77.5 9t-72.5 15v137h504v-137zM1157 1657q-44 -77 -105 -118t-137 -41q-47 0 -82.5 13.5t-76.5 40.5t-60.5 37.5t-47.5 10.5q-36 0 -67 -22t-57 -67l-110 77q43 77 104.5 118 t137.5 41q47 0 82 -13.5t75.5 -40.5t61 -37.5t48.5 -10.5q36 0 66 22t57 67z" />
<glyph unicode="&#xd2;" horiz-adv-x="1442" d="M1364 711q0 -174 -52.5 -309.5t-143 -229.5t-211.5 -143.5t-257 -49.5q-155 0 -271.5 49t-194.5 139.5t-117 218.5t-39 286q0 173 52.5 309t142.5 230t211 143.5t257 49.5q155 0 271.5 -49.5t195 -140t117.5 -218.5t39 -285zM1129 681q0 118 -25.5 214.5t-76 165.5 t-127 107t-178.5 38q-87 0 -162 -33t-129.5 -96.5t-86 -157.5t-31.5 -216q0 -118 25.5 -215t76 -166t126.5 -106.5t179 -37.5q86 0 161 32.5t130 96t86.5 158t31.5 216.5zM837 1477l-413 112l55 162l397 -152z" />
<glyph unicode="&#xd3;" horiz-adv-x="1442" d="M1364 711q0 -174 -52.5 -309.5t-143 -229.5t-211.5 -143.5t-257 -49.5q-155 0 -271.5 49t-194.5 139.5t-117 218.5t-39 286q0 173 52.5 309t142.5 230t211 143.5t257 49.5q155 0 271.5 -49.5t195 -140t117.5 -218.5t39 -285zM1129 681q0 118 -25.5 214.5t-76 165.5 t-127 107t-178.5 38q-87 0 -162 -33t-129.5 -96.5t-86 -157.5t-31.5 -216q0 -118 25.5 -215t76 -166t126.5 -106.5t179 -37.5q86 0 161 32.5t130 96t86.5 158t31.5 216.5zM635 1477l-39 122l395 152l57 -162z" />
<glyph unicode="&#xd4;" horiz-adv-x="1442" d="M1364 711q0 -174 -52.5 -309.5t-143 -229.5t-211.5 -143.5t-257 -49.5q-155 0 -271.5 49t-194.5 139.5t-117 218.5t-39 286q0 173 52.5 309t142.5 230t211 143.5t257 49.5q155 0 271.5 -49.5t195 -140t117.5 -218.5t39 -285zM1129 681q0 118 -25.5 214.5t-76 165.5 t-127 107t-178.5 38q-87 0 -162 -33t-129.5 -96.5t-86 -157.5t-31.5 -216q0 -118 25.5 -215t76 -166t126.5 -106.5t179 -37.5q86 0 161 32.5t130 96t86.5 158t31.5 216.5zM1016 1475l-277 118l-278 -118l-53 116l335 172l328 -168z" />
<glyph unicode="&#xd5;" horiz-adv-x="1442" d="M1364 711q0 -174 -52.5 -309.5t-143 -229.5t-211.5 -143.5t-257 -49.5q-155 0 -271.5 49t-194.5 139.5t-117 218.5t-39 286q0 173 52.5 309t142.5 230t211 143.5t257 49.5q155 0 271.5 -49.5t195 -140t117.5 -218.5t39 -285zM1129 681q0 118 -25.5 214.5t-76 165.5 t-127 107t-178.5 38q-87 0 -162 -33t-129.5 -96.5t-86 -157.5t-31.5 -216q0 -118 25.5 -215t76 -166t126.5 -106.5t179 -37.5q86 0 161 32.5t130 96t86.5 158t31.5 216.5zM1104 1657q-44 -77 -105 -118t-137 -41q-47 0 -82.5 13.5t-76.5 40.5t-60.5 37.5t-47.5 10.5 q-36 0 -67 -22t-57 -67l-110 77q43 77 104.5 118t137.5 41q47 0 82 -13.5t75.5 -40.5t61 -37.5t48.5 -10.5q36 0 66 22t57 67z" />
<glyph unicode="&#xd6;" horiz-adv-x="1442" d="M1364 711q0 -174 -52.5 -309.5t-143 -229.5t-211.5 -143.5t-257 -49.5q-155 0 -271.5 49t-194.5 139.5t-117 218.5t-39 286q0 173 52.5 309t142.5 230t211 143.5t257 49.5q155 0 271.5 -49.5t195 -140t117.5 -218.5t39 -285zM1129 681q0 118 -25.5 214.5t-76 165.5 t-127 107t-178.5 38q-87 0 -162 -33t-129.5 -96.5t-86 -157.5t-31.5 -216q0 -118 25.5 -215t76 -166t126.5 -106.5t179 -37.5q86 0 161 32.5t130 96t86.5 158t31.5 216.5zM1075 1606q0 -25 -9.5 -47.5t-27 -39.5t-40.5 -26.5t-48 -9.5t-47.5 9.5t-39.5 26.5t-26.5 39.5 t-9.5 47.5t9.5 48t26.5 40.5t39.5 27t47.5 9.5t48 -9.5t40.5 -27t27 -40.5t9.5 -48zM634 1606q0 -25 -9.5 -47.5t-26.5 -39.5t-39 -26.5t-47 -9.5q-26 0 -49 9.5t-40 26.5t-26.5 39.5t-9.5 47.5t9.5 48t26.5 40.5t40 27t49 9.5q25 0 47 -9.5t39 -27t26.5 -40.5t9.5 -48z" />
<glyph unicode="&#xd7;" d="M888 150l-332 332l-331 -332l-120 120l331 332l-331 331l134 133l330 -331l332 331l120 -120l-331 -331l331 -331z" />
<glyph unicode="&#xd8;" horiz-adv-x="1442" d="M1364 709q0 -169 -51 -305t-142 -231t-212 -144t-259 -49q-56 0 -102.5 5t-87.5 15l-88 -209l-160 68l90 209q-70 42 -122 103.5t-85.5 139t-50 169.5t-16.5 196q0 113 23.5 211.5t67 179.5t104 144t134.5 105.5t158.5 64.5t175.5 22q45 0 89.5 -4.5t84.5 -12.5l86 203 l160 -67l-84 -199q70 -39 123.5 -97.5t90 -135.5t55 -172.5t18.5 -208.5zM1135 686q0 76 -10 143t-30 122.5t-48.5 98.5t-65.5 72l-385 -934q29 -8 59.5 -12t61.5 -4q83 0 158 31.5t133.5 95t92.5 161.5t34 226zM829 1198q-18 6 -48 10t-60 4q-84 0 -159 -32t-132.5 -96.5 t-90 -161t-32.5 -220.5q0 -74 10 -140t29.5 -120.5t45.5 -96t59 -69.5l380 922h-2z" />
<glyph unicode="&#xd9;" horiz-adv-x="1460" d="M1409 1245q-64 -15 -135 -24v-689q0 -135 -36 -238t-107 -173t-175.5 -105.5t-240.5 -35.5q-106 0 -187.5 18.5t-140 52.5t-97 80t-61 101t-32 115.5t-9.5 127.5v746q-77 10 -135 24v137h514v-137q-36 -9 -75.5 -15t-79.5 -9v-729q0 -75 14 -134t49 -103t97.5 -68.5 t156.5 -24.5q85 0 146 19.5t101 62t59.5 111t19.5 167.5v699q-41 3 -81.5 9t-74.5 15v137h510v-137zM786 1477l-413 112l55 162l397 -152z" />
<glyph unicode="&#xda;" horiz-adv-x="1460" d="M1409 1245q-64 -15 -135 -24v-689q0 -135 -36 -238t-107 -173t-175.5 -105.5t-240.5 -35.5q-106 0 -187.5 18.5t-140 52.5t-97 80t-61 101t-32 115.5t-9.5 127.5v746q-77 10 -135 24v137h514v-137q-36 -9 -75.5 -15t-79.5 -9v-729q0 -75 14 -134t49 -103t97.5 -68.5 t156.5 -24.5q85 0 146 19.5t101 62t59.5 111t19.5 167.5v699q-41 3 -81.5 9t-74.5 15v137h510v-137zM654 1477l-39 122l395 152l57 -162z" />
<glyph unicode="&#xdb;" horiz-adv-x="1460" d="M1409 1245q-64 -15 -135 -24v-689q0 -135 -36 -238t-107 -173t-175.5 -105.5t-240.5 -35.5q-106 0 -187.5 18.5t-140 52.5t-97 80t-61 101t-32 115.5t-9.5 127.5v746q-77 10 -135 24v137h514v-137q-36 -9 -75.5 -15t-79.5 -9v-729q0 -75 14 -134t49 -103t97.5 -68.5 t156.5 -24.5q85 0 146 19.5t101 62t59.5 111t19.5 167.5v699q-41 3 -81.5 9t-74.5 15v137h510v-137zM1010 1475l-277 118l-278 -118l-53 116l335 172l328 -168z" />
<glyph unicode="&#xdc;" horiz-adv-x="1460" d="M1409 1245q-64 -15 -135 -24v-689q0 -135 -36 -238t-107 -173t-175.5 -105.5t-240.5 -35.5q-106 0 -187.5 18.5t-140 52.5t-97 80t-61 101t-32 115.5t-9.5 127.5v746q-77 10 -135 24v137h514v-137q-36 -9 -75.5 -15t-79.5 -9v-729q0 -75 14 -134t49 -103t97.5 -68.5 t156.5 -24.5q85 0 146 19.5t101 62t59.5 111t19.5 167.5v699q-41 3 -81.5 9t-74.5 15v137h510v-137zM1080 1606q0 -25 -9.5 -47.5t-27 -39.5t-40.5 -26.5t-48 -9.5t-47.5 9.5t-39.5 26.5t-26.5 39.5t-9.5 47.5t9.5 48t26.5 40.5t39.5 27t47.5 9.5t48 -9.5t40.5 -27t27 -40.5 t9.5 -48zM639 1606q0 -25 -9.5 -47.5t-26.5 -39.5t-39 -26.5t-47 -9.5q-26 0 -49 9.5t-40 26.5t-26.5 39.5t-9.5 47.5t9.5 48t26.5 40.5t40 27t49 9.5q25 0 47 -9.5t39 -27t26.5 -40.5t9.5 -48z" />
<glyph unicode="&#xdd;" horiz-adv-x="1233" d="M1219 1245q-25 -7 -57 -12t-60 -9l-377 -743v-320q46 -3 92 -10t86 -17v-134h-579v134q40 10 85.5 17t92.5 10v319l-371 744q-26 4 -59 9t-58 12v137h503v-137q-32 -8 -66.5 -13.5t-70.5 -8.5l148 -322q11 -26 23.5 -53.5t25 -56t24.5 -56t22 -53.5h2q10 27 22 56.5 t25 59.5t26.5 58.5t25.5 54.5l145 312q-37 3 -72 8.5t-67 13.5v137h489v-137v0zM560 1477l-39 122l395 152l57 -162z" />
<glyph unicode="&#xde;" horiz-adv-x="1212" d="M1164 732q0 -102 -39 -184.5t-109.5 -141t-168 -90t-214.5 -31.5q-56 0 -102 3t-78 6v-141q47 -3 92.5 -10.5t86.5 -16.5v-126h-579v133q40 9 85.5 16.5t92.5 10.5v1062q-47 4 -92.5 11t-85.5 17v132h579v-126q-41 -9 -86.5 -16t-92.5 -10v-111q17 1 39.5 2.5t48.5 2 t54.5 1t57.5 0.5q134 0 230.5 -29t159 -81.5t92 -125t29.5 -157.5zM923 711q0 45 -15 87.5t-50 76.5t-93 54.5t-145 20.5q-47 0 -88.5 -1.5t-78.5 -6.5v-467q28 -5 69.5 -9t92.5 -4q80 0 138.5 19.5t96 53t55.5 79t18 97.5z" />
<glyph unicode="&#xdf;" horiz-adv-x="1372" d="M1317 322q0 -70 -25.5 -130.5t-76.5 -107t-128 -72.5t-176 -26q-56 0 -114 5.5t-111 14.5v297h139q7 -32 12 -67t9 -74q15 -5 36.5 -7.5t43.5 -2.5q46 0 79 11t53 31t29 45.5t9 55.5q0 36 -17.5 63.5t-46.5 48.5t-71 42t-85.5 42.5t-80 45.5t-66.5 57.5t-47.5 78.5 t-17.5 103q0 52 17 91.5t42 67t67.5 62t65 56.5t39 54t16.5 75q0 33 -14 61t-39.5 47.5t-62 30t-80.5 10.5q-64 0 -112 -18.5t-81.5 -58t-51 -103t-17.5 -152.5v-837q38 -3 78 -10.5t65 -16.5v-135h-539v135q45 10 90 17t89 10v690q-38 6 -88 11.5t-95 8.5v134q46 5 92 9 t91 5q1 114 33 204.5t94.5 153.5t154.5 96t211 33q98 0 175 -22.5t129.5 -63t79 -95.5t26.5 -120q0 -60 -17 -103.5t-43.5 -72t-74 -63.5t-65 -49.5t-34 -43t-16.5 -67.5q0 -44 28.5 -76.5t86.5 -64.5t111 -60t98 -64.5t74.5 -90.5t29.5 -129z" />
<glyph unicode="&#xe0;" horiz-adv-x="1102" d="M1066 14q-11 -1 -41 -4t-81.5 -6.5t-117 -5t-130.5 0.5q-1 76 3.5 124.5t7.5 65.5l-3 1q-18 -45 -50.5 -83.5t-76.5 -67t-96.5 -44t-109.5 -15.5q-68 0 -122 19.5t-91.5 56t-57 88.5t-19.5 116q0 87 44 152.5t124 108.5t189.5 64.5t242.5 22.5v62q0 52 -10 89.5t-33 63.5 t-61.5 39t-94.5 13q-58 0 -105 -9.5t-67 -15.5q-4 -44 -11.5 -88t-11.5 -65h-136v286q38 14 133.5 34t221.5 20q112 0 188.5 -23.5t122 -68.5t65 -108.5t19.5 -148.5v-519q21 -3 67 -9.5t98 -10.5v-135zM681 462q-95 0 -167 -9.5t-122 -30.5t-75.5 -54.5t-25.5 -80.5 q0 -31 9.5 -56t27.5 -43.5t45 -28.5t62 -10q53 0 98.5 24t78.5 65.5t51 93.5t18 106v24zM551 1155l-307 262l127 131l282 -288z" />
<glyph unicode="&#xe1;" horiz-adv-x="1102" d="M1066 14q-11 -1 -41 -4t-81.5 -6.5t-117 -5t-130.5 0.5q-1 76 3.5 124.5t7.5 65.5l-3 1q-18 -45 -50.5 -83.5t-76.5 -67t-96.5 -44t-109.5 -15.5q-68 0 -122 19.5t-91.5 56t-57 88.5t-19.5 116q0 87 44 152.5t124 108.5t189.5 64.5t242.5 22.5v62q0 52 -10 89.5t-33 63.5 t-61.5 39t-94.5 13q-58 0 -105 -9.5t-67 -15.5q-4 -44 -11.5 -88t-11.5 -65h-136v286q38 14 133.5 34t221.5 20q112 0 188.5 -23.5t122 -68.5t65 -108.5t19.5 -148.5v-519q21 -3 67 -9.5t98 -10.5v-135zM681 462q-95 0 -167 -9.5t-122 -30.5t-75.5 -54.5t-25.5 -80.5 q0 -31 9.5 -56t27.5 -43.5t45 -28.5t62 -10q53 0 98.5 24t78.5 65.5t51 93.5t18 106v24zM500 1155l-102 105l282 288l127 -129z" />
<glyph unicode="&#xe2;" horiz-adv-x="1102" d="M1066 14q-11 -1 -41 -4t-81.5 -6.5t-117 -5t-130.5 0.5q-1 76 3.5 124.5t7.5 65.5l-3 1q-18 -45 -50.5 -83.5t-76.5 -67t-96.5 -44t-109.5 -15.5q-68 0 -122 19.5t-91.5 56t-57 88.5t-19.5 116q0 87 44 152.5t124 108.5t189.5 64.5t242.5 22.5v62q0 52 -10 89.5t-33 63.5 t-61.5 39t-94.5 13q-58 0 -105 -9.5t-67 -15.5q-4 -44 -11.5 -88t-11.5 -65h-136v286q38 14 133.5 34t221.5 20q112 0 188.5 -23.5t122 -68.5t65 -108.5t19.5 -148.5v-519q21 -3 67 -9.5t98 -10.5v-135zM681 462q-95 0 -167 -9.5t-122 -30.5t-75.5 -54.5t-25.5 -80.5 q0 -31 9.5 -56t27.5 -43.5t45 -28.5t62 -10q53 0 98.5 24t78.5 65.5t51 93.5t18 106v24zM737 1159l-208 170l-211 -170l-86 101l301 272l295 -270z" />
<glyph unicode="&#xe3;" horiz-adv-x="1102" d="M1066 14q-11 -1 -41 -4t-81.5 -6.5t-117 -5t-130.5 0.5q-1 76 3.5 124.5t7.5 65.5l-3 1q-18 -45 -50.5 -83.5t-76.5 -67t-96.5 -44t-109.5 -15.5q-68 0 -122 19.5t-91.5 56t-57 88.5t-19.5 116q0 87 44 152.5t124 108.5t189.5 64.5t242.5 22.5v62q0 52 -10 89.5t-33 63.5 t-61.5 39t-94.5 13q-58 0 -105 -9.5t-67 -15.5q-4 -44 -11.5 -88t-11.5 -65h-136v286q38 14 133.5 34t221.5 20q112 0 188.5 -23.5t122 -68.5t65 -108.5t19.5 -148.5v-519q21 -3 67 -9.5t98 -10.5v-135zM681 462q-95 0 -167 -9.5t-122 -30.5t-75.5 -54.5t-25.5 -80.5 q0 -31 9.5 -56t27.5 -43.5t45 -28.5t62 -10q53 0 98.5 24t78.5 65.5t51 93.5t18 106v24zM882 1370q-41 -83 -100.5 -126t-133.5 -43q-45 0 -79 14t-74 42.5t-59 39.5t-46 11q-34 0 -62.5 -23.5t-55.5 -70.5l-106 83q42 83 101.5 126.5t132.5 43.5q46 0 80 -14.5t73.5 -43 t58.5 -39.5t46 -11q34 0 62.5 23t55.5 71z" />
<glyph unicode="&#xe4;" horiz-adv-x="1102" d="M1066 14q-11 -1 -41 -4t-81.5 -6.5t-117 -5t-130.5 0.5q-1 76 3.5 124.5t7.5 65.5l-3 1q-18 -45 -50.5 -83.5t-76.5 -67t-96.5 -44t-109.5 -15.5q-68 0 -122 19.5t-91.5 56t-57 88.5t-19.5 116q0 87 44 152.5t124 108.5t189.5 64.5t242.5 22.5v62q0 52 -10 89.5t-33 63.5 t-61.5 39t-94.5 13q-58 0 -105 -9.5t-67 -15.5q-4 -44 -11.5 -88t-11.5 -65h-136v286q38 14 133.5 34t221.5 20q112 0 188.5 -23.5t122 -68.5t65 -108.5t19.5 -148.5v-519q21 -3 67 -9.5t98 -10.5v-135zM681 462q-95 0 -167 -9.5t-122 -30.5t-75.5 -54.5t-25.5 -80.5 q0 -31 9.5 -56t27.5 -43.5t45 -28.5t62 -10q53 0 98.5 24t78.5 65.5t51 93.5t18 106v24zM850 1335q0 -25 -9.5 -48t-26.5 -40.5t-40 -27t-49 -9.5q-25 0 -47.5 9.5t-39.5 27t-26.5 40.5t-9.5 48t9.5 47.5t26.5 39.5t39.5 26.5t47.5 9.5q26 0 49 -9.5t40 -26.5t26.5 -39.5 t9.5 -47.5zM446 1335q0 -25 -9.5 -48t-26.5 -40.5t-39 -27t-47 -9.5q-26 0 -49 9.5t-40 27t-26.5 40.5t-9.5 48t9.5 47.5t26.5 39.5t40 26.5t49 9.5q25 0 47 -9.5t39 -26.5t26.5 -39.5t9.5 -47.5z" />
<glyph unicode="&#xe5;" horiz-adv-x="1102" d="M1066 14q-11 -1 -41 -4t-81.5 -6.5t-117 -5t-130.5 0.5q-1 76 3.5 124.5t7.5 65.5l-3 1q-18 -45 -50.5 -83.5t-76.5 -67t-96.5 -44t-109.5 -15.5q-68 0 -122 19.5t-91.5 56t-57 88.5t-19.5 116q0 87 44 152.5t124 108.5t189.5 64.5t242.5 22.5v62q0 52 -10 89.5t-33 63.5 t-61.5 39t-94.5 13q-58 0 -105 -9.5t-67 -15.5q-4 -44 -11.5 -88t-11.5 -65h-136v286q38 14 133.5 34t221.5 20q112 0 188.5 -23.5t122 -68.5t65 -108.5t19.5 -148.5v-519q21 -3 67 -9.5t98 -10.5v-135zM681 462q-95 0 -167 -9.5t-122 -30.5t-75.5 -54.5t-25.5 -80.5 q0 -31 9.5 -56t27.5 -43.5t45 -28.5t62 -10q53 0 98.5 24t78.5 65.5t51 93.5t18 106v24zM782 1376q0 -52 -18.5 -96t-53 -77t-82.5 -51t-106 -18q-57 0 -102 14t-76 42.5t-47 71t-16 97.5q0 53 19 97.5t54 77t83 50t106 17.5q57 0 101.5 -14t75 -42t46.5 -70.5t16 -98.5z M633 1368q0 29 -6.5 50.5t-19 35.5t-31 21t-43.5 7q-21 0 -39.5 -7t-32.5 -21t-21.5 -35t-7.5 -49q0 -30 6.5 -52t19 -36.5t30.5 -21.5t42 -7q21 0 40 7t33 21.5t22 36.5t8 50z" />
<glyph unicode="&#xe6;" horiz-adv-x="1640" d="M1552 614q0 -25 -1.5 -51.5t-3.5 -48.5t-3 -35t-2 -18h-645q0 -75 17.5 -132.5t53.5 -96t91 -58.5t131 -20q75 0 150.5 13.5t152.5 39.5l27 -164q-87 -30 -178.5 -46.5t-178.5 -16.5q-83 0 -150.5 15.5t-118.5 45t-86.5 70.5t-55.5 92h-2q-24 -48 -60.5 -88.5 t-84.5 -70.5t-107.5 -47t-126.5 -17t-121 19.5t-92 56t-58 88.5t-20 116q0 83 41.5 148.5t120.5 111t190 69t248 23.5v58q0 52 -10 90t-33 64t-61.5 39.5t-94.5 13.5q-57 0 -104.5 -10t-67.5 -17q-2 -45 -9.5 -89t-12.5 -65h-135v287q38 14 132.5 34.5t221.5 20.5 q53 0 100.5 -7t88.5 -23t74.5 -42.5t57.5 -64.5h2q22 29 53.5 54t72 43.5t87.5 29t99 10.5q106 0 184.5 -32.5t128.5 -90.5t74 -135t24 -166zM1333 612q3 60 -8 108.5t-37 83.5t-66 54t-94 19q-52 0 -94 -21t-71.5 -57.5t-46 -84.5t-19.5 -102h436zM680 467 q-103 0 -177.5 -13t-121 -37t-68.5 -56.5t-22 -73.5q0 -31 9 -56t27.5 -43.5t45 -28t61.5 -9.5q54 0 99.5 24t78.5 65t50.5 93t17.5 106v29z" />
<glyph unicode="&#xe7;" horiz-adv-x="913" d="M861 36q-32 -11 -67.5 -20.5t-75 -17t-82 -11.5t-86.5 -4q-69 0 -130 11.5t-113.5 36t-95 64t-72 94.5t-45.5 127.5t-16 162.5q0 122 31.5 223t95 176t161.5 116t227 41q61 0 124.5 -9.5t119.5 -25.5v-317h-137q-4 20 -12.5 64.5t-12.5 92.5q-12 4 -42.5 9t-69.5 5 q-60 0 -108 -24.5t-81 -70t-50.5 -108.5t-17.5 -140q0 -80 14.5 -141.5t47.5 -106t88.5 -68.5t135.5 -24q58 0 122 12.5t117 33.5zM580 -82q38 -52 53 -103t8 -100.5t-33 -98t-71 -97.5h-170q41 50 63.5 91t27 80t-10.5 79.5t-52 85.5z" />
<glyph unicode="&#xe8;" horiz-adv-x="1047" d="M959 612q0 -24 -1 -48t-2.5 -43t-2.5 -30t-1 -15h-651q0 -82 17.5 -142.5t53.5 -100t92 -59.5t132 -20q75 0 151 13.5t152 39.5l26 -164q-85 -30 -176 -46.5t-179 -16.5q-121 0 -212.5 31.5t-153.5 96t-94 163t-32 231.5q0 114 32 212t93 170.5t148.5 112.5t195.5 40 q106 0 184.5 -32.5t129 -90.5t74.5 -135t24 -167zM740 627q1 59 -12.5 105.5t-40.5 78t-66 47.5t-87 16q-45 0 -84.5 -16.5t-69.5 -48t-49.5 -78t-26.5 -104.5h436zM563 1155l-307 262l127 131l282 -288z" />
<glyph unicode="&#xe9;" horiz-adv-x="1047" d="M959 612q0 -24 -1 -48t-2.5 -43t-2.5 -30t-1 -15h-651q0 -82 17.5 -142.5t53.5 -100t92 -59.5t132 -20q75 0 151 13.5t152 39.5l26 -164q-85 -30 -176 -46.5t-179 -16.5q-121 0 -212.5 31.5t-153.5 96t-94 163t-32 231.5q0 114 32 212t93 170.5t148.5 112.5t195.5 40 q106 0 184.5 -32.5t129 -90.5t74.5 -135t24 -167zM740 627q1 59 -12.5 105.5t-40.5 78t-66 47.5t-87 16q-45 0 -84.5 -16.5t-69.5 -48t-49.5 -78t-26.5 -104.5h436zM514 1155l-102 105l282 288l127 -129z" />
<glyph unicode="&#xea;" horiz-adv-x="1047" d="M959 612q0 -24 -1 -48t-2.5 -43t-2.5 -30t-1 -15h-651q0 -82 17.5 -142.5t53.5 -100t92 -59.5t132 -20q75 0 151 13.5t152 39.5l26 -164q-85 -30 -176 -46.5t-179 -16.5q-121 0 -212.5 31.5t-153.5 96t-94 163t-32 231.5q0 114 32 212t93 170.5t148.5 112.5t195.5 40 q106 0 184.5 -32.5t129 -90.5t74.5 -135t24 -167zM740 627q1 59 -12.5 105.5t-40.5 78t-66 47.5t-87 16q-45 0 -84.5 -16.5t-69.5 -48t-49.5 -78t-26.5 -104.5h436zM749 1159l-208 170l-211 -170l-86 101l301 272l295 -270z" />
<glyph unicode="&#xeb;" horiz-adv-x="1047" d="M959 612q0 -24 -1 -48t-2.5 -43t-2.5 -30t-1 -15h-651q0 -82 17.5 -142.5t53.5 -100t92 -59.5t132 -20q75 0 151 13.5t152 39.5l26 -164q-85 -30 -176 -46.5t-179 -16.5q-121 0 -212.5 31.5t-153.5 96t-94 163t-32 231.5q0 114 32 212t93 170.5t148.5 112.5t195.5 40 q106 0 184.5 -32.5t129 -90.5t74.5 -135t24 -167zM740 627q1 59 -12.5 105.5t-40.5 78t-66 47.5t-87 16q-45 0 -84.5 -16.5t-69.5 -48t-49.5 -78t-26.5 -104.5h436zM866 1335q0 -25 -9.5 -48t-26.5 -40.5t-40 -27t-49 -9.5q-25 0 -47.5 9.5t-39.5 27t-26.5 40.5t-9.5 48 t9.5 47.5t26.5 39.5t39.5 26.5t47.5 9.5q26 0 49 -9.5t40 -26.5t26.5 -39.5t9.5 -47.5zM462 1335q0 -25 -9.5 -48t-26.5 -40.5t-39 -27t-47 -9.5q-26 0 -49 9.5t-40 27t-26.5 40.5t-9.5 48t9.5 47.5t26.5 39.5t40 26.5t49 9.5q25 0 47 -9.5t39 -26.5t26.5 -39.5t9.5 -47.5z " />
<glyph unicode="&#xec;" horiz-adv-x="649" d="M57 0v134q20 5 67 14t102 13v688q-38 6 -83.5 11.5t-85.5 8.5v134q44 5 91 9t97 6t100.5 2.5t98.5 -1.5v-858q44 -3 86 -10t80 -17v-134h-553zM360 1155l-307 262l127 131l282 -288z" />
<glyph unicode="&#xed;" horiz-adv-x="649" d="M57 0v134q20 5 67 14t102 13v688q-38 6 -83.5 11.5t-85.5 8.5v134q44 5 91 9t97 6t100.5 2.5t98.5 -1.5v-858q44 -3 86 -10t80 -17v-134h-553zM272 1155l-102 105l282 288l127 -129z" />
<glyph unicode="&#xee;" horiz-adv-x="649" d="M57 0v134q20 5 67 14t102 13v688q-38 6 -83.5 11.5t-85.5 8.5v134q44 5 91 9t97 6t100.5 2.5t98.5 -1.5v-858q44 -3 86 -10t80 -17v-134h-553zM535 1159l-208 170l-211 -170l-86 101l301 272l295 -270z" />
<glyph unicode="&#xef;" horiz-adv-x="649" d="M57 0v134q20 5 67 14t102 13v688q-38 6 -83.5 11.5t-85.5 8.5v134q44 5 91 9t97 6t100.5 2.5t98.5 -1.5v-858q44 -3 86 -10t80 -17v-134h-553zM628 1335q0 -25 -9.5 -48t-26.5 -40.5t-40 -27t-49 -9.5q-25 0 -47.5 9.5t-39.5 27t-26.5 40.5t-9.5 48t9.5 47.5t26.5 39.5 t39.5 26.5t47.5 9.5q26 0 49 -9t40 -26t26.5 -39.5t9.5 -48.5zM259 1335q0 -26 -9.5 -48.5t-26 -40t-39 -27t-48.5 -9.5q-25 0 -48 9.5t-40.5 27t-27 40.5t-9.5 48t9.5 47.5t27 39.5t40.5 26.5t48 9.5q26 0 48.5 -9t39.5 -26t26 -39.5t9 -48.5z" />
<glyph unicode="&#xf0;" d="M1044 563q0 -144 -38 -254.5t-105.5 -183.5t-158 -109t-195.5 -36q-106 0 -192.5 31.5t-149 95.5t-96 161.5t-33.5 227.5q0 116 35 215t99.5 171.5t154 112t196.5 39.5q30 0 58 -4.5t54 -14t47 -25t34 -36.5q-13 25 -31.5 54.5t-26.5 42.5q-24 42 -53 80.5t-68 78.5 l-200 -88l-90 107l184 82q-34 30 -74 61t-88 66l217 92q41 -33 78 -65.5t70 -65.5l194 84l90 -109l-188 -82q66 -79 117.5 -165.5t87 -179t53.5 -189t18 -195.5zM817 535q0 73 -16 132t-48 101t-80 64t-112 22q-52 0 -98.5 -20.5t-83 -63t-57.5 -107t-21 -149.5 q0 -83 18.5 -147.5t53 -109t84.5 -67t112 -22.5q54 0 99 21t78.5 65.5t52 115t18.5 165.5z" />
<glyph unicode="&#xf1;" horiz-adv-x="1280" d="M862 0v653q0 50 -7.5 87t-25 63t-46.5 39.5t-72 13.5q-55 0 -104 -27.5t-85.5 -78t-57 -118t-20.5 -145.5v-325q51 -4 93 -12t59 -13v-137h-539v135q20 5 66.5 14t101.5 13v686q-38 6 -83.5 11.5t-84.5 8.5v136q45 5 92 8.5t96 5.5t97.5 2t93.5 -2q0 -21 -1 -47t-3 -53.5 t-5 -54t-7 -46.5l4 -2q22 50 56 91t78 70.5t98.5 45.5t117.5 16q85 0 144.5 -25t95.5 -70t51.5 -104.5t15.5 -131.5v-545q56 -5 101 -13.5t63 -13.5v-135h-383zM1001 1370q-41 -83 -100.5 -126t-133.5 -43q-45 0 -79 14t-74 42.5t-59 39.5t-46 11q-34 0 -62.5 -23.5 t-55.5 -70.5l-106 83q42 83 101.5 126.5t132.5 43.5q46 0 80 -14.5t73.5 -43t58.5 -39.5t46 -11q34 0 62.5 23t55.5 71z" />
<glyph unicode="&#xf2;" d="M1049 526q0 -116 -33 -215.5t-98 -174t-159.5 -115.5t-213.5 -41q-107 0 -193 31t-147.5 94.5t-94 160.5t-32.5 226q0 116 33 215.5t97.5 174t159.5 115.5t214 41q107 0 193 -31t147.5 -94.5t94 -160.5t32.5 -226zM823 510q0 82 -17.5 146.5t-51 108.5t-81 66.5 t-108.5 22.5q-59 0 -107.5 -22t-83 -65.5t-53 -109t-18.5 -149.5q0 -82 17.5 -146t51 -107.5t81 -66t108.5 -22.5q57 0 105 20.5t83 63t54.5 108t19.5 152.5zM596 1155l-307 262l127 131l282 -288z" />
<glyph unicode="&#xf3;" d="M1049 526q0 -116 -33 -215.5t-98 -174t-159.5 -115.5t-213.5 -41q-107 0 -193 31t-147.5 94.5t-94 160.5t-32.5 226q0 116 33 215.5t97.5 174t159.5 115.5t214 41q107 0 193 -31t147.5 -94.5t94 -160.5t32.5 -226zM823 510q0 82 -17.5 146.5t-51 108.5t-81 66.5 t-108.5 22.5q-59 0 -107.5 -22t-83 -65.5t-53 -109t-18.5 -149.5q0 -82 17.5 -146t51 -107.5t81 -66t108.5 -22.5q57 0 105 20.5t83 63t54.5 108t19.5 152.5zM541 1155l-102 105l282 288l127 -129z" />
<glyph unicode="&#xf4;" d="M1049 526q0 -116 -33 -215.5t-98 -174t-159.5 -115.5t-213.5 -41q-107 0 -193 31t-147.5 94.5t-94 160.5t-32.5 226q0 116 33 215.5t97.5 174t159.5 115.5t214 41q107 0 193 -31t147.5 -94.5t94 -160.5t32.5 -226zM823 510q0 82 -17.5 146.5t-51 108.5t-81 66.5 t-108.5 22.5q-59 0 -107.5 -22t-83 -65.5t-53 -109t-18.5 -149.5q0 -82 17.5 -146t51 -107.5t81 -66t108.5 -22.5q57 0 105 20.5t83 63t54.5 108t19.5 152.5zM778 1159l-208 170l-211 -170l-86 101l301 272l295 -270z" />
<glyph unicode="&#xf5;" d="M1049 526q0 -116 -33 -215.5t-98 -174t-159.5 -115.5t-213.5 -41q-107 0 -193 31t-147.5 94.5t-94 160.5t-32.5 226q0 116 33 215.5t97.5 174t159.5 115.5t214 41q107 0 193 -31t147.5 -94.5t94 -160.5t32.5 -226zM823 510q0 82 -17.5 146.5t-51 108.5t-81 66.5 t-108.5 22.5q-59 0 -107.5 -22t-83 -65.5t-53 -109t-18.5 -149.5q0 -82 17.5 -146t51 -107.5t81 -66t108.5 -22.5q57 0 105 20.5t83 63t54.5 108t19.5 152.5zM933 1370q-41 -83 -100.5 -126t-133.5 -43q-45 0 -79 14t-74 42.5t-59 39.5t-46 11q-34 0 -62.5 -23.5 t-55.5 -70.5l-106 83q42 83 101.5 126.5t132.5 43.5q46 0 80 -14.5t73.5 -43t58.5 -39.5t46 -11q34 0 62.5 23t55.5 71z" />
<glyph unicode="&#xf6;" d="M1049 526q0 -116 -33 -215.5t-98 -174t-159.5 -115.5t-213.5 -41q-107 0 -193 31t-147.5 94.5t-94 160.5t-32.5 226q0 116 33 215.5t97.5 174t159.5 115.5t214 41q107 0 193 -31t147.5 -94.5t94 -160.5t32.5 -226zM823 510q0 82 -17.5 146.5t-51 108.5t-81 66.5 t-108.5 22.5q-59 0 -107.5 -22t-83 -65.5t-53 -109t-18.5 -149.5q0 -82 17.5 -146t51 -107.5t81 -66t108.5 -22.5q57 0 105 20.5t83 63t54.5 108t19.5 152.5zM897 1335q0 -25 -9.5 -48t-26.5 -40.5t-40 -27t-49 -9.5q-25 0 -47.5 9.5t-39.5 27t-26.5 40.5t-9.5 48t9.5 47.5 t26.5 39.5t39.5 26.5t47.5 9.5q26 0 49 -9.5t40 -26.5t26.5 -39.5t9.5 -47.5zM493 1335q0 -25 -9.5 -48t-26.5 -40.5t-39 -27t-47 -9.5q-26 0 -49 9.5t-40 27t-26.5 40.5t-9.5 48t9.5 47.5t26.5 39.5t40 26.5t49 9.5q25 0 47 -9.5t39 -26.5t26.5 -39.5t9.5 -47.5z" />
<glyph unicode="&#xf7;" d="M700 1020q0 -29 -10.5 -54.5t-29.5 -44.5t-44.5 -29.5t-54.5 -10.5t-54.5 10.5t-44.5 29.5t-29.5 44.5t-10.5 54.5t10.5 54.5t29.5 44.5t44.5 29.5t54.5 10.5t54.5 -10.5t44.5 -29.5t29.5 -44.5t10.5 -54.5zM84 518v182h958v-182h-958zM700 197q0 -28 -10.5 -53.5 t-29.5 -45t-44.5 -30.5t-54.5 -11t-54.5 11t-44.5 30.5t-29.5 45t-10.5 53.5t10.5 54t29.5 45.5t44.5 30.5t54.5 11t54.5 -11t44.5 -30.5t29.5 -45.5t10.5 -54z" />
<glyph unicode="&#xf8;" d="M1049 526q0 -116 -33 -215.5t-98 -174t-159.5 -115.5t-213.5 -41q-47 0 -90 7t-78 19l-103 -192l-127 57l103 195q-42 31 -74 72.5t-54 94.5t-33 118t-11 141q0 116 33 215.5t97.5 174t159.5 115.5t214 41q46 0 90 -7t78 -19l102 192l127 -57l-102 -195q42 -31 74 -72.5 t53.5 -94.5t33 -118t11.5 -141zM838 510q0 84 -17 149.5t-43 106.5l-315 -594q19 -9 44.5 -13.5t51.5 -4.5q65 0 116.5 23t88 68t55.5 111.5t19 153.5zM664 846q-20 9 -45.5 13.5t-51.5 4.5q-65 0 -116.5 -23t-87.5 -68t-55 -112t-19 -153q0 -44 4.5 -82.5t13 -71t19 -58 t22.5 -44.5z" />
<glyph unicode="&#xf9;" horiz-adv-x="1262" d="M1227 14q-41 -5 -88 -8.5t-97 -5.5t-99 -2t-93 2q0 22 1 47.5t2.5 52t4 53t6.5 48.5h-4q-22 -50 -56 -90.5t-79 -69.5t-99.5 -45t-117.5 -16q-84 0 -143.5 25t-95 69t-51 102.5t-15.5 128.5v543q-38 6 -82.5 11.5t-83.5 8.5v136q41 5 87 8.5t96 5.5t101 2t99 -2v-653 q0 -50 7.5 -87t25 -63t47.5 -39.5t73 -13.5q56 0 105 28t85.5 78.5t56.5 117.5t20 142v322q-49 7 -86 11t-72 7v136q42 5 88 9t94 5.5t97 1.5t96 -2v-848q38 -6 83.5 -11.5t86.5 -8.5v-136zM637 1155l-307 262l127 131l282 -288z" />
<glyph unicode="&#xfa;" horiz-adv-x="1262" d="M1227 14q-41 -5 -88 -8.5t-97 -5.5t-99 -2t-93 2q0 22 1 47.5t2.5 52t4 53t6.5 48.5h-4q-22 -50 -56 -90.5t-79 -69.5t-99.5 -45t-117.5 -16q-84 0 -143.5 25t-95 69t-51 102.5t-15.5 128.5v543q-38 6 -82.5 11.5t-83.5 8.5v136q41 5 87 8.5t96 5.5t101 2t99 -2v-653 q0 -50 7.5 -87t25 -63t47.5 -39.5t73 -13.5q56 0 105 28t85.5 78.5t56.5 117.5t20 142v322q-49 7 -86 11t-72 7v136q42 5 88 9t94 5.5t97 1.5t96 -2v-848q38 -6 83.5 -11.5t86.5 -8.5v-136zM604 1155l-102 105l282 288l127 -129z" />
<glyph unicode="&#xfb;" horiz-adv-x="1262" d="M1227 14q-41 -5 -88 -8.5t-97 -5.5t-99 -2t-93 2q0 22 1 47.5t2.5 52t4 53t6.5 48.5h-4q-22 -50 -56 -90.5t-79 -69.5t-99.5 -45t-117.5 -16q-84 0 -143.5 25t-95 69t-51 102.5t-15.5 128.5v543q-38 6 -82.5 11.5t-83.5 8.5v136q41 5 87 8.5t96 5.5t101 2t99 -2v-653 q0 -50 7.5 -87t25 -63t47.5 -39.5t73 -13.5q56 0 105 28t85.5 78.5t56.5 117.5t20 142v322q-49 7 -86 11t-72 7v136q42 5 88 9t94 5.5t97 1.5t96 -2v-848q38 -6 83.5 -11.5t86.5 -8.5v-136zM833 1159l-208 170l-211 -170l-86 101l301 272l295 -270z" />
<glyph unicode="&#xfc;" horiz-adv-x="1262" d="M1227 14q-41 -5 -88 -8.5t-97 -5.5t-99 -2t-93 2q0 22 1 47.5t2.5 52t4 53t6.5 48.5h-4q-22 -50 -56 -90.5t-79 -69.5t-99.5 -45t-117.5 -16q-84 0 -143.5 25t-95 69t-51 102.5t-15.5 128.5v543q-38 6 -82.5 11.5t-83.5 8.5v136q41 5 87 8.5t96 5.5t101 2t99 -2v-653 q0 -50 7.5 -87t25 -63t47.5 -39.5t73 -13.5q56 0 105 28t85.5 78.5t56.5 117.5t20 142v322q-49 7 -86 11t-72 7v136q42 5 88 9t94 5.5t97 1.5t96 -2v-848q38 -6 83.5 -11.5t86.5 -8.5v-136zM948 1335q0 -25 -9.5 -48t-26.5 -40.5t-40 -27t-49 -9.5q-25 0 -47.5 9.5t-39.5 27 t-26.5 40.5t-9.5 48t9.5 47.5t26.5 39.5t39.5 26.5t47.5 9.5q26 0 49 -9.5t40 -26.5t26.5 -39.5t9.5 -47.5zM544 1335q0 -25 -9.5 -48t-26.5 -40.5t-39 -27t-47 -9.5q-26 0 -49 9.5t-40 27t-26.5 40.5t-9.5 48t9.5 47.5t26.5 39.5t40 26.5t49 9.5q25 0 47 -9.5t39 -26.5 t26.5 -39.5t9.5 -47.5z" />
<glyph unicode="&#xfd;" horiz-adv-x="1153" d="M1139 881q-24 -7 -50.5 -12t-70.5 -11l-344 -967q-42 -118 -85.5 -195.5t-95.5 -124.5t-118 -68t-154 -21q-15 0 -33.5 1t-38.5 3t-39 4.5t-36 5.5l14 193q38 -12 71.5 -17.5t67.5 -5.5q39 0 70 11t58.5 36.5t52 69t49.5 108.5l39 109h-60l-301 858q-44 6 -70.5 11 t-50.5 12v137h478v-137q-27 -8 -56 -13t-65 -8l131 -375q28 -84 46 -142.5t34 -117.5h2q6 27 16 62t22 74t25.5 79.5l28.5 85.5l117 334q-35 3 -65 8t-56 13v137h467v-137zM545 1155l-102 105l282 288l127 -129z" />
<glyph unicode="&#xfe;" horiz-adv-x="1147" d="M1065 559q0 -132 -37 -238.5t-107 -182t-170.5 -115t-226.5 -39.5q-20 0 -37 0.5t-34 1.5t-34.5 3t-37.5 5v-332q47 -3 93 -10.5t85 -18.5v-133h-575v133q39 11 85 18.5t93 10.5v1663q-37 6 -83.5 11.5t-90.5 9.5v135q44 5 92 8.5t99 5.5t102.5 2t99.5 -2v-434 q0 -28 -1 -57t-2.5 -58.5t-5 -59t-7.5 -55.5h2q20 48 51.5 86t73 65t92.5 41.5t108 14.5q90 0 159.5 -31.5t117 -93t72 -150.5t24.5 -204zM836 539q0 77 -12.5 136t-38 99.5t-63.5 61t-89 20.5q-40 0 -74.5 -14.5t-63 -40.5t-49.5 -61t-35.5 -75.5t-22 -84.5t-7.5 -88v-314 q35 -10 74.5 -15t87.5 -5q66 0 119.5 21.5t92.5 67t60 118.5t21 174z" />
<glyph unicode="&#xff;" horiz-adv-x="1153" d="M1139 881q-24 -7 -50.5 -12t-70.5 -11l-344 -967q-42 -118 -85.5 -195.5t-95.5 -124.5t-118 -68t-154 -21q-15 0 -33.5 1t-38.5 3t-39 4.5t-36 5.5l14 193q38 -12 71.5 -17.5t67.5 -5.5q39 0 70 11t58.5 36.5t52 69t49.5 108.5l39 109h-60l-301 858q-44 6 -70.5 11 t-50.5 12v137h478v-137q-27 -8 -56 -13t-65 -8l131 -375q28 -84 46 -142.5t34 -117.5h2q6 27 16 62t22 74t25.5 79.5l28.5 85.5l117 334q-35 3 -65 8t-56 13v137h467v-137zM899 1335q0 -25 -9.5 -48t-26.5 -40.5t-40 -27t-49 -9.5q-25 0 -47.5 9.5t-39.5 27t-26.5 40.5 t-9.5 48t9.5 47.5t26.5 39.5t39.5 26.5t47.5 9.5q26 0 49 -9.5t40 -26.5t26.5 -39.5t9.5 -47.5zM495 1335q0 -25 -9.5 -48t-26.5 -40.5t-39 -27t-47 -9.5q-26 0 -49 9.5t-40 27t-26.5 40.5t-9.5 48t9.5 47.5t26.5 39.5t40 26.5t49 9.5q25 0 47 -9.5t39 -26.5t26.5 -39.5 t9.5 -47.5z" />
<glyph unicode="&#x100;" horiz-adv-x="1421" d="M889 0v135q47 10 82 16t69 9l-71 202h-541l-72 -202q35 -3 74 -9.5t82 -15.5v-135h-498v135q26 7 58.5 13.5t60.5 9.5l436 1224h279l440 -1224q28 -3 60.5 -9.5t58.5 -13.5v-135h-518zM764 967q-18 54 -33.5 104.5t-30.5 104.5h-4q-11 -46 -23 -87.5t-36 -119.5 l-154 -430h432zM420 1526v143h581v-143h-581z" />
<glyph unicode="&#x101;" horiz-adv-x="1102" d="M1066 14q-11 -1 -41 -4t-81.5 -6.5t-117 -5t-130.5 0.5q-1 76 3.5 124.5t7.5 65.5l-3 1q-18 -45 -50.5 -83.5t-76.5 -67t-96.5 -44t-109.5 -15.5q-68 0 -122 19.5t-91.5 56t-57 88.5t-19.5 116q0 87 44 152.5t124 108.5t189.5 64.5t242.5 22.5v62q0 52 -10 89.5t-33 63.5 t-61.5 39t-94.5 13q-58 0 -105 -9.5t-67 -15.5q-4 -44 -11.5 -88t-11.5 -65h-136v286q38 14 133.5 34t221.5 20q112 0 188.5 -23.5t122 -68.5t65 -108.5t19.5 -148.5v-519q21 -3 67 -9.5t98 -10.5v-135zM681 462q-95 0 -167 -9.5t-122 -30.5t-75.5 -54.5t-25.5 -80.5 q0 -31 9.5 -56t27.5 -43.5t45 -28.5t62 -10q53 0 98.5 24t78.5 65.5t51 93.5t18 106v24zM263 1247v161h532v-161h-532z" />
<glyph unicode="&#x102;" horiz-adv-x="1421" d="M889 0v135q47 10 82 16t69 9l-71 202h-541l-72 -202q35 -3 74 -9.5t82 -15.5v-135h-498v135q26 7 58.5 13.5t60.5 9.5l436 1224h279l440 -1224q28 -3 60.5 -9.5t58.5 -13.5v-135h-518zM764 967q-18 54 -33.5 104.5t-30.5 104.5h-4q-11 -46 -23 -87.5t-36 -119.5 l-154 -430h432zM988 1751q0 -55 -18.5 -102.5t-54.5 -83.5t-88.5 -56t-117.5 -20q-66 0 -118 20t-86.5 56.5t-52 84t-17.5 101.5h135q0 -25 10.5 -47t29.5 -39t45 -26t56 -9q32 0 58 9t44.5 25.5t28.5 39t10 47.5h136z" />
<glyph unicode="&#x103;" horiz-adv-x="1102" d="M1066 14q-11 -1 -41 -4t-81.5 -6.5t-117 -5t-130.5 0.5q-1 76 3.5 124.5t7.5 65.5l-3 1q-18 -45 -50.5 -83.5t-76.5 -67t-96.5 -44t-109.5 -15.5q-68 0 -122 19.5t-91.5 56t-57 88.5t-19.5 116q0 87 44 152.5t124 108.5t189.5 64.5t242.5 22.5v62q0 52 -10 89.5t-33 63.5 t-61.5 39t-94.5 13q-58 0 -105 -9.5t-67 -15.5q-4 -44 -11.5 -88t-11.5 -65h-136v286q38 14 133.5 34t221.5 20q112 0 188.5 -23.5t122 -68.5t65 -108.5t19.5 -148.5v-519q21 -3 67 -9.5t98 -10.5v-135zM681 462q-95 0 -167 -9.5t-122 -30.5t-75.5 -54.5t-25.5 -80.5 q0 -31 9.5 -56t27.5 -43.5t45 -28.5t62 -10q53 0 98.5 24t78.5 65.5t51 93.5t18 106v24zM799 1473q0 -59 -16 -112t-48.5 -93.5t-84 -64t-119.5 -23.5q-69 0 -120 23.5t-82.5 64.5t-46.5 93.5t-15 111.5h143q0 -29 8 -53.5t23.5 -42.5t38.5 -28t53 -10q56 0 88.5 35t32.5 99 h145z" />
<glyph unicode="&#x104;" horiz-adv-x="1421" d="M1360 0q-39 0 -82 -21t-80.5 -56.5t-60.5 -79t-23 -85.5q0 -37 19.5 -56t56.5 -19q62 0 135 51l66 -121q-53 -47 -116 -70.5t-132 -23.5q-54 0 -98 13t-75 38.5t-47 61.5t-16 81q0 40 11.5 79t33 76t52.5 70.5t71 61.5h-186v135q47 10 82 16t69 9l-71 202h-541l-72 -202 q35 -3 74 -9.5t82 -15.5v-135h-498v135q26 7 58.5 13.5t60.5 9.5l436 1224h279l440 -1224q28 -3 60.5 -9.5t58.5 -13.5v-135h-47zM764 967q-18 54 -33.5 104.5t-30.5 104.5h-4q-11 -46 -23 -87.5t-36 -119.5l-154 -430h432z" />
<glyph unicode="&#x105;" horiz-adv-x="1100" d="M1067 14q-75 -5 -135 -27.5t-113 -74.5q-17 -17 -30.5 -36t-22.5 -39t-13.5 -39.5t-4.5 -39.5q0 -37 20 -56t57 -19q17 0 33.5 3.5t33 9.5t34 15.5t35.5 22.5l63 -121q-27 -24 -56 -41.5t-60 -29.5t-64 -17.5t-68 -5.5q-54 0 -97.5 13t-74.5 38.5t-47 61.5t-16 81 q0 41 11.5 80t34 77t56 74.5t78.5 71.5q-8 44 -11.5 86.5t-2.5 79.5l-5 2q-20 -43 -52.5 -80t-75.5 -65t-94.5 -43.5t-108.5 -15.5q-67 0 -121 19.5t-92 56t-58 88.5t-20 116q0 87 44 152.5t124.5 108.5t190 64t241.5 23v62q0 52 -10 90t-33 64t-61.5 39.5t-94.5 13.5 q-57 0 -104.5 -10t-67.5 -17q-2 -45 -9.5 -89t-12.5 -65h-135v287q38 14 132.5 34.5t221.5 20.5q112 0 188.5 -24t122 -69t65 -109t19.5 -148v-303q0 -27 1 -55.5t2.5 -57t3.5 -55.5t5 -51q5 -1 18 -2.5t35 -4.5t49 -5.5t52 -3.5v-136zM680 461q-94 0 -166 -9.5t-121.5 -30 t-75.5 -54t-26 -80.5q0 -31 9 -56t27.5 -43.5t45 -28t61.5 -9.5q54 0 99.5 24t78.5 65t50.5 93t17.5 106v23z" />
<glyph unicode="&#x106;" horiz-adv-x="1204" d="M1130 57q-43 -16 -91 -30t-100 -24t-105.5 -15.5t-104.5 -5.5q-160 0 -281.5 46.5t-202 135t-121 214.5t-40.5 284q0 161 43 295.5t128.5 234t214 153.5t294.5 54q82 0 167 -11t169 -30v-363h-166q-4 23 -11.5 73.5t-13.5 107.5q-20 6 -68.5 14t-109.5 8 q-98 0 -173.5 -37.5t-126.5 -105.5t-77 -160t-26 -201q0 -120 26.5 -214.5t80.5 -161t138.5 -101.5t198.5 -35q40 0 82 5t84 14.5t81.5 22t76.5 26.5zM613 1477l-39 122l395 152l57 -162z" />
<glyph unicode="&#x107;" horiz-adv-x="913" d="M861 36q-32 -11 -67.5 -20.5t-75 -17t-82 -11.5t-86.5 -4q-69 0 -130 11.5t-113.5 36t-95 64t-72 94.5t-45.5 127.5t-16 162.5q0 122 31.5 223t95 176t161.5 116t227 41q61 0 124.5 -9.5t119.5 -25.5v-317h-137q-4 20 -12.5 64.5t-12.5 92.5q-12 4 -42.5 9t-69.5 5 q-60 0 -108 -24.5t-81 -70t-50.5 -108.5t-17.5 -140q0 -80 14.5 -141.5t47.5 -106t88.5 -68.5t135.5 -24q58 0 122 12.5t117 33.5zM496 1155l-102 105l282 288l127 -129z" />
<glyph unicode="&#x10c;" horiz-adv-x="1204" d="M1130 57q-43 -16 -91 -30t-100 -24t-105.5 -15.5t-104.5 -5.5q-160 0 -281.5 46.5t-202 135t-121 214.5t-40.5 284q0 161 43 295.5t128.5 234t214 153.5t294.5 54q82 0 167 -11t169 -30v-363h-166q-4 23 -11.5 73.5t-13.5 107.5q-20 6 -68.5 14t-109.5 8 q-98 0 -173.5 -37.5t-126.5 -105.5t-77 -160t-26 -201q0 -120 26.5 -214.5t80.5 -161t138.5 -101.5t198.5 -35q40 0 82 5t84 14.5t81.5 22t76.5 26.5zM698 1475l-327 167l57 121l274 -118l279 118l53 -116z" />
<glyph unicode="&#x10d;" horiz-adv-x="913" d="M861 36q-32 -11 -67.5 -20.5t-75 -17t-82 -11.5t-86.5 -4q-69 0 -130 11.5t-113.5 36t-95 64t-72 94.5t-45.5 127.5t-16 162.5q0 122 31.5 223t95 176t161.5 116t227 41q61 0 124.5 -9.5t119.5 -25.5v-317h-137q-4 20 -12.5 64.5t-12.5 92.5q-12 4 -42.5 9t-69.5 5 q-60 0 -108 -24.5t-81 -70t-50.5 -108.5t-17.5 -140q0 -80 14.5 -141.5t47.5 -106t88.5 -68.5t135.5 -24q58 0 122 12.5t117 33.5zM539 1158l-295 270l89 104l208 -171l212 171l86 -101z" />
<glyph unicode="&#x10e;" horiz-adv-x="1448" d="M1363 710q0 -177 -56.5 -311.5t-157.5 -225t-242.5 -136t-310.5 -45.5q-54 0 -107 1.5t-101.5 3t-89.5 2.5t-67 1h-178v134q40 10 85.5 17t92.5 10v1060q-47 3 -92.5 10t-85.5 17v134h173q41 0 91 1t106.5 2.5t116 3t119.5 1.5q163 0 293.5 -39t221.5 -121.5t140 -211 t49 -308.5zM1125 694q0 123 -28 218t-87 160t-150.5 98.5t-219.5 33.5h-51t-50 -1t-46 -2t-40 -2v-1006q17 -3 37.5 -5t42 -3.5t44 -2t42.5 -0.5q112 0 205 30t160 93t104 159.5t37 229.5zM647 1475l-327 167l57 121l274 -118l279 118l53 -116z" />
<glyph unicode="&#x10f;" horiz-adv-x="1395" d="M1151 15q-40 -5 -87 -9t-96.5 -6t-99 -2.5t-94.5 1.5q0 22 1 46t2.5 49.5t4.5 50.5t7 45l-4 2q-21 -48 -53.5 -87t-75.5 -67.5t-94.5 -43.5t-109.5 -15q-92 0 -162.5 33t-117.5 95.5t-70.5 151t-23.5 199.5q0 131 36.5 237.5t106 182.5t168.5 116t221 40q37 0 74 -2 t79 -7v301q-38 6 -86 11.5t-92 8.5v134q44 5 93 9t100.5 6t103 2.5t100.5 -1.5v-1327q37 -6 83.5 -11.5t85.5 -8.5v-134zM763 841q-39 10 -79 14.5t-82 4.5q-67 0 -120.5 -21.5t-92 -67t-59.5 -118t-21 -173.5q0 -78 12 -137.5t37 -100t63.5 -61.5t89.5 -21q40 0 74.5 14.5 t63 41t49.5 61.5t35.5 76.5t22 85.5t7.5 88v314zM1211 1146l-142 35l108 392l178 -42z" />
<glyph unicode="&#x110;" horiz-adv-x="1470" d="M1384 711q0 -175 -55 -310.5t-157 -226t-243 -136.5t-313 -46q-73 0 -193 4t-171 4h-178v135q44 10 89 17t89 10v461h-170v168h170v430q-45 3 -90.5 10t-87.5 16v135h174q36 0 75 1t116 2.5t132.5 2.5t110.5 1q110 0 204 -17t172 -52.5t138.5 -90.5t102.5 -130.5 t63.5 -172t21.5 -215.5zM1147 694q0 124 -28.5 219t-87.5 159.5t-150.5 98t-216.5 33.5q-24 0 -50 -0.5t-50.5 -1t-47 -1t-41.5 -1.5v-409h275v-168h-275v-430q16 -3 36.5 -5t43 -3.5t44.5 -2t42 -0.5q114 0 206.5 30.5t160 94t103.5 160.5t36 227z" />
<glyph unicode="&#x111;" horiz-adv-x="1184" d="M981 1147v-977q36 -6 82 -11.5t88 -8.5v-136q-41 -5 -88 -8.5t-96.5 -5.5t-98.5 -2t-94 2q0 21 1 45t2.5 49.5t4 50.5t6.5 45h-4q-21 -47 -53 -85.5t-74.5 -66.5t-94 -43t-109.5 -15q-93 0 -163.5 33t-117.5 95.5t-70.5 151t-23.5 199.5q0 130 36.5 235.5t106 180 t168.5 114t221 39.5q39 0 77 -2t77 -6v127h-285v129h285v82q-37 6 -85.5 11.5t-92.5 8.5v109q42 5 90.5 9t100 6t103 2t101.5 -1v-227h172v-129h-172zM764 838q-39 10 -79 14t-83 4q-67 0 -120.5 -21t-92 -65.5t-59.5 -117t-21 -173.5q0 -77 12.5 -136.5t37.5 -100t63 -61.5 t90 -21q39 0 73.5 14.5t63 41t50 61.5t36 76t22 85t7.5 88v312z" />
<glyph unicode="&#x112;" horiz-adv-x="1092" d="M53 0v135q43 10 89 17t89 10v1059q-44 3 -90.5 10t-87.5 16v135h916v-325h-162q-4 18 -11.5 60t-13.5 89h-329v-413h264q5 43 13.5 78t12.5 49h140v-418h-140q-4 14 -12.5 48.5t-13.5 78.5h-264v-449h331q6 48 14.5 91.5t12.5 62.5h162v-334h-920zM254 1526v143h581v-143 h-581z" />
<glyph unicode="&#x113;" horiz-adv-x="1047" d="M959 612q0 -24 -1 -48t-2.5 -43t-2.5 -30t-1 -15h-651q0 -82 17.5 -142.5t53.5 -100t92 -59.5t132 -20q75 0 151 13.5t152 39.5l26 -164q-85 -30 -176 -46.5t-179 -16.5q-121 0 -212.5 31.5t-153.5 96t-94 163t-32 231.5q0 114 32 212t93 170.5t148.5 112.5t195.5 40 q106 0 184.5 -32.5t129 -90.5t74.5 -135t24 -167zM740 627q1 59 -12.5 105.5t-40.5 78t-66 47.5t-87 16q-45 0 -84.5 -16.5t-69.5 -48t-49.5 -78t-26.5 -104.5h436zM267 1247v161h532v-161h-532z" />
<glyph unicode="&#x116;" horiz-adv-x="1092" d="M53 0v135q43 10 89 17t89 10v1059q-44 3 -90.5 10t-87.5 16v135h916v-325h-162q-4 18 -11.5 60t-13.5 89h-329v-413h264q5 43 13.5 78t12.5 49h140v-418h-140q-4 14 -12.5 48.5t-13.5 78.5h-264v-449h331q6 48 14.5 91.5t12.5 62.5h162v-334h-920zM688 1616 q0 -27 -10.5 -52t-29 -43.5t-43 -29t-52.5 -10.5q-27 0 -52 10.5t-43.5 29t-29 43t-10.5 52.5t10.5 52.5t29 43t43.5 29t52 10.5q28 0 52.5 -10t43.5 -29t29 -43.5t10 -52.5z" />
<glyph unicode="&#x117;" horiz-adv-x="1047" d="M959 612q0 -24 -1 -48t-2.5 -43t-2.5 -30t-1 -15h-651q0 -82 17.5 -142.5t53.5 -100t92 -59.5t132 -20q75 0 151 13.5t152 39.5l26 -164q-85 -30 -176 -46.5t-179 -16.5q-121 0 -212.5 31.5t-153.5 96t-94 163t-32 231.5q0 114 32 212t93 170.5t148.5 112.5t195.5 40 q106 0 184.5 -32.5t129 -90.5t74.5 -135t24 -167zM740 627q1 59 -12.5 105.5t-40.5 78t-66 47.5t-87 16q-45 0 -84.5 -16.5t-69.5 -48t-49.5 -78t-26.5 -104.5h436zM674 1341q0 -28 -10 -52.5t-29 -43.5t-43.5 -29t-52.5 -10q-27 0 -52 10.5t-43.5 29t-29 43t-10.5 52.5 q0 27 10.5 52t29.5 43.5t43.5 29t51.5 10.5q28 0 52.5 -10t43.5 -29t29 -43.5t10 -52.5z" />
<glyph unicode="&#x118;" horiz-adv-x="1092" d="M973 6q-55 -36 -93 -69.5t-59.5 -64t-31 -58.5t-9.5 -56q0 -37 20 -56t58 -19q60 0 133 51l66 -121q-53 -47 -116 -70.5t-132 -23.5q-54 0 -98 13t-74.5 38.5t-47 61.5t-16.5 81q0 38 10.5 76t30.5 74t50 70.5t69 66.5h-680v135q43 10 89 17t89 10v1059q-44 3 -90.5 10 t-87.5 16v135h916v-325h-162q-4 18 -11.5 60t-13.5 89h-329v-413h264q5 43 13.5 78t12.5 49h140v-418h-140q-4 14 -12.5 48.5t-13.5 78.5h-264v-449h331q6 48 14.5 91.5t12.5 62.5h162v-328z" />
<glyph unicode="&#x119;" horiz-adv-x="1047" d="M926 45q-54 -20 -102.5 -51.5t-86 -70.5t-58 -81.5t-20.5 -83.5q0 -37 20 -56t58 -19q32 0 64.5 13t68.5 38l66 -121q-53 -47 -116 -70.5t-132 -23.5q-54 0 -97.5 13t-74.5 38.5t-47 61.5t-16 81q0 35 9.5 71t28 71.5t46.5 69.5t65 63q-14 -2 -33 -3t-32 -1 q-63 0 -121 12t-109 37t-93 66t-72.5 98.5t-47 133.5t-16.5 171q0 114 32 212t93 171t148.5 113t195.5 40q106 0 184.5 -32.5t128.5 -91t74 -135.5t24 -167q0 -22 -1 -45.5t-2 -43t-2 -31t-1 -15.5h-651q0 -82 17.5 -142.5t54 -100.5t92 -60t131.5 -20q75 0 150.5 13.5 t152.5 39.5zM739 627q1 59 -12 105t-40 78t-65.5 48t-86.5 16q-46 0 -85.5 -16.5t-70 -48.5t-50 -78t-26.5 -104h436z" />
<glyph unicode="&#x11a;" horiz-adv-x="1092" d="M53 0v135q43 10 89 17t89 10v1059q-44 3 -90.5 10t-87.5 16v135h916v-325h-162q-4 18 -11.5 60t-13.5 89h-329v-413h264q5 43 13.5 78t12.5 49h140v-418h-140q-4 14 -12.5 48.5t-13.5 78.5h-264v-449h331q6 48 14.5 91.5t12.5 62.5h162v-334h-920zM538 1475l-327 167 l57 121l274 -118l279 118l53 -116z" />
<glyph unicode="&#x11b;" horiz-adv-x="1047" d="M959 612q0 -24 -1 -48t-2.5 -43t-2.5 -30t-1 -15h-651q0 -82 17.5 -142.5t53.5 -100t92 -59.5t132 -20q75 0 151 13.5t152 39.5l26 -164q-85 -30 -176 -46.5t-179 -16.5q-121 0 -212.5 31.5t-153.5 96t-94 163t-32 231.5q0 114 32 212t93 170.5t148.5 112.5t195.5 40 q106 0 184.5 -32.5t129 -90.5t74.5 -135t24 -167zM740 627q1 59 -12.5 105.5t-40.5 78t-66 47.5t-87 16q-45 0 -84.5 -16.5t-69.5 -48t-49.5 -78t-26.5 -104.5h436zM535 1158l-295 270l89 104l208 -171l212 171l86 -101z" />
<glyph unicode="&#x11e;" horiz-adv-x="1415" d="M1362 575q-32 -7 -63.5 -12.5t-61.5 -9.5v-490q-51 -20 -108 -35.5t-116.5 -26t-120.5 -16t-120 -5.5q-159 0 -287.5 46.5t-218.5 135t-137 215.5t-47 285q0 162 50 297.5t147 234.5t236.5 153t313.5 54q95 0 189.5 -12.5t195.5 -36.5v-346h-165q-10 42 -15.5 80.5 t-11.5 95.5q-53 12 -105.5 19t-101.5 7q-108 0 -198 -33.5t-156.5 -100t-102.5 -165t-36 -225.5q0 -119 33 -213t95 -159.5t151 -99.5t200 -34q58 0 111 8.5t102 24.5v340q-47 3 -92.5 10.5t-81.5 18.5v133h522v-138zM1072 1751q0 -55 -18.5 -102.5t-54.5 -83.5t-88.5 -56 t-117.5 -20q-66 0 -118 20t-86.5 56.5t-52 84t-17.5 101.5h135q0 -25 10.5 -47t29.5 -39t45 -26t56 -9q32 0 58 9t44.5 25.5t28.5 39t10 47.5h136z" />
<glyph unicode="&#x11f;" horiz-adv-x="1098" d="M1044 -129q0 -82 -38 -155t-109.5 -126.5t-174.5 -81.5t-216 -28q-100 0 -178.5 17.5t-139 57.5t-90.5 96t-30 130q0 42 13 81.5t39 75.5t56 63.5t60 45.5q-47 28 -69 63t-22 87q0 28 8.5 54.5t24 49.5t37 40.5t47.5 32.5q-75 48 -114 118.5t-39 164.5q0 77 26.5 145.5 t77.5 121t137 83.5t186 31q44 0 79.5 -5t75.5 -15h341v-172h-132q21 -39 29.5 -74.5t8.5 -80.5q0 -86 -27 -154t-79.5 -117t-133.5 -78t-185 -29q-22 0 -42 3t-43 10q-28 -19 -41.5 -40t-13.5 -39q0 -19 9 -31.5t27.5 -20.5t50.5 -13.5t77 -6.5l163 -4q74 -3 139 -22.5 t110.5 -56.5t70 -93.5t24.5 -127.5zM728 673q0 95 -55 149.5t-148 54.5q-51 0 -88 -15.5t-65 -43t-40.5 -65t-12.5 -81.5q0 -86 54.5 -143.5t151.5 -57.5q49 0 84 13.5t62.5 39.5t42 63.5t14.5 85.5zM825 -157q0 33 -11 59.5t-33.5 46t-61 31.5t-97.5 14l-165 6h-28t-26 1 q-53 -38 -83.5 -83.5t-30.5 -96.5q0 -41 18 -75t51 -56.5t80.5 -33t101.5 -10.5q75 0 124 13.5t86.5 40t56 64t18.5 79.5zM811 1473q0 -59 -16 -112t-48.5 -93.5t-84 -64t-119.5 -23.5q-69 0 -120 23.5t-82.5 64.5t-46.5 93.5t-15 111.5h143q0 -29 8 -53.5t23.5 -42.5 t38.5 -28t53 -10q56 0 88.5 35t32.5 99h145z" />
<glyph unicode="&#x122;" horiz-adv-x="1415" d="M1362 575q-32 -7 -63.5 -12.5t-61.5 -9.5v-490q-51 -20 -108 -35.5t-116.5 -26t-120.5 -16t-120 -5.5q-159 0 -287.5 46.5t-218.5 135t-137 215.5t-47 285q0 162 50 297.5t147 234.5t236.5 153t313.5 54q95 0 189.5 -12.5t195.5 -36.5v-346h-165q-10 42 -15.5 80.5 t-11.5 95.5q-53 12 -105.5 19t-101.5 7q-108 0 -198 -33.5t-156.5 -100t-102.5 -165t-36 -225.5q0 -119 33 -213t95 -159.5t151 -99.5t200 -34q58 0 111 8.5t102 24.5v340q-47 3 -92.5 10.5t-81.5 18.5v133h522v-138zM588 -414q57 35 77.5 67t20.5 60q0 15 -3.5 24.5 t-7.5 18t-7.5 18t-3.5 23.5q0 42 28 73.5t80 31.5q53 0 83 -36.5t30 -88.5q0 -33 -13 -69t-43 -71.5t-78 -69t-118 -61.5z" />
<glyph unicode="&#x123;" horiz-adv-x="1098" d="M1044 -129q0 -82 -38 -155t-109.5 -126.5t-174.5 -81.5t-216 -28q-100 0 -178.5 17.5t-139 57.5t-90.5 96t-30 130q0 42 13 81.5t39 75.5t56 63.5t60 45.5q-47 28 -69 63t-22 87q0 28 8.5 54.5t24 49.5t37 40.5t47.5 32.5q-75 48 -114 118.5t-39 164.5q0 77 26.5 145.5 t77.5 121t137 83.5t186 31q44 0 79.5 -5t75.5 -15h341v-172h-132q21 -39 29.5 -74.5t8.5 -80.5q0 -86 -27 -154t-79.5 -117t-133.5 -78t-185 -29q-22 0 -42 3t-43 10q-28 -19 -41.5 -40t-13.5 -39q0 -19 9 -31.5t27.5 -20.5t50.5 -13.5t77 -6.5l163 -4q74 -3 139 -22.5 t110.5 -56.5t70 -93.5t24.5 -127.5zM728 673q0 95 -55 149.5t-148 54.5q-51 0 -88 -15.5t-65 -43t-40.5 -65t-12.5 -81.5q0 -86 54.5 -143.5t151.5 -57.5q49 0 84 13.5t62.5 39.5t42 63.5t14.5 85.5zM825 -157q0 33 -11 59.5t-33.5 46t-61 31.5t-97.5 14l-165 6h-28t-26 1 q-53 -38 -83.5 -83.5t-30.5 -96.5q0 -41 18 -75t51 -56.5t80.5 -33t101.5 -10.5q75 0 124 13.5t86.5 40t56 64t18.5 79.5zM704 1468q-58 -34 -78 -65.5t-20 -59.5q0 -15 3.5 -25t7 -18.5t7 -18t3.5 -24.5q0 -46 -30 -74t-77 -28q-49 0 -80.5 35.5t-31.5 91.5q0 31 12.5 66.5 t41.5 71.5t77.5 69.5t119.5 60.5z" />
<glyph unicode="&#x12a;" horiz-adv-x="684" d="M53 0v135q43 10 89 17t89 10v1059q-44 3 -90.5 10t-87.5 16v135h578v-135q-41 -9 -87.5 -16t-90.5 -10v-1059q43 -3 89 -10t89 -17v-135h-578zM53 1526v143h581v-143h-581z" />
<glyph unicode="&#x12b;" horiz-adv-x="655" d="M57 0v134q20 5 67 14t102 13v688q-38 6 -83.5 11.5t-85.5 8.5v134q44 5 91 9t97 6t100.5 2.5t98.5 -1.5v-858q44 -3 86 -10t80 -17v-134h-553zM32 1247v161h532v-161h-532z" />
<glyph unicode="&#x12e;" horiz-adv-x="684" d="M53 0v135q43 10 89 17t89 10v1059q-44 3 -90.5 10t-87.5 16v135h578v-135q-41 -9 -87.5 -16t-90.5 -10v-1059q43 -3 89 -10t89 -17v-135h-578zM573 -387q-27 -24 -56.5 -41.5t-60.5 -29.5t-64 -17.5t-67 -5.5q-54 0 -97.5 13t-74.5 38.5t-47 61.5t-16 81q0 41 11 80 t33.5 77t55.5 74.5t78 71.5l213 -16q-52 -34 -88 -66t-57 -62t-30.5 -58t-9.5 -56q0 -36 20.5 -55.5t57.5 -19.5q31 0 64 12.5t71 38.5z" />
<glyph unicode="&#x12f;" horiz-adv-x="649" d="M487 1335q0 -28 -11 -53t-30.5 -44t-45 -29.5t-54.5 -10.5t-54.5 10.5t-45 29t-30.5 43.5t-11 54q0 28 11 53t30.5 44.5t45 30t54.5 10.5t54.5 -10.5t45 -30t30.5 -44.5t11 -53zM67 0v135q20 5 66.5 14t101.5 13v686q-38 6 -83.5 11.5t-84.5 8.5v136q45 5 92 8.5 t96.5 5.5t100 2t98.5 -2v-856q42 -3 83.5 -10t82.5 -17v-135h-553zM577 -387q-27 -24 -56.5 -41.5t-60.5 -29.5t-64 -17.5t-67 -5.5q-54 0 -97.5 13t-74.5 38.5t-47 61.5t-16 81q0 41 11 80t33.5 77t55.5 74.5t78 71.5l213 -16q-52 -34 -88 -66t-57 -62t-30.5 -58t-9.5 -56 q0 -36 20.5 -55.5t57.5 -19.5q31 0 64 12.5t71 38.5z" />
<glyph unicode="&#x130;" horiz-adv-x="684" d="M53 0v135q43 10 89 17t89 10v1059q-44 3 -90.5 10t-87.5 16v135h578v-135q-41 -9 -87.5 -16t-90.5 -10v-1059q43 -3 89 -10t89 -17v-135h-578zM477 1616q0 -27 -10.5 -52t-29 -43.5t-43 -29t-52.5 -10.5q-27 0 -52 10.5t-43.5 29t-29 43t-10.5 52.5t10.5 52.5t29 43 t43.5 29t52 10.5q28 0 52.5 -10t43.5 -29t29 -43.5t10 -52.5z" />
<glyph unicode="&#x131;" horiz-adv-x="648" d="M57 0v134q20 5 67 14t102 13v688q-38 6 -83.5 11.5t-85.5 8.5v134q44 5 91 9t97 6t100.5 2.5t98.5 -1.5v-858q44 -3 86 -10t80 -17v-134h-553z" />
<glyph unicode="&#x136;" horiz-adv-x="1391" d="M798 0v137q29 7 59 12t59 8l-463 533v-529q34 -3 72.5 -9t72.5 -15v-137h-545v134q40 10 85.5 17t92.5 10v1060q-47 3 -92.5 10t-85.5 17v134h545v-137q-34 -9 -72.5 -15t-72.5 -9v-496l457 499q-31 3 -65 8.5t-61 12.5v137h534v-136q-31 -7 -67.5 -13t-68.5 -10 l-477 -505l507 -559q33 -3 69 -9t67 -14v-136h-550zM502 -414q57 35 77.5 67t20.5 60q0 15 -3.5 24.5t-7.5 18t-7.5 18t-3.5 23.5q0 42 28 73.5t80 31.5q53 0 83 -36.5t30 -88.5q0 -33 -13 -69t-43 -71.5t-78 -69t-118 -61.5z" />
<glyph unicode="&#x137;" horiz-adv-x="1167" d="M808 0l-383 525v-364q40 -3 76.5 -9t65.5 -15v-137h-529v134q38 10 82 17t86 10v1165q-37 6 -84.5 11.5t-89.5 8.5v134q43 5 91 9t99 6t102.5 2.5t100.5 -1.5v-951l280 316q-35 3 -66.5 9t-52.5 15v133h512v-137q-30 -8 -67 -14t-75 -9l-286 -305l300 -389 q38 -5 79 -11.5t79 -14.5v-138h-320zM424 -414q57 35 77.5 67t20.5 60q0 15 -3.5 24.5t-7.5 18t-7.5 18t-3.5 23.5q0 42 28 73.5t80 31.5q53 0 83 -36.5t30 -88.5q0 -33 -13 -69t-43 -71.5t-78 -69t-118 -61.5z" />
<glyph unicode="&#x139;" horiz-adv-x="999" d="M53 0v135q43 10 89 17t89 10v1059q-44 3 -90.5 10t-87.5 16v135h578v-135q-41 -9 -87.5 -16t-90.5 -10v-1037h325q5 43 14.5 94.5t22.5 100.5h156v-379h-918zM353 1477l-39 122l395 152l57 -162z" />
<glyph unicode="&#x13a;" horiz-adv-x="621" d="M38 0v134q38 10 81.5 17t86.5 10v1165q-37 6 -84.5 11.5t-89.5 8.5v134q44 5 92 9t99 6t102 2.5t100 -1.5v-1335q43 -3 85 -10t81 -17v-134h-553zM209 1600l-39 122l395 152l57 -162z" />
<glyph unicode="&#x13b;" horiz-adv-x="999" d="M53 0v135q43 10 89 17t89 10v1059q-44 3 -90.5 10t-87.5 16v135h578v-135q-41 -9 -87.5 -16t-90.5 -10v-1037h325q5 43 14.5 94.5t22.5 100.5h156v-379h-918zM342 -414q57 35 77.5 67t20.5 60q0 15 -3.5 24.5t-7.5 18t-7.5 18t-3.5 23.5q0 42 28 73.5t80 31.5 q53 0 83 -36.5t30 -88.5q0 -33 -13 -69t-43 -71.5t-78 -69t-118 -61.5z" />
<glyph unicode="&#x13c;" horiz-adv-x="621" d="M38 0v134q38 10 81.5 17t86.5 10v1165q-37 6 -84.5 11.5t-89.5 8.5v134q44 5 92 9t99 6t102 2.5t100 -1.5v-1335q43 -3 85 -10t81 -17v-134h-553zM137 -414q57 35 77.5 67t20.5 60q0 15 -3.5 24.5t-7.5 18t-7.5 18t-3.5 23.5q0 42 28 73.5t80 31.5q53 0 83 -36.5 t30 -88.5q0 -33 -13 -69t-43 -71.5t-78 -69t-118 -61.5z" />
<glyph unicode="&#x13d;" horiz-adv-x="1020" d="M53 0v135q43 10 89 17t89 10v1059q-44 3 -90.5 10t-87.5 16v135h578v-135q-41 -9 -87.5 -16t-90.5 -10v-1037h325q5 43 14.5 94.5t22.5 100.5h156v-379h-918zM863 1146l-142 35l108 392l178 -42z" />
<glyph unicode="&#x13e;" horiz-adv-x="840" d="M38 0v134q38 10 81.5 17t86.5 10v1165q-37 6 -84.5 11.5t-89.5 8.5v134q44 5 92 9t99 6t102 2.5t100 -1.5v-1335q43 -3 85 -10t81 -17v-134h-553zM656 1146l-142 35l108 392l178 -42z" />
<glyph unicode="&#x141;" horiz-adv-x="1011" d="M64 0v134q40 10 86.5 17t91.5 10v458l-168 -58l-35 165l203 68v427q-45 3 -91.5 10t-86.5 17v134h579v-134q-40 -10 -86.5 -17t-91.5 -10v-362l226 74l34 -167l-260 -85v-498h326q4 40 13.5 92t22.5 104h156v-379h-919z" />
<glyph unicode="&#x142;" horiz-adv-x="662" d="M53 0v134q37 10 81 17t88 10v526l-136 -69l-43 163l179 91v454q-38 6 -84.5 11.5t-89.5 8.5v134q44 5 92 9t98.5 6t101.5 2.5t100 -1.5v-510l135 70l44 -163l-179 -92v-640q44 -3 87 -10t82 -17v-134h-556z" />
<glyph unicode="&#x143;" horiz-adv-x="1556" d="M1505 1245q-39 -9 -72 -15t-65 -9v-1221h-301l-414 715q-33 56 -62 106.5t-58.5 103t-56.5 103.5t-48 96q6 -82 9.5 -184t5.5 -220.5t2.5 -251t0.5 -306.5q42 -3 82 -9.5t76 -15.5v-137h-551v135q43 10 89 17t89 10v1059q-44 3 -90.5 10t-87.5 16v135h482l411 -710 q28 -47 58.5 -100t60 -107t56.5 -105.5t50 -97.5q-6 84 -10 187t-6 222t-3 254t-1 296q-39 3 -77.5 9t-72.5 15v137h504v-137zM662 1477l-39 122l395 152l57 -162z" />
<glyph unicode="&#x144;" horiz-adv-x="1288" d="M862 0v653q0 50 -7.5 87t-25 63t-46.5 39.5t-72 13.5q-55 0 -104 -27.5t-85.5 -78t-57 -118t-20.5 -145.5v-325q51 -4 93 -12t59 -13v-137h-539v135q20 5 66.5 14t101.5 13v686q-38 6 -83.5 11.5t-84.5 8.5v136q45 5 92 8.5t96 5.5t97.5 2t93.5 -2q0 -21 -1 -47t-3 -53.5 t-5 -54t-7 -46.5l4 -2q22 50 56 91t78 70.5t98.5 45.5t117.5 16q85 0 144.5 -25t95.5 -70t51.5 -104.5t15.5 -131.5v-545q56 -5 101 -13.5t63 -13.5v-135h-383zM666 1155l-102 105l282 288l127 -129z" />
<glyph unicode="&#x145;" horiz-adv-x="1556" d="M1505 1245q-39 -9 -72 -15t-65 -9v-1221h-301l-414 715q-33 56 -62 106.5t-58.5 103t-56.5 103.5t-48 96q6 -82 9.5 -184t5.5 -220.5t2.5 -251t0.5 -306.5q42 -3 82 -9.5t76 -15.5v-137h-551v135q43 10 89 17t89 10v1059q-44 3 -90.5 10t-87.5 16v135h482l411 -710 q28 -47 58.5 -100t60 -107t56.5 -105.5t50 -97.5q-6 84 -10 187t-6 222t-3 254t-1 296q-39 3 -77.5 9t-72.5 15v137h504v-137zM592 -414q57 35 77.5 67t20.5 60q0 15 -3.5 24.5t-7.5 18t-7.5 18t-3.5 23.5q0 42 28 73.5t80 31.5q53 0 83 -36.5t30 -88.5q0 -33 -13 -69 t-43 -71.5t-78 -69t-118 -61.5z" />
<glyph unicode="&#x146;" horiz-adv-x="1288" d="M862 0v653q0 50 -7.5 87t-25 63t-46.5 39.5t-72 13.5q-55 0 -104 -27.5t-85.5 -78t-57 -118t-20.5 -145.5v-325q51 -4 93 -12t59 -13v-137h-539v135q20 5 66.5 14t101.5 13v686q-38 6 -83.5 11.5t-84.5 8.5v136q45 5 92 8.5t96 5.5t97.5 2t93.5 -2q0 -21 -1 -47t-3 -53.5 t-5 -54t-7 -46.5l4 -2q22 50 56 91t78 70.5t98.5 45.5t117.5 16q85 0 144.5 -25t95.5 -70t51.5 -104.5t15.5 -131.5v-545q56 -5 101 -13.5t63 -13.5v-135h-383zM489 -414q57 35 77.5 67t20.5 60q0 15 -3.5 24.5t-7.5 18t-7.5 18t-3.5 23.5q0 42 28 73.5t80 31.5 q53 0 83 -36.5t30 -88.5q0 -33 -13 -69t-43 -71.5t-78 -69t-118 -61.5z" />
<glyph unicode="&#x147;" horiz-adv-x="1556" d="M1505 1245q-39 -9 -72 -15t-65 -9v-1221h-301l-414 715q-33 56 -62 106.5t-58.5 103t-56.5 103.5t-48 96q6 -82 9.5 -184t5.5 -220.5t2.5 -251t0.5 -306.5q42 -3 82 -9.5t76 -15.5v-137h-551v135q43 10 89 17t89 10v1059q-44 3 -90.5 10t-87.5 16v135h482l411 -710 q28 -47 58.5 -100t60 -107t56.5 -105.5t50 -97.5q-6 84 -10 187t-6 222t-3 254t-1 296q-39 3 -77.5 9t-72.5 15v137h504v-137zM770 1475l-327 167l57 121l274 -118l279 118l53 -116z" />
<glyph unicode="&#x148;" horiz-adv-x="1288" d="M862 0v653q0 50 -7.5 87t-25 63t-46.5 39.5t-72 13.5q-55 0 -104 -27.5t-85.5 -78t-57 -118t-20.5 -145.5v-325q51 -4 93 -12t59 -13v-137h-539v135q20 5 66.5 14t101.5 13v686q-38 6 -83.5 11.5t-84.5 8.5v136q45 5 92 8.5t96 5.5t97.5 2t93.5 -2q0 -21 -1 -47t-3 -53.5 t-5 -54t-7 -46.5l4 -2q22 50 56 91t78 70.5t98.5 45.5t117.5 16q85 0 144.5 -25t95.5 -70t51.5 -104.5t15.5 -131.5v-545q56 -5 101 -13.5t63 -13.5v-135h-383zM646 1158l-295 270l89 104l208 -171l212 171l86 -101z" />
<glyph unicode="&#x14c;" horiz-adv-x="1442" d="M1364 711q0 -174 -52.5 -309.5t-143 -229.5t-211.5 -143.5t-257 -49.5q-155 0 -271.5 49t-194.5 139.5t-117 218.5t-39 286q0 173 52.5 309t142.5 230t211 143.5t257 49.5q155 0 271.5 -49.5t195 -140t117.5 -218.5t39 -285zM1129 681q0 118 -25.5 214.5t-76 165.5 t-127 107t-178.5 38q-87 0 -162 -33t-129.5 -96.5t-86 -157.5t-31.5 -216q0 -118 25.5 -215t76 -166t126.5 -106.5t179 -37.5q86 0 161 32.5t130 96t86.5 158t31.5 216.5zM430 1526v143h581v-143h-581z" />
<glyph unicode="&#x14d;" d="M1049 526q0 -116 -33 -215.5t-98 -174t-159.5 -115.5t-213.5 -41q-107 0 -193 31t-147.5 94.5t-94 160.5t-32.5 226q0 116 33 215.5t97.5 174t159.5 115.5t214 41q107 0 193 -31t147.5 -94.5t94 -160.5t32.5 -226zM823 510q0 82 -17.5 146.5t-51 108.5t-81 66.5 t-108.5 22.5q-59 0 -107.5 -22t-83 -65.5t-53 -109t-18.5 -149.5q0 -82 17.5 -146t51 -107.5t81 -66t108.5 -22.5q57 0 105 20.5t83 63t54.5 108t19.5 152.5zM304 1247v161h532v-161h-532z" />
<glyph unicode="&#x150;" horiz-adv-x="1442" d="M1364 711q0 -174 -52.5 -309.5t-143 -229.5t-211.5 -143.5t-257 -49.5q-155 0 -271.5 49t-194.5 139.5t-117 218.5t-39 286q0 173 52.5 309t142.5 230t211 143.5t257 49.5q155 0 271.5 -49.5t195 -140t117.5 -218.5t39 -285zM1129 681q0 118 -25.5 214.5t-76 165.5 t-127 107t-178.5 38q-87 0 -162 -33t-129.5 -96.5t-86 -157.5t-31.5 -216q0 -118 25.5 -215t76 -166t126.5 -106.5t179 -37.5q86 0 161 32.5t130 96t86.5 158t31.5 216.5zM934 1473l-99 94l281 272l121 -121zM561 1473l-104 94l243 282l129 -114z" />
<glyph unicode="&#x151;" d="M1049 526q0 -116 -33 -215.5t-98 -174t-159.5 -115.5t-213.5 -41q-107 0 -193 31t-147.5 94.5t-94 160.5t-32.5 226q0 116 33 215.5t97.5 174t159.5 115.5t214 41q107 0 193 -31t147.5 -94.5t94 -160.5t32.5 -226zM823 510q0 82 -17.5 146.5t-51 108.5t-81 66.5 t-108.5 22.5q-59 0 -107.5 -22t-83 -65.5t-53 -109t-18.5 -149.5q0 -82 17.5 -146t51 -107.5t81 -66t108.5 -22.5q57 0 105 20.5t83 63t54.5 108t19.5 152.5zM783 1159l-101 90l277 287l123 -117zM412 1159l-104 90l252 301l131 -110z" />
<glyph unicode="&#x152;" horiz-adv-x="1771" d="M924 0q-60 -10 -115 -15.5t-109 -5.5q-152 0 -269 48.5t-195.5 139.5t-118 218.5t-39.5 286.5q0 169 51 306t142.5 232t212 144.5t257.5 49.5q103 0 204 -22h697v-325h-161q-4 18 -11.5 60t-13.5 89h-328v-414h264q5 44 13.5 78.5t12.5 48.5h139v-417h-139 q-4 15 -12.5 49.5t-13.5 78.5h-264v-451h335q6 48 14 91.5t12 62.5h163v-333h-728zM907 1178q-47 14 -91.5 21t-94.5 7q-87 0 -161.5 -33t-130 -97.5t-86 -159t-30.5 -213.5t25.5 -216t76.5 -166t127.5 -106t177.5 -37q43 0 93 8t94 22v970z" />
<glyph unicode="&#x153;" horiz-adv-x="1778" d="M1690 614q0 -22 -1 -45t-2 -41.5t-2 -29.5t-1 -15h-649q-2 -84 15.5 -146t54 -102.5t92 -60.5t131.5 -20q75 0 150.5 13.5t152.5 39.5l26 -164q-85 -30 -176 -46.5t-179 -16.5q-75 0 -136.5 12.5t-109 36.5t-82 58.5t-59.5 78.5q-26 -41 -62.5 -75t-83.5 -59 t-103.5 -38.5t-121.5 -13.5q-107 0 -193 31t-147.5 94.5t-94 160t-32.5 225.5q0 116 33 215.5t98 174t160 115.5t214 41q60 0 112.5 -10.5t98 -32t83 -54.5t65.5 -78q24 39 57.5 71t76.5 55.5t94.5 36t109.5 12.5q106 0 184.5 -32.5t128.5 -90.5t74 -134.5t24 -165.5z M1470 634q1 57 -12 101.5t-39.5 75.5t-65 47t-87.5 16q-46 0 -85 -16t-69 -47.5t-49 -76t-26 -100.5h433zM823 509q0 82 -17.5 146.5t-51 108.5t-81 66.5t-108.5 22.5q-60 0 -108 -22t-82 -65.5t-52.5 -108t-18.5 -148.5q0 -83 17 -147t50.5 -107.5t81 -65.5t108.5 -22 q57 0 105 20.5t83 62.5t54.5 107t19.5 152z" />
<glyph unicode="&#x154;" horiz-adv-x="1260" d="M899 0l-346 598h-100v-436q37 -3 72.5 -9.5t68.5 -15.5v-137h-541v135q43 10 89 17t89 10v1059q-44 3 -90.5 10t-87.5 16v135h160q12 0 34 0.5t68.5 2t75.5 2.5t68.5 2t80 1.5t76.5 0.5q117 0 208.5 -20.5t157 -65.5t100 -118t34.5 -175q0 -75 -24.5 -138t-70.5 -110 t-108.5 -78.5t-138.5 -46.5q20 -26 41.5 -56.5t40.5 -60.5l217 -358q37 -5 74 -11t74 -14v-139h-322zM883 993q0 59 -18 100.5t-54.5 68.5t-92 39.5t-132.5 12.5q-14 0 -32 -0.5t-37 -1t-36 -2t-28 -2.5v-444h145q68 0 121.5 15.5t90 45t55 72t18.5 96.5zM455 1477l-39 122 l395 152l57 -162z" />
<glyph unicode="&#x155;" horiz-adv-x="819" d="M779 822q-95 15 -155 -5.5t-99.5 -72.5t-59.5 -134.5t-21 -196.5v-251q46 -4 88 -10.5t82 -16.5v-135h-557v135q40 10 80.5 17t87.5 10v686q-37 6 -80 11.5t-88 8.5v135q43 5 86 9t93.5 6t100.5 2t96 -1q0 -45 -4.5 -108t-14.5 -122l5 -2q15 52 43.5 104t70 87.5 t102 50.5t149.5 7zM461 1155l-102 105l282 288l127 -129z" />
<glyph unicode="&#x156;" horiz-adv-x="1260" d="M899 0l-346 598h-100v-436q37 -3 72.5 -9.5t68.5 -15.5v-137h-541v135q43 10 89 17t89 10v1059q-44 3 -90.5 10t-87.5 16v135h160q12 0 34 0.5t68.5 2t75.5 2.5t68.5 2t80 1.5t76.5 0.5q117 0 208.5 -20.5t157 -65.5t100 -118t34.5 -175q0 -75 -24.5 -138t-70.5 -110 t-108.5 -78.5t-138.5 -46.5q20 -26 41.5 -56.5t40.5 -60.5l217 -358q37 -5 74 -11t74 -14v-139h-322zM883 993q0 59 -18 100.5t-54.5 68.5t-92 39.5t-132.5 12.5q-14 0 -32 -0.5t-37 -1t-36 -2t-28 -2.5v-444h145q68 0 121.5 15.5t90 45t55 72t18.5 96.5zM442 -414 q57 35 77.5 67t20.5 60q0 15 -3.5 24.5t-7.5 18t-7.5 18t-3.5 23.5q0 42 28 73.5t80 31.5q53 0 83 -36.5t30 -88.5q0 -33 -13 -69t-43 -71.5t-78 -69t-118 -61.5z" />
<glyph unicode="&#x157;" horiz-adv-x="819" d="M779 822q-95 15 -155 -5.5t-99.5 -72.5t-59.5 -134.5t-21 -196.5v-251q46 -4 88 -10.5t82 -16.5v-135h-557v135q40 10 80.5 17t87.5 10v686q-37 6 -80 11.5t-88 8.5v135q43 5 86 9t93.5 6t100.5 2t96 -1q0 -45 -4.5 -108t-14.5 -122l5 -2q15 52 43.5 104t70 87.5 t102 50.5t149.5 7zM170 -414q57 35 77.5 67t20.5 60q0 15 -3.5 24.5t-7.5 18t-7.5 18t-3.5 23.5q0 42 28 73.5t80 31.5q53 0 83 -36.5t30 -88.5q0 -33 -13 -69t-43 -71.5t-78 -69t-118 -61.5z" />
<glyph unicode="&#x158;" horiz-adv-x="1260" d="M899 0l-346 598h-100v-436q37 -3 72.5 -9.5t68.5 -15.5v-137h-541v135q43 10 89 17t89 10v1059q-44 3 -90.5 10t-87.5 16v135h160q12 0 34 0.5t68.5 2t75.5 2.5t68.5 2t80 1.5t76.5 0.5q117 0 208.5 -20.5t157 -65.5t100 -118t34.5 -175q0 -75 -24.5 -138t-70.5 -110 t-108.5 -78.5t-138.5 -46.5q20 -26 41.5 -56.5t40.5 -60.5l217 -358q37 -5 74 -11t74 -14v-139h-322zM883 993q0 59 -18 100.5t-54.5 68.5t-92 39.5t-132.5 12.5q-14 0 -32 -0.5t-37 -1t-36 -2t-28 -2.5v-444h145q68 0 121.5 15.5t90 45t55 72t18.5 96.5zM587 1475l-327 167 l57 121l274 -118l279 118l53 -116z" />
<glyph unicode="&#x159;" horiz-adv-x="819" d="M779 822q-95 15 -155 -5.5t-99.5 -72.5t-59.5 -134.5t-21 -196.5v-251q46 -4 88 -10.5t82 -16.5v-135h-557v135q40 10 80.5 17t87.5 10v686q-37 6 -80 11.5t-88 8.5v135q43 5 86 9t93.5 6t100.5 2t96 -1q0 -45 -4.5 -108t-14.5 -122l5 -2q15 52 43.5 104t70 87.5 t102 50.5t149.5 7zM480 1158l-295 270l89 104l208 -171l212 171l86 -101z" />
<glyph unicode="&#x15a;" horiz-adv-x="1053" d="M965 387q0 -92 -34 -167t-99 -129t-158 -82.5t-209 -28.5t-213 13t-139 21v348h163q5 -22 13.5 -71.5t13.5 -104.5q22 -6 72.5 -15t111.5 -9q57 0 102 13t76 39t47.5 64t16.5 87q0 52 -25.5 91t-68 67.5t-107 57.5t-125.5 56t-114.5 58.5t-97 75.5t-69.5 106t-26 143 q0 86 33.5 157t97.5 121.5t156 77.5t207 27q94 0 176.5 -11t118.5 -18v-334h-162q-4 22 -11.5 70t-11.5 102q-16 3 -52.5 8t-80.5 5q-56 0 -100 -12t-74.5 -35.5t-46.5 -57.5t-16 -78q0 -51 25.5 -89.5t68.5 -66.5t106 -56t125.5 -56t116 -59.5t97.5 -76t70 -107t26 -144.5z M443 1477l-39 122l395 152l57 -162z" />
<glyph unicode="&#x15b;" horiz-adv-x="901" d="M819 287q0 -70 -27 -126.5t-81 -97t-133.5 -62t-182.5 -21.5q-55 0 -107.5 4t-93 9t-63 9t-31.5 6v295h140q4 -17 11 -57.5t11 -87.5q17 -5 58.5 -12t93.5 -7q43 0 76.5 8.5t57 24.5t36 40.5t12.5 55.5q0 36 -20.5 63t-54.5 46.5t-81 38.5t-100 40t-95.5 44.5t-78 57.5 t-56 81.5t-20.5 110.5q0 65 27 118t80.5 91t132 58.5t178.5 20.5q79 0 150 -9.5t102 -16.5v-287h-135q-4 18 -12 58.5t-13 88.5q-13 3 -43 7t-68 4q-87 0 -133.5 -29.5t-46.5 -87.5q0 -36 20.5 -63t54.5 -46.5t81.5 -38t101 -39t97 -44t78.5 -57t56 -81t21 -110.5zM420 1155 l-102 105l282 288l127 -129z" />
<glyph unicode="&#x15e;" horiz-adv-x="1053" d="M965 387q0 -92 -34 -167t-99 -129t-158 -82.5t-209 -28.5t-213 13t-139 21v348h163q5 -22 13.5 -71.5t13.5 -104.5q22 -6 72.5 -15t111.5 -9q57 0 102 13t76 39t47.5 64t16.5 87q0 52 -25.5 91t-68 67.5t-107 57.5t-125.5 56t-114.5 58.5t-97 75.5t-69.5 106t-26 143 q0 86 33.5 157t97.5 121.5t156 77.5t207 27q94 0 176.5 -11t118.5 -18v-334h-162q-4 22 -11.5 70t-11.5 102q-16 3 -52.5 8t-80.5 5q-56 0 -100 -12t-74.5 -35.5t-46.5 -57.5t-16 -78q0 -51 25.5 -89.5t68.5 -66.5t106 -56t125.5 -56t116 -59.5t97.5 -76t70 -107t26 -144.5z M574 -82q38 -52 53 -103t8 -100.5t-33 -98t-71 -97.5h-170q41 50 63.5 91t27 80t-10.5 79.5t-52 85.5z" />
<glyph unicode="&#x15f;" horiz-adv-x="901" d="M819 287q0 -70 -27 -126.5t-81 -97t-133.5 -62t-182.5 -21.5q-55 0 -107.5 4t-93 9t-63 9t-31.5 6v295h140q4 -17 11 -57.5t11 -87.5q17 -5 58.5 -12t93.5 -7q43 0 76.5 8.5t57 24.5t36 40.5t12.5 55.5q0 36 -20.5 63t-54.5 46.5t-81 38.5t-100 40t-95.5 44.5t-78 57.5 t-56 81.5t-20.5 110.5q0 65 27 118t80.5 91t132 58.5t178.5 20.5q79 0 150 -9.5t102 -16.5v-287h-135q-4 18 -12 58.5t-13 88.5q-13 3 -43 7t-68 4q-87 0 -133.5 -29.5t-46.5 -87.5q0 -36 20.5 -63t54.5 -46.5t81.5 -38t101 -39t97 -44t78.5 -57t56 -81t21 -110.5zM502 -82 q38 -52 53 -103t8 -100.5t-33 -98t-71 -97.5h-170q41 50 63.5 91t27 80t-10.5 79.5t-52 85.5z" />
<glyph unicode="&#x160;" horiz-adv-x="1053" d="M965 387q0 -92 -34 -167t-99 -129t-158 -82.5t-209 -28.5t-213 13t-139 21v348h163q5 -22 13.5 -71.5t13.5 -104.5q22 -6 72.5 -15t111.5 -9q57 0 102 13t76 39t47.5 64t16.5 87q0 52 -25.5 91t-68 67.5t-107 57.5t-125.5 56t-114.5 58.5t-97 75.5t-69.5 106t-26 143 q0 86 33.5 157t97.5 121.5t156 77.5t207 27q94 0 176.5 -11t118.5 -18v-334h-162q-4 22 -11.5 70t-11.5 102q-16 3 -52.5 8t-80.5 5q-56 0 -100 -12t-74.5 -35.5t-46.5 -57.5t-16 -78q0 -51 25.5 -89.5t68.5 -66.5t106 -56t125.5 -56t116 -59.5t97.5 -76t70 -107t26 -144.5z M526 1475l-327 167l57 121l274 -118l279 118l53 -116z" />
<glyph unicode="&#x161;" horiz-adv-x="903" d="M819 287q0 -70 -27 -126.5t-81 -97t-133.5 -62t-182.5 -21.5q-55 0 -107.5 4t-93 9t-63 9t-31.5 6v295h140q4 -17 11 -57.5t11 -87.5q17 -5 58.5 -12t93.5 -7q43 0 76.5 8.5t57 24.5t36 40.5t12.5 55.5q0 36 -20.5 63t-54.5 46.5t-81 38.5t-100 40t-95.5 44.5t-78 57.5 t-56 81.5t-20.5 110.5q0 65 27 118t80.5 91t132 58.5t178.5 20.5q79 0 150 -9.5t102 -16.5v-287h-135q-4 18 -12 58.5t-13 88.5q-13 3 -43 7t-68 4q-87 0 -133.5 -29.5t-46.5 -87.5q0 -36 20.5 -63t54.5 -46.5t81.5 -38t101 -39t97 -44t78.5 -57t56 -81t21 -110.5zM451 1158 l-295 270l89 104l208 -171l212 171l86 -101z" />
<glyph unicode="&#x162;" horiz-adv-x="1174" d="M977 1018q-11 63 -19 107t-10 75h-250v-1038q44 -3 89 -10t90 -17v-135h-580v135q43 10 89 17t89 10v1038h-252q-3 -34 -8.5 -72.5t-17.5 -109.5h-160v364h1100v-364h-160zM654 -82q38 -52 53 -103t8 -100.5t-33 -98t-71 -97.5h-170q41 50 63.5 91t27 80t-10.5 79.5 t-52 85.5z" />
<glyph unicode="&#x163;" horiz-adv-x="764" d="M698 6q-47 -11 -105 -17.5t-108 -6.5q-82 0 -136 17t-86 53.5t-46 94.5t-14 146v555h-195v170h195v323l219 60v-383h266v-170h-266v-488q0 -58 6.5 -94.5t21.5 -58t40.5 -30.5t64.5 -9q32 0 63.5 4t61.5 10zM514 -82q38 -52 53 -103t8 -100.5t-33 -98t-71 -97.5h-170 q41 50 63.5 91t27 80t-10.5 79.5t-52 85.5z" />
<glyph unicode="&#x164;" horiz-adv-x="1174" d="M977 1018q-11 63 -19 107t-10 75h-250v-1038q44 -3 89 -10t90 -17v-135h-580v135q43 10 89 17t89 10v1038h-252q-3 -34 -8.5 -72.5t-17.5 -109.5h-160v364h1100v-364h-160zM581 1475l-327 167l57 121l274 -118l279 118l53 -116z" />
<glyph unicode="&#x165;" horiz-adv-x="813" d="M698 6q-47 -11 -105 -17.5t-108 -6.5q-82 0 -136 17t-86 53.5t-46 94.5t-14 146v555h-195v170h195v323l219 60v-383h266v-170h-266v-488q0 -58 6.5 -94.5t21.5 -58t40.5 -30.5t64.5 -9q32 0 63.5 4t61.5 10zM670 1146l-142 35l108 392l178 -42z" />
<glyph unicode="&#x16a;" horiz-adv-x="1460" d="M1409 1245q-64 -15 -135 -24v-689q0 -135 -36 -238t-107 -173t-175.5 -105.5t-240.5 -35.5q-106 0 -187.5 18.5t-140 52.5t-97 80t-61 101t-32 115.5t-9.5 127.5v746q-77 10 -135 24v137h514v-137q-36 -9 -75.5 -15t-79.5 -9v-729q0 -75 14 -134t49 -103t97.5 -68.5 t156.5 -24.5q85 0 146 19.5t101 62t59.5 111t19.5 167.5v699q-41 3 -81.5 9t-74.5 15v137h510v-137zM441 1526v143h581v-143h-581z" />
<glyph unicode="&#x16b;" horiz-adv-x="1257" d="M1227 14q-41 -5 -88 -8.5t-97 -5.5t-99 -2t-93 2q0 22 1 47.5t2.5 52t4 53t6.5 48.5h-4q-22 -50 -56 -90.5t-79 -69.5t-99.5 -45t-117.5 -16q-84 0 -143.5 25t-95 69t-51 102.5t-15.5 128.5v543q-38 6 -82.5 11.5t-83.5 8.5v136q41 5 87 8.5t96 5.5t101 2t99 -2v-653 q0 -50 7.5 -87t25 -63t47.5 -39.5t73 -13.5q56 0 105 28t85.5 78.5t56.5 117.5t20 142v322q-49 7 -86 11t-72 7v136q42 5 88 9t94 5.5t97 1.5t96 -2v-848q38 -6 83.5 -11.5t86.5 -8.5v-136zM359 1247v161h532v-161h-532z" />
<glyph unicode="&#x16e;" horiz-adv-x="1460" d="M1409 1245q-64 -15 -135 -24v-689q0 -135 -36 -238t-107 -173t-175.5 -105.5t-240.5 -35.5q-106 0 -187.5 18.5t-140 52.5t-97 80t-61 101t-32 115.5t-9.5 127.5v746q-77 10 -135 24v137h514v-137q-36 -9 -75.5 -15t-79.5 -9v-729q0 -75 14 -134t49 -103t97.5 -68.5 t156.5 -24.5q85 0 146 19.5t101 62t59.5 111t19.5 167.5v699q-41 3 -81.5 9t-74.5 15v137h510v-137zM990 1688q0 -51 -19 -94t-55 -74.5t-84.5 -48.5t-106.5 -17t-103.5 13.5t-77 40.5t-48 68.5t-16.5 96.5q0 51 19 94t54 74.5t84 48.5t107 17t103.5 -13.5t77.5 -41 t48.5 -69t16.5 -95.5zM834 1679q0 28 -6.5 49.5t-19 35.5t-30.5 21t-42 7q-21 0 -40 -7t-33 -21t-22 -35t-8 -48q0 -28 6.5 -49t19 -35t31.5 -21t44 -7q21 0 39 7t32 21t21.5 34.5t7.5 47.5z" />
<glyph unicode="&#x16f;" horiz-adv-x="1257" d="M1227 14q-41 -5 -88 -8.5t-97 -5.5t-99 -2t-93 2q0 22 1 47.5t2.5 52t4 53t6.5 48.5h-4q-22 -50 -56 -90.5t-79 -69.5t-99.5 -45t-117.5 -16q-84 0 -143.5 25t-95 69t-51 102.5t-15.5 128.5v543q-38 6 -82.5 11.5t-83.5 8.5v136q41 5 87 8.5t96 5.5t101 2t99 -2v-653 q0 -50 7.5 -87t25 -63t47.5 -39.5t73 -13.5q56 0 105 28t85.5 78.5t56.5 117.5t20 142v322q-49 7 -86 11t-72 7v136q42 5 88 9t94 5.5t97 1.5t96 -2v-848q38 -6 83.5 -11.5t86.5 -8.5v-136zM868 1360q0 -52 -18.5 -96t-53 -77t-82.5 -51t-106 -18q-57 0 -102 14t-76 42.5 t-47 71t-16 97.5q0 53 19 97.5t54 77t83 50t106 17.5q57 0 101.5 -14t75 -42t46.5 -70.5t16 -98.5zM719 1352q0 29 -6.5 50.5t-19 35.5t-31 21t-43.5 7q-21 0 -39.5 -7t-32.5 -21t-21.5 -35t-7.5 -49q0 -30 6.5 -52t19 -36.5t30.5 -21.5t42 -7q21 0 40 7t33 21.5t22 36.5 t8 50z" />
<glyph unicode="&#x170;" horiz-adv-x="1460" d="M1409 1245q-64 -15 -135 -24v-689q0 -135 -36 -238t-107 -173t-175.5 -105.5t-240.5 -35.5q-106 0 -187.5 18.5t-140 52.5t-97 80t-61 101t-32 115.5t-9.5 127.5v746q-77 10 -135 24v137h514v-137q-36 -9 -75.5 -15t-79.5 -9v-729q0 -75 14 -134t49 -103t97.5 -68.5 t156.5 -24.5q85 0 146 19.5t101 62t59.5 111t19.5 167.5v699q-41 3 -81.5 9t-74.5 15v137h510v-137zM903 1473l-99 94l281 272l121 -121zM530 1473l-104 94l243 282l129 -114z" />
<glyph unicode="&#x171;" horiz-adv-x="1257" d="M1227 14q-41 -5 -88 -8.5t-97 -5.5t-99 -2t-93 2q0 22 1 47.5t2.5 52t4 53t6.5 48.5h-4q-22 -50 -56 -90.5t-79 -69.5t-99.5 -45t-117.5 -16q-84 0 -143.5 25t-95 69t-51 102.5t-15.5 128.5v543q-38 6 -82.5 11.5t-83.5 8.5v136q41 5 87 8.5t96 5.5t101 2t99 -2v-653 q0 -50 7.5 -87t25 -63t47.5 -39.5t73 -13.5q56 0 105 28t85.5 78.5t56.5 117.5t20 142v322q-49 7 -86 11t-72 7v136q42 5 88 9t94 5.5t97 1.5t96 -2v-848q38 -6 83.5 -11.5t86.5 -8.5v-136zM807 1159l-101 90l277 287l123 -117zM436 1159l-104 90l252 301l131 -110z" />
<glyph unicode="&#x172;" horiz-adv-x="1460" d="M1409 1245q-64 -15 -135 -24v-689q0 -135 -36 -238t-107 -173t-175.5 -105.5t-240.5 -35.5q-106 0 -187.5 18.5t-140 52.5t-97 80t-61 101t-32 115.5t-9.5 127.5v746q-77 10 -135 24v137h514v-137q-36 -9 -75.5 -15t-79.5 -9v-729q0 -75 14 -134t49 -103t97.5 -68.5 t156.5 -24.5q85 0 146 19.5t101 62t59.5 111t19.5 167.5v699q-41 3 -81.5 9t-74.5 15v137h510v-137zM993 -387q-27 -24 -56.5 -41.5t-60.5 -29.5t-64 -17.5t-67 -5.5q-54 0 -97.5 13t-74.5 38.5t-47 61.5t-16 81q0 41 11 80t33.5 77t55.5 74.5t78 71.5l213 -16 q-52 -34 -88 -66t-57 -62t-30.5 -58t-9.5 -56q0 -36 20.5 -55.5t57.5 -19.5q31 0 64 12.5t71 38.5z" />
<glyph unicode="&#x173;" horiz-adv-x="1257" d="M1221 14q-74 -5 -134 -27.5t-112 -74.5q-17 -17 -30.5 -36t-23 -39t-14 -40t-4.5 -39q0 -37 19.5 -56t56.5 -19q17 0 33.5 3.5t33 9.5t33.5 15.5t35 22.5l66 -121q-27 -24 -56.5 -41.5t-60.5 -29.5t-64 -17.5t-67 -5.5q-54 0 -98 13t-75 38.5t-47 61.5t-16 81 q0 41 11.5 80t34 77t56.5 74.5t79 71.5q-4 21 -7.5 43.5t-5.5 45.5t-2.5 44.5t0.5 40.5h-2q-25 -47 -59.5 -85t-79 -66t-99 -43.5t-116.5 -15.5q-84 0 -143.5 25t-95 69t-51 102.5t-15.5 128.5v543q-37 6 -83 11.5t-85 8.5v136q41 5 87.5 8.5t96.5 5.5t101.5 2t99.5 -2v-653 q0 -50 7.5 -87t25 -63t47.5 -39.5t73 -13.5q56 0 105 28t85.5 78.5t56.5 117.5t20 142v322q-49 7 -86 11t-72 7v136q40 5 86.5 9t95 5.5t98 1.5t95.5 -2v-633q0 -51 3.5 -106t8.5 -113q20 -3 39.5 -5.5t38 -4t35.5 -3t41 -3.5v-136z" />
<glyph unicode="&#x178;" horiz-adv-x="1233" d="M1219 1245q-25 -7 -57 -12t-60 -9l-377 -743v-320q46 -3 92 -10t86 -17v-134h-579v134q40 10 85.5 17t92.5 10v319l-371 744q-26 4 -59 9t-58 12v137h503v-137q-32 -8 -66.5 -13.5t-70.5 -8.5l148 -322q11 -26 23.5 -53.5t25 -56t24.5 -56t22 -53.5h2q10 27 22 56.5 t25 59.5t26.5 58.5t25.5 54.5l145 312q-37 3 -72 8.5t-67 13.5v137h489v-137v0zM963 1606q0 -25 -9.5 -47.5t-27 -39.5t-40.5 -26.5t-48 -9.5t-47.5 9.5t-39.5 26.5t-26.5 39.5t-9.5 47.5t9.5 48t26.5 40.5t39.5 27t47.5 9.5t48 -9.5t40.5 -27t27 -40.5t9.5 -48zM522 1606 q0 -25 -9.5 -47.5t-26.5 -39.5t-39 -26.5t-47 -9.5q-26 0 -49 9.5t-40 26.5t-26.5 39.5t-9.5 47.5t9.5 48t26.5 40.5t40 27t49 9.5q25 0 47 -9.5t39 -27t26.5 -40.5t9.5 -48z" />
<glyph unicode="&#x179;" horiz-adv-x="1110" d="M86 0v170l573 879q34 52 56 84t47 65q-50 -2 -111.5 -3t-134.5 -1h-225q-3 -37 -9.5 -79t-15.5 -87h-164v354h918v-176l-602 -907q-19 -29 -36.5 -55.5t-37.5 -55.5q14 2 39 3t58.5 1.5t71 0.5h101.5h228q5 46 11.5 88t16.5 86h158v-367h-942zM455 1477l-39 122l395 152 l57 -162z" />
<glyph unicode="&#x17a;" horiz-adv-x="930" d="M84 0v160l501 694q-19 -1 -44.5 -1.5t-55 -1t-60.5 -1t-61 -0.5h-108q-4 -36 -9.5 -69t-13.5 -71h-139v308h734v-160l-493 -683q19 1 45.5 1.5t56.5 1t61 0.5h59h120q5 34 10 70t14 74h139v-322h-756zM432 1155l-102 105l282 288l127 -129z" />
<glyph unicode="&#x17b;" horiz-adv-x="1110" d="M86 0v170l573 879q34 52 56 84t47 65q-50 -2 -111.5 -3t-134.5 -1h-225q-3 -37 -9.5 -79t-15.5 -87h-164v354h918v-176l-602 -907q-19 -29 -36.5 -55.5t-37.5 -55.5q14 2 39 3t58.5 1.5t71 0.5h101.5h228q5 46 11.5 88t16.5 86h158v-367h-942zM696 1616q0 -27 -10.5 -52 t-29 -43.5t-43 -29t-52.5 -10.5q-27 0 -52 10.5t-43.5 29t-29 43t-10.5 52.5t10.5 52.5t29 43t43.5 29t52 10.5q28 0 52.5 -10t43.5 -29t29 -43.5t10 -52.5z" />
<glyph unicode="&#x17c;" horiz-adv-x="930" d="M84 0v160l501 694q-19 -1 -44.5 -1.5t-55 -1t-60.5 -1t-61 -0.5h-108q-4 -36 -9.5 -69t-13.5 -71h-139v308h734v-160l-493 -683q19 1 45.5 1.5t56.5 1t61 0.5h59h120q5 34 10 70t14 74h139v-322h-756zM600 1333q0 -28 -10 -52.5t-29 -43.5t-43.5 -29t-52.5 -10 q-27 0 -52 10.5t-43.5 29t-29 43t-10.5 52.5q0 27 10.5 52t29.5 43.5t43.5 29t51.5 10.5q28 0 52.5 -10t43.5 -29t29 -43.5t10 -52.5z" />
<glyph unicode="&#x17d;" horiz-adv-x="1110" d="M86 0v170l573 879q34 52 56 84t47 65q-50 -2 -111.5 -3t-134.5 -1h-225q-3 -37 -9.5 -79t-15.5 -87h-164v354h918v-176l-602 -907q-19 -29 -36.5 -55.5t-37.5 -55.5q14 2 39 3t58.5 1.5t71 0.5h101.5h228q5 46 11.5 88t16.5 86h158v-367h-942zM567 1475l-327 167l57 121 l274 -118l279 118l53 -116z" />
<glyph unicode="&#x17e;" horiz-adv-x="930" d="M84 0v160l501 694q-19 -1 -44.5 -1.5t-55 -1t-60.5 -1t-61 -0.5h-108q-4 -36 -9.5 -69t-13.5 -71h-139v308h734v-160l-493 -683q19 1 45.5 1.5t56.5 1t61 0.5h59h120q5 34 10 70t14 74h139v-322h-756zM457 1158l-295 270l89 104l208 -171l212 171l86 -101z" />
<glyph unicode="&#x192;" horiz-adv-x="903" d="M438 205q-17 -159 -50 -263t-84.5 -164.5t-124.5 -86t-177 -25.5q-36 0 -76.5 6t-75.5 17l35 186q40 -12 73.5 -19.5t66.5 -7.5q46 0 77.5 14.5t52.5 49t35.5 93t24.5 149.5l51 528h-237v170h256l24 233q11 106 39.5 185.5t78 133.5t123 81.5t173.5 27.5q34 0 73 -3.5 t74 -10.5l-26 -180q-14 4 -31 7t-35 5t-35.5 3t-33.5 1q-40 0 -70.5 -12.5t-53 -40t-37 -71.5t-20.5 -107l-26 -252h315v-170h-330z" />
<glyph unicode="&#x218;" horiz-adv-x="1053" d="M965 387q0 -92 -34 -167t-99 -129t-158 -82.5t-209 -28.5t-213 13t-139 21v348h163q5 -22 13.5 -71.5t13.5 -104.5q22 -6 72.5 -15t111.5 -9q57 0 102 13t76 39t47.5 64t16.5 87q0 52 -25.5 91t-68 67.5t-107 57.5t-125.5 56t-114.5 58.5t-97 75.5t-69.5 106t-26 143 q0 86 33.5 157t97.5 121.5t156 77.5t207 27q94 0 176.5 -11t118.5 -18v-334h-162q-4 22 -11.5 70t-11.5 102q-16 3 -52.5 8t-80.5 5q-56 0 -100 -12t-74.5 -35.5t-46.5 -57.5t-16 -78q0 -51 25.5 -89.5t68.5 -66.5t106 -56t125.5 -56t116 -59.5t97.5 -76t70 -107t26 -144.5z M326 -414q57 35 77.5 67t20.5 60q0 15 -3.5 24.5t-7.5 18t-7.5 18t-3.5 23.5q0 42 28 73.5t80 31.5q53 0 83 -36.5t30 -88.5q0 -33 -13 -69t-43 -71.5t-78 -69t-118 -61.5z" />
<glyph unicode="&#x219;" horiz-adv-x="901" d="M819 287q0 -70 -27 -126.5t-81 -97t-133.5 -62t-182.5 -21.5q-55 0 -107.5 4t-93 9t-63 9t-31.5 6v295h140q4 -17 11 -57.5t11 -87.5q17 -5 58.5 -12t93.5 -7q43 0 76.5 8.5t57 24.5t36 40.5t12.5 55.5q0 36 -20.5 63t-54.5 46.5t-81 38.5t-100 40t-95.5 44.5t-78 57.5 t-56 81.5t-20.5 110.5q0 65 27 118t80.5 91t132 58.5t178.5 20.5q79 0 150 -9.5t102 -16.5v-287h-135q-4 18 -12 58.5t-13 88.5q-13 3 -43 7t-68 4q-87 0 -133.5 -29.5t-46.5 -87.5q0 -36 20.5 -63t54.5 -46.5t81.5 -38t101 -39t97 -44t78.5 -57t56 -81t21 -110.5zM260 -414 q57 35 77.5 67t20.5 60q0 15 -3.5 24.5t-7.5 18t-7.5 18t-3.5 23.5q0 42 28 73.5t80 31.5q53 0 83 -36.5t30 -88.5q0 -33 -13 -69t-43 -71.5t-78 -69t-118 -61.5z" />
<glyph unicode="&#x21a;" horiz-adv-x="1174" d="M977 1018q-11 63 -19 107t-10 75h-250v-1038q44 -3 89 -10t90 -17v-135h-580v135q43 10 89 17t89 10v1038h-252q-3 -34 -8.5 -72.5t-17.5 -109.5h-160v364h1100v-364h-160zM399 -414q57 35 77.5 67t20.5 60q0 15 -3.5 24.5t-7.5 18t-7.5 18t-3.5 23.5q0 42 28 73.5 t80 31.5q53 0 83 -36.5t30 -88.5q0 -33 -13 -69t-43 -71.5t-78 -69t-118 -61.5z" />
<glyph unicode="&#x21b;" horiz-adv-x="764" d="M698 6q-47 -11 -105 -17.5t-108 -6.5q-82 0 -136 17t-86 53.5t-46 94.5t-14 146v555h-195v170h195v323l219 60v-383h266v-170h-266v-488q0 -58 6.5 -94.5t21.5 -58t40.5 -30.5t64.5 -9q32 0 63.5 4t61.5 10zM264 -414q57 35 77.5 67t20.5 60q0 15 -3.5 24.5t-7.5 18 t-7.5 18t-3.5 23.5q0 42 28 73.5t80 31.5q53 0 83 -36.5t30 -88.5q0 -33 -13 -69t-43 -71.5t-78 -69t-118 -61.5z" />
<glyph unicode="&#x2c6;" horiz-adv-x="903" d="M659 1159l-208 170l-211 -170l-86 101l301 272l295 -270z" />
<glyph unicode="&#x2c7;" horiz-adv-x="903" d="M449 1158l-295 270l89 104l208 -171l212 171l86 -101z" />
<glyph unicode="&#x2d8;" horiz-adv-x="840" d="M686 1473q0 -59 -16 -112t-48.5 -93.5t-84 -64t-119.5 -23.5q-69 0 -120 23.5t-82.5 64.5t-46.5 93.5t-15 111.5h143q0 -29 8 -53.5t23.5 -42.5t38.5 -28t53 -10q56 0 88.5 35t32.5 99h145z" />
<glyph unicode="&#x2d9;" horiz-adv-x="578" d="M424 1333q0 -28 -10 -52.5t-29 -43.5t-43.5 -29t-52.5 -10q-27 0 -52 10.5t-43.5 29t-29 43t-10.5 52.5q0 27 10.5 52t29.5 43.5t43.5 29t51.5 10.5q28 0 52.5 -10t43.5 -29t29 -43.5t10 -52.5z" />
<glyph unicode="&#x2da;" horiz-adv-x="809" d="M655 1360q0 -52 -18.5 -96t-53 -77t-82.5 -51t-106 -18q-57 0 -102 14t-76 42.5t-47 71t-16 97.5q0 53 19 97.5t54 77t83 50t106 17.5q57 0 101.5 -14t75 -42t46.5 -70.5t16 -98.5zM506 1352q0 29 -6.5 50.5t-19 35.5t-31 21t-43.5 7q-21 0 -39.5 -7t-32.5 -21t-21.5 -35 t-7.5 -49q0 -30 6.5 -52t19 -36.5t30.5 -21.5t42 -7q21 0 40 7t33 21.5t22 36.5t8 50z" />
<glyph unicode="&#x2db;" horiz-adv-x="791" d="M637 -387q-27 -24 -56.5 -41.5t-60.5 -29.5t-64 -17.5t-67 -5.5q-54 0 -97.5 13t-74.5 38.5t-47 61.5t-16 81q0 41 11 80t33.5 77t55.5 74.5t78 71.5l213 -16q-52 -34 -88 -66t-57 -62t-30.5 -58t-9.5 -56q0 -36 20.5 -55.5t57.5 -19.5q31 0 64 12.5t71 38.5z" />
<glyph unicode="&#x2dc;" horiz-adv-x="1024" d="M870 1370q-41 -83 -100.5 -126t-133.5 -43q-45 0 -79 14t-74 42.5t-59 39.5t-46 11q-34 0 -62.5 -23.5t-55.5 -70.5l-106 83q42 83 101.5 126.5t132.5 43.5q46 0 80 -14.5t73.5 -43t58.5 -39.5t46 -11q34 0 62.5 23t55.5 71z" />
<glyph unicode="&#x2dd;" horiz-adv-x="1081" d="M629 1159l-101 90l277 287l123 -117zM258 1159l-104 90l252 301l131 -110z" />
<glyph unicode="&#x312;" horiz-adv-x="0" d="M-406 1468q-58 -34 -78 -65.5t-20 -59.5q0 -15 3.5 -25t7 -18.5t7 -18t3.5 -24.5q0 -46 -30 -74t-77 -28q-49 0 -80.5 35.5t-31.5 91.5q0 31 12.5 66.5t41.5 71.5t77.5 69.5t119.5 60.5z" />
<glyph unicode="&#x315;" horiz-adv-x="95" d="M60 1146l-142 35l108 392l178 -42z" />
<glyph unicode="&#x326;" horiz-adv-x="0" d="M-766 -414q57 35 77.5 67t20.5 60q0 15 -3.5 24.5t-7.5 18t-7.5 18t-3.5 23.5q0 42 28 73.5t80 31.5q53 0 83 -36.5t30 -88.5q0 -33 -13 -69t-43 -71.5t-78 -69t-118 -61.5z" />
<glyph unicode="&#x394;" horiz-adv-x="1251" d="M57 0v166l428 1216h273l436 -1216v-166h-1137zM662 997q-15 45 -26.5 87.5t-21.5 91.5h-2q-11 -50 -23 -96t-26 -89l-274 -792h651z" />
<glyph unicode="&#x3a9;" horiz-adv-x="1440" d="M76 328h135q11 -49 19 -88.5t12 -73.5h207v125q-69 24 -134 65.5t-119 104.5t-87 150t-33 196q0 80 18 154.5t54.5 141t91 121.5t128 95t166 62t201.5 22q147 0 265 -43.5t199 -122t123 -184t42 -228.5q0 -75 -17 -142t-46.5 -122.5t-67.5 -100t-80 -78t-83.5 -56.5 t-78.5 -35v-125h207q4 32 13 75t20 87h133v-328h-541v373q59 20 113.5 57t98 90.5t68.5 123t25 151.5q0 94 -28 170.5t-81.5 131.5t-129.5 84t-170 29q-101 0 -178.5 -32.5t-128.5 -89.5t-76 -131t-25 -156q0 -86 24.5 -156t67 -122.5t97 -89.5t118.5 -60v-373h-542v328z " />
<glyph unicode="&#x3bc;" horiz-adv-x="1243" d="M205 848q-38 6 -84 11.5t-86 8.5v136q41 5 88 8.5t97.5 5.5t102.5 2t101 -2v-666q0 -97 36.5 -143.5t114.5 -46.5q58 0 107 26.5t85 76t55.5 118t19.5 149.5v318q-49 7 -86 11t-72 7v136q41 5 87 9t95 5.5t98 1.5t95 -2v-660q0 -55 4 -91.5t13 -58.5t25 -32t40 -10 q5 0 14.5 1.5t13.5 2.5l19 -172q-21 -7 -52 -10.5t-69 -3.5q-52 0 -90 15.5t-61.5 44t-34 67.5t-9.5 86l-2 2q-20 -49 -50 -88.5t-69.5 -68t-89 -43.5t-106.5 -15q-50 0 -89.5 15.5t-62.5 45.5l25 -545h-223v1348z" />
<glyph unicode="&#x3c0;" horiz-adv-x="1301" d="M1014 838q-3 -35 -3.5 -70t-1 -68.5t0 -65t2.5 -58.5q2 -46 4.5 -83t6 -67.5t7.5 -56.5t9 -49q8 -39 17 -68t21 -48t27.5 -28.5t36.5 -9.5t42.5 2.5t39.5 8.5l21 -177q-27 -8 -64.5 -12.5t-78.5 -4.5q-61 0 -106 14t-78.5 47t-56 86.5t-37.5 130.5q-5 28 -9.5 59.5 t-8.5 67t-7 75.5t-4 87q-2 31 -2 65.5v71.5t1.5 75.5t2.5 75.5h-321q4 -71 5 -143t-6 -145q-12 -144 -38.5 -286t-71.5 -283l-237 38q24 70 44.5 136.5t36.5 132t28 130.5t20 132q5 34 8.5 70t4.5 72.5t1 73.5t-3 72h-227v180h1202v-180h-228z" />
<glyph unicode="&#x2013;" d="M0 514v190h1126v-190h-1126z" />
<glyph unicode="&#x2014;" horiz-adv-x="2048" d="M235 514v190h1578v-190h-1578z" />
<glyph unicode="&#x2018;" horiz-adv-x="520" d="M440 1459q-50 -54 -77.5 -98.5t-36.5 -82t-0.5 -67.5t28.5 -56q25 -30 28.5 -67t-11 -69.5t-45.5 -54t-75 -21.5q-43 0 -76 22.5t-51 63.5t-17.5 97t25 122.5t77 141t139.5 151.5l92 -82v0z" />
<glyph unicode="&#x2019;" horiz-adv-x="520" d="M267 1525q42 0 75.5 -22.5t51 -63.5t17.5 -97t-25 -122.5t-78 -140.5t-139 -151l-92 81q50 55 77.5 99.5t36.5 81.5t1 67.5t-29 55.5q-17 20 -24 43.5t-5.5 47.5t11.5 45.5t27 38.5t41 27t54 10z" />
<glyph unicode="&#x201a;" horiz-adv-x="520" d="M267 265q42 0 75.5 -23t51 -64t17.5 -96.5t-25 -122t-78 -141t-139 -151.5l-92 82q51 54 78 99t36 82t1 67t-29 55q-16 20 -23.5 43.5t-6 47t12 46t27 39.5t40.5 27t54 10z" />
<glyph unicode="&#x201c;" horiz-adv-x="934" d="M855 1459q-50 -54 -77.5 -98.5t-36 -82t-0.5 -67.5t28 -56q17 -20 24 -43t5.5 -47t-11.5 -46t-27 -39t-40.5 -27t-53.5 -10q-42 0 -75.5 22.5t-51.5 63.5t-17.5 97t25 122.5t77.5 141t139 151.5zM440 1459q-50 -54 -77.5 -98.5t-36.5 -82t-0.5 -67.5t28.5 -56 q25 -30 28.5 -67t-11 -69.5t-45.5 -54t-75 -21.5q-43 0 -76 22.5t-51 63.5t-17.5 97t25 122.5t77 141t139.5 151.5z" />
<glyph unicode="&#x201d;" horiz-adv-x="934" d="M681 1525q43 0 76.5 -22.5t51.5 -63.5t17.5 -97t-25.5 -122.5t-78 -140.5t-139 -151l-92 81q51 55 78.5 99.5t36 81.5t0.5 67.5t-29 55.5q-16 20 -23 43.5t-5.5 47.5t11.5 45.5t26.5 38.5t40.5 27t53 10zM267 1525q42 0 75.5 -22.5t51 -63.5t17.5 -97t-25 -122.5 t-78 -140.5t-139 -151l-92 81q50 55 77.5 99.5t36.5 81.5t1 67.5t-29 55.5q-17 20 -24 43.5t-5.5 47.5t11.5 45.5t27 38.5t41 27t54 10z" />
<glyph unicode="&#x201e;" horiz-adv-x="934" d="M681 265q43 0 76.5 -23t51.5 -64t17.5 -96.5t-25.5 -122t-78 -141t-139 -151.5l-92 82q51 54 78.5 99t36 82t0.5 67t-29 55q-16 20 -23 43.5t-5.5 47t11.5 46t26.5 39.5t40.5 27t53 10zM267 265q42 0 75.5 -23t51 -64t17.5 -96.5t-25 -122t-78 -141t-139 -151.5l-92 82 q50 54 77.5 99t36.5 82t1 67t-29 55q-17 20 -24 43.5t-5.5 47t11.5 46t27 39.5t41 27t54 10z" />
<glyph unicode="&#x2020;" horiz-adv-x="926" d="M552 1119l38 -191l-42 -518h-168l-44 518l39 191h-282v170h282l-39 279h254l-38 -279h281v-170h-281z" />
<glyph unicode="&#x2021;" horiz-adv-x="926" d="M554 597l38 -259h-257l38 259h-280v170h280l-37 186l37 187h-280v170h280l-37 258h254l-36 -258h279v-170h-279l36 -187l-36 -186h279v-170h-279z" />
<glyph unicode="&#x2022;" horiz-adv-x="862" d="M704 608q0 -56 -21.5 -105.5t-58.5 -86.5t-86.5 -58.5t-106.5 -21.5q-56 0 -105.5 21.5t-86.5 58.5t-58.5 86.5t-21.5 105.5t21.5 105.5t58.5 87t86.5 59t105.5 21.5q57 0 106.5 -21.5t86.5 -59t58.5 -87t21.5 -105.5z" />
<glyph unicode="&#x2026;" horiz-adv-x="1415" d="M1296 120q0 -29 -11 -54.5t-30 -44.5t-44.5 -30t-54.5 -11q-28 0 -53.5 11t-44.5 30t-30 44.5t-11 54.5q0 28 11 53.5t30 44.5t44.5 30.5t53.5 11.5q29 0 54.5 -11.5t44.5 -30.5t30 -44.5t11 -53.5zM839 120q0 -29 -11.5 -54.5t-30.5 -44.5t-44 -30t-54 -11t-54.5 11 t-44.5 30t-30 44.5t-11 54.5q0 28 11 53.5t30 44.5t44.5 30.5t54.5 11.5t54 -11.5t44 -30.5t30.5 -44.5t11.5 -53.5zM382 120q0 -29 -11 -54.5t-30 -44.5t-44.5 -30t-54.5 -11q-28 0 -53.5 11t-44.5 30t-30.5 44.5t-11.5 54.5q0 28 11.5 53.5t30.5 44.5t44.5 30.5t53.5 11.5 q29 0 54.5 -11.5t44.5 -30.5t30 -44.5t11 -53.5z" />
<glyph unicode="&#x2030;" horiz-adv-x="2198" d="M698 1092q0 -83 -25.5 -150t-69 -113.5t-102 -71t-124.5 -24.5q-67 0 -121.5 20t-93.5 61t-60 103t-21 147q0 83 25.5 148.5t69.5 111.5t101 70.5t120 24.5q65 0 120 -18.5t95.5 -57.5t63 -101t22.5 -150zM516 1079q0 49 -6.5 84.5t-21.5 58t-39 33t-58 10.5 q-29 0 -52.5 -13.5t-40 -38t-25.5 -59t-9 -77.5q0 -49 7 -85t22 -59t38 -35t56 -12q31 0 55 13.5t40.5 38t25 60.5t8.5 81zM1403 324q0 -84 -25.5 -150.5t-69.5 -113t-102 -71.5t-124 -25q-68 0 -122.5 20t-93 61t-59.5 103t-21 147q0 83 25.5 149t69 111.5t101 70 t120.5 24.5q65 0 120 -18t95 -57.5t63 -101.5t23 -149zM1220 310q0 50 -6.5 85.5t-21.5 57.5t-39 32.5t-59 10.5q-29 0 -52 -13t-39.5 -37.5t-25 -59.5t-8.5 -78q0 -49 7 -85t21.5 -59t37 -34.5t55.5 -11.5q31 0 55.5 13t41 37.5t25 60.5t8.5 81zM2098 324 q0 -84 -25.5 -150.5t-69.5 -113t-102.5 -71.5t-123.5 -25q-68 0 -122.5 20t-93 61t-59.5 103t-21 147q0 83 25.5 149t69 111.5t100.5 70t121 24.5q65 0 120 -18t95 -57.5t63 -101.5t23 -149zM1914 310q0 50 -6.5 85.5t-21 57.5t-38.5 32.5t-58 10.5q-30 0 -53 -13 t-39.5 -37.5t-25 -59.5t-8.5 -78q0 -49 6.5 -85t21.5 -59t38 -34.5t56 -11.5q31 0 55 13t40 37.5t24.5 60.5t8.5 81zM333 -50l-157 112l974 1371l157 -113z" />
<glyph unicode="&#x2039;" horiz-adv-x="641" d="M336 222l-238 378l242 383l164 -85l-193 -297l195 -293z" />
<glyph unicode="&#x203a;" horiz-adv-x="641" d="M301 222l-165 84l194 298l-195 292l170 87l238 -378z" />
<glyph unicode="&#x2044;" horiz-adv-x="418" d="M-360 -297l-140 96l1321 1852l137 -97z" />
<glyph unicode="&#x2074;" horiz-adv-x="828" d="M644 956v-91q36 -3 69.5 -9t62.5 -15v-100h-482v100q33 9 72 15t78 9v91h-386l-16 151l334 500h268v-501h135v-150h-135zM446 1464l-237 -363q23 1 55.5 2t66.5 1.5t64.5 0.5h50.5v359z" />
<glyph unicode="&#x20ac;" horiz-adv-x="1278" d="M445 754l-2 -71q0 -26 1 -48.5t3 -42.5h491v-134h-460q20 -70 54.5 -124t84 -91.5t114 -56.5t142.5 -19q41 0 84 5t85.5 14t82.5 21.5t78 27.5l32 -180q-42 -17 -88.5 -30.5t-97.5 -24t-105.5 -16t-109.5 -5.5q-125 0 -227.5 31.5t-179 93t-127.5 150.5t-74 204h-184v134 h166q-2 18 -2.5 35.5t-0.5 36.5q0 24 1 46.5t3 43.5h-167v134h186q25 117 78.5 212t135 163t191.5 104.5t246 36.5q40 0 82 -3t83.5 -8t81.5 -12t78 -15v-321h-149q-9 35 -16 76t-9 75q-21 6 -71.5 14.5t-110.5 8.5q-79 0 -143 -23t-111.5 -66.5t-80 -104.5t-50.5 -137h475 v-134h-493z" />
<glyph unicode="&#x2122;" horiz-adv-x="1722" d="M1327 774v94q17 7 36 11t36 6l-33 209l-14 92l-21 -80l-98 -332h-162l-96 336l-19 76l-6 -64l-41 -237q19 -2 38.5 -6t35.5 -11v-94h-307v96q20 5 42 9.5t40 5.5l71 383q-27 3 -52 7.5t-46 10.5v96h322l84 -301l20 -90l19 84l92 307h321v-96q-20 -6 -45 -10.5t-51 -7.5 l70 -381q24 -3 43 -6.5t39 -8.5v-98h-318zM559 1135q-5 29 -9.5 60.5t-8.5 61.5h-90v-368q28 -1 57.5 -7t54.5 -14v-94h-383v94q26 9 54.5 14.5t56.5 6.5v368h-90q-3 -26 -8 -57t-11 -65h-102v247h582v-247h-103z" />
<glyph unicode="&#x2202;" horiz-adv-x="1303" d="M1163 827q0 -93 -11.5 -183.5t-35.5 -176t-61.5 -162t-89.5 -137.5q-36 -42 -80 -76t-95.5 -58t-108 -37t-116.5 -13q-103 0 -182.5 30t-133.5 87t-81 136t-27 177q0 105 35.5 195.5t102 158t158.5 104.5t202 37q52 0 98 -11.5t84 -33.5t67 -52.5t48 -68.5q-1 37 -4 90 t-4 66q-8 105 -44 185.5t-94.5 134.5t-134 80.5t-163.5 25.5l26 182q145 -1 264 -48t204.5 -135.5t131 -214.5t45.5 -282zM877 487q0 52 -15.5 95t-47 75.5t-78 50t-107.5 17.5q-59 0 -109 -22t-86.5 -62t-56 -93.5t-19.5 -115.5q0 -63 16.5 -112t48 -81.5t75 -48.5 t96.5 -16q60 0 112 23.5t90.5 66t59.5 100t21 123.5z" />
<glyph unicode="&#x220f;" horiz-adv-x="1606" d="M1309 1309v-1809h-207v1809h-597v-1809h-208v1809h-209v186h1428v-186h-207z" />
<glyph unicode="&#x2211;" horiz-adv-x="1245" d="M74 -500v170l615 846l-578 809v170h995v-186h-724l563 -785l-611 -831h803v-193h-1063z" />
<glyph unicode="&#x2212;" d="M84 514v190h959v-190h-959z" />
<glyph unicode="&#x221a;" horiz-adv-x="1253" d="M733 0h-254l-292 853h-183v165h362l181 -564q18 -53 34 -107.5t29 -109.5h4q12 54 23.5 105t26.5 99l307 1111h239z" />
<glyph unicode="&#x221e;" horiz-adv-x="2005" d="M1901 623q0 -76 -26.5 -143t-78.5 -118t-127 -79.5t-168 -28.5q-59 0 -119.5 16t-123 45.5t-127 70.5t-136.5 95q-66 -49 -125.5 -88t-123 -70.5t-130.5 -50t-133 -18.5q-92 0 -164 27t-119.5 75t-71.5 111t-24 135q0 78 28 145.5t80 118t124.5 78t159.5 27.5 q62 0 125 -16.5t126 -47t126.5 -71.5t136.5 -95q64 48 123 87.5t123 71.5t130.5 51.5t131.5 19.5q90 0 162 -26.5t121.5 -74t74.5 -111t25 -136.5zM1688 612q0 36 -12 67t-35.5 53.5t-57.5 35t-76 12.5q-35 0 -74 -12t-80.5 -34t-85.5 -51.5t-96 -68.5q57 -42 101.5 -72 t86 -52t80 -34t74.5 -12q41 0 74 13t55.5 36.5t34 54t11.5 64.5zM831 608q-55 42 -99 72.5t-85.5 53t-79.5 34.5t-73 12q-42 0 -75 -13t-55 -36.5t-33.5 -54t-11.5 -64.5q0 -36 12 -67t35 -53.5t56.5 -35t75.5 -12.5q35 0 73.5 12t79.5 33.5t84.5 50.5t95.5 68z" />
<glyph unicode="&#x222b;" horiz-adv-x="698" d="M657 1307q-20 6 -47 10t-51 4q-38 0 -63 -12.5t-41 -44.5t-23.5 -91.5t-7.5 -154.5q0 -76 1.5 -151t4 -135t6.5 -168.5t7 -186.5t4.5 -169.5t1.5 -189.5q0 -145 -20 -247.5t-60.5 -166.5t-102 -94t-145.5 -30q-24 0 -53 3.5t-58 8.5v191q19 -6 44.5 -9.5t49.5 -3.5 q39 0 64.5 12t42.5 44t25 91t8 154q0 103 -3 195t-9 253t-9.5 285.5t-3.5 266.5q0 146 21.5 249t63.5 167t103.5 93t143.5 29q24 0 52.5 -4t53.5 -10v-188z" />
<glyph unicode="&#x2248;" d="M1038 766q-25 -27 -55 -49.5t-64.5 -39.5t-73 -26.5t-79.5 -9.5q-43 0 -79.5 8t-65.5 20.5t-68 33t-65 32t-59 19.5t-71 8q-28 0 -56 -7t-53 -19t-47.5 -27t-43.5 -33l-72 149q27 25 59 46.5t68 38.5t75.5 26.5t78.5 9.5q43 0 81 -8.5t69 -21t73 -34t65 -32t53 -19 t62 -8.5q51 0 99 23.5t98 68.5zM1040 379q-27 -24 -58.5 -44.5t-67.5 -36.5t-74 -25t-76 -9q-45 0 -83 8.5t-68 20.5t-70 33t-63.5 32t-54.5 19t-67 8q-28 0 -55.5 -7.5t-52.5 -19.5t-47 -27.5t-43 -33.5l-74 149q27 24 56.5 45.5t63.5 39t72.5 28t77.5 10.5q44 0 81.5 -8.5 t67.5 -21t70.5 -33t66.5 -32t59.5 -20t72.5 -8.5q51 0 100 20.5t95 61.5z" />
<glyph unicode="&#x2260;" d="M552 335l-107 -267h-196l107 267h-254v179h325l74 189h-399v179h470l108 271h195l-108 -271h258v-179h-328l-76 -189h404v-179h-473z" />
<glyph unicode="&#x2264;" d="M829 276l-714 517l712 516l134 -150l-545 -364l545 -363zM141 0v182h844v-182h-844z" />
<glyph unicode="&#x2265;" d="M299 276l-133 150l545 367l-545 360l131 156l715 -514zM141 0v182h844v-182h-844z" />
<glyph unicode="&#x25ca;" horiz-adv-x="1274" d="M711 -18h-137l-516 714l509 705h133l515 -715zM626 1162l-327 -460l347 -481l331 456z" />
<glyph unicode="&#xe000;" horiz-adv-x="1020" d="M0 1020h1020v-1020h-1020v1020z" />
<glyph unicode="&#xeeee;" horiz-adv-x="358" d="M358 2007v-2662h-358v2662h358z" />
<glyph unicode="&#xf6c9;" horiz-adv-x="760" d="M193 1477l-39 122l395 152l57 -162z" />
<glyph unicode="&#xf6ca;" horiz-adv-x="971" d="M481 1475l-327 167l57 121l274 -118l279 118l53 -116z" />
<glyph unicode="&#xf6cb;" horiz-adv-x="995" d="M842 1606q0 -25 -9.5 -47.5t-27 -39.5t-40.5 -26.5t-48 -9.5t-47.5 9.5t-39.5 26.5t-26.5 39.5t-9.5 47.5t9.5 48t26.5 40.5t39.5 27t47.5 9.5t48 -9.5t40.5 -27t27 -40.5t9.5 -48zM401 1606q0 -25 -9.5 -47.5t-26.5 -39.5t-39 -26.5t-47 -9.5q-26 0 -49 9.5t-40 26.5 t-26.5 39.5t-9.5 47.5t9.5 48t26.5 40.5t40 27t49 9.5q25 0 47 -9.5t39 -27t26.5 -40.5t9.5 -48z" />
<glyph unicode="&#xf6ce;" horiz-adv-x="760" d="M567 1477l-413 112l55 162l397 -152z" />
<glyph unicode="&#xf6cf;" horiz-adv-x="1087" d="M631 1473l-99 94l281 272l121 -121zM258 1473l-104 94l243 282l129 -114z" />
<glyph unicode="&#xf6d0;" horiz-adv-x="889" d="M154 1526v143h581v-143h-581z" />
<glyph unicode="&#xf8ff;" horiz-adv-x="2134" d="M1627 1222q-8 9 -17 19t-18.5 20t-19 18.5t-18.5 15.5l179 210q28 -24 54.5 -50t49.5 -56zM1818 684q2 24 2 51.5t-2 51.5l277 23q4 -38 4 -75t-3 -74zM1121 1460q-27 3 -53.5 2.5t-51.5 -2.5l-23 273q38 4 76 3.5t73 -3.5zM584 1293q-10 -8 -19.5 -16.5t-19 -18 t-18.5 -19t-17 -18.5l-213 181q25 29 50.5 55.5t55.5 49.5zM1576 734q0 -52 -10 -101t-28.5 -93.5t-43.5 -83t-54 -68.5v-161l-33 -10l65 -154l-63 -15l63 -149l-64 -16l20 -51l-62 -141h-110q-3 -20 -18.5 -37t-41 -30t-58 -20t-70.5 -7t-71.5 7t-58.5 20t-40 30t-18 37 h-111l-106 256l63 17l-64 154l70 19l-38 92v161q-30 32 -54.5 70.5t-42.5 82.5t-28 92.5t-10 98.5q0 106 40 198.5t109 162t161.5 109.5t198.5 40q105 0 197.5 -40t161.5 -109.5t109 -162t40 -198.5zM39 660q-3 37 -3 75t3 75l282 -23q-2 -25 -2 -52.5t2 -51.5zM1087 772 q5 0 5 10.5t-5 10.5q8 -11 0 -21zM1085 786q-5 0 -4.5 -1.5t1.5 -3t1.5 -2.5t-2.5 -1v-2q5 0 5.5 1t-0.5 2.5l-2 3t1 1.5v2zM1077 782q0 3 -2.5 4t-5.5 -2q2 0 3 0.5t3 -2.5q-2 0 -4 -1.5t-2 -3t1 -1.5t5 2v-2h2v6zM1069 772q-6 10 0 21q-5 0 -5 -10.5t5 -10.5zM1457 734 q0 81 -30.5 152.5t-83.5 124.5t-123.5 84t-151.5 31t-152 -31t-124 -84t-83.5 -124.5t-30.5 -152.5q0 -86 35.5 -163.5t100.5 -132.5h112l-30 273q-25 -5 -44.5 -11.5t-35.5 -11.5q-9 -3 -15.5 3t-10.5 17t-6 25t-0.5 27t5 22t10.5 12q62 19 131 31t138 12q72 0 140 -12 t131 -31q6 -3 10 -12t5 -21.5t-1 -26.5t-6 -25t-11 -17t-17 -3q-15 5 -35.5 11t-45.5 11l-28 -273h112q28 24 52.5 56t43 69.5t29 80.5t10.5 90zM1061 778q-3 -2 -3 3t3 3v2q-5 2 -5.5 -5t5.5 -5v2zM1053 786h-2v-6q0 -3 -1 -2.5t-1 2.5v6h-2v-6q0 -5 3 -4t3 4v6zM1044 778 h-4v13h-2v-15h6v2zM1152 726q-18 3 -39 4.5t-45 1.5q-23 0 -44.5 -1.5t-40.5 -4.5l28 -288h114zM1322 343h-509v-105l31 -74l478 121v58zM1295 191l-487 -126l30 -72l488 122zM1296 20l-487 -125l50 -121h419l26 62l-11 24l-148 -37l-28 75l210 52z" />
<glyph unicode="&#xfb00;" horiz-adv-x="1409" d="M1456 1311q-38 11 -75 16t-70 5q-99 0 -146.5 -56t-47.5 -176v-82h266v-169h-266v-688q46 -3 92 -10t86 -17v-134h-552v134q36 10 75.5 17t79.5 10v688h-441v-688q41 -3 80.5 -10t75.5 -17v-134h-552v134q40 10 86 17t92 10v688h-215v169h215v41q0 93 24 172.5t79 138 t145 91.5t222 33q86 0 172.5 -12.5t165.5 -38.5q20 14 46 26.5t57.5 21t69 13.5t81.5 5q43 0 84.5 -4t86.5 -13zM934 1278q-54 20 -106.5 28.5t-103.5 8.5q-70 0 -120.5 -14.5t-83 -43.5t-48 -74t-15.5 -105v-60h441v72q0 57 9.5 103.5t26.5 84.5z" />
<glyph unicode="&#xfb01;" horiz-adv-x="1335" d="M752 0v135q39 10 78.5 17t76.5 10v686h-450v-686q37 -3 76.5 -10t78.5 -17v-135h-551v135q45 10 90 17t89 10v686h-215v170h215v41q0 117 36 202.5t103.5 140.5t162.5 81t214 26q78 0 160 -10.5t157 -28.5l-43 -182q-31 9 -66 17t-70.5 13t-70 8t-65.5 3 q-81 0 -138.5 -17t-93.5 -49.5t-52.5 -80t-16.5 -109.5v-55h667v-856q43 -3 86.5 -10t83.5 -17v-135h-542z" />
<glyph unicode="&#xfb02;" horiz-adv-x="1335" d="M752 0v135q39 10 78.5 17t76.5 10v1157q-42 7 -87 10.5t-87 3.5q-73 0 -125 -14.5t-85.5 -43.5t-49.5 -73t-16 -104v-80h266v-170h-266v-686q37 -3 76.5 -10t78.5 -17v-135h-551v135q45 10 90 17t89 10v686h-215v170h215v90q0 100 30 175t93.5 125t163 75.5t237.5 25.5 q82 0 175 -8t185 -22v-1317q43 -3 86.5 -10t83.5 -17v-135h-542z" />
<glyph unicode="&#xfb03;" horiz-adv-x="1991" d="M1408 0v134q35 10 75 17t80 10v688h-446v-688q39 -3 79 -10t75 -17v-134h-528v134q36 10 75.5 17t79.5 10v688h-441v-688q41 -3 80.5 -10t75.5 -17v-134h-552v134q40 10 86 17t92 10v688h-215v169h215v41q0 93 24 172.5t79 138t145 91.5t222 33q50 0 99.5 -4t96.5 -12.5 t91 -20t84 -27.5q59 37 140.5 58t194.5 21q80 0 162 -10.5t151 -27.5l-41 -182q-31 9 -66 16.5t-70 12.5t-69 8t-64 3q-83 0 -140.5 -17.5t-93.5 -50t-51.5 -80t-15.5 -107.5v-56h664v-857q45 -3 88.5 -10t81.5 -17v-134h-543zM943 1271q-27 11 -54.5 19.5t-56.5 14t-58 8 t-57 2.5q-68 0 -116.5 -14.5t-80.5 -43.5t-47.5 -74t-15.5 -105v-60h441v43q0 53 10 109t35 101z" />
<glyph unicode="&#xfb04;" horiz-adv-x="1991" d="M1408 0v134q35 10 75 17t80 10v1158q-20 3 -41.5 5.5t-43.5 4.5t-44.5 3t-42.5 1q-73 0 -125 -15t-85 -44t-48.5 -73t-15.5 -104v-79h266v-169h-266v-688q39 -3 79 -10t75 -17v-134h-528v134q36 10 75.5 17t79.5 10v688h-441v-688q41 -3 80.5 -10t75.5 -17v-134h-552v134 q40 10 86 17t92 10v688h-215v169h215v41q0 93 24 172.5t79 138t145 91.5t222 33q49 0 97 -4t93.5 -12t88.5 -19t82 -25q61 37 146.5 56t204.5 19q85 0 179 -8t181 -22v-1318q45 -3 88.5 -10t81.5 -17v-134h-543zM933 1276q-26 10 -52 17.5t-53.5 12.5t-55.5 7t-55 2 q-68 0 -116.5 -14.5t-80.5 -43.5t-47.5 -74t-15.5 -105v-60h441v91q0 49 9.5 92t25.5 75z" />
<glyph horiz-adv-x="1966" d="M1802 1169q0 -8 -4 -8q-22 3 -43 0.5t-43 -4.5q-35 -2 -61 -3t-47.5 -2.5t-39.5 -3.5t-36 -5q-8 -7 -10.5 -15.5t-3.5 -17t-2 -17.5t-5 -18q0 -9 3.5 -16t5.5 -15q5 -6 12.5 -9t15.5 -5q14 2 27.5 8t19.5 19q0 8 -4 13.5t-10 10.5q-5 4 -10.5 5t-11 1t-10.5 1.5t-9 7.5 q6 10 19.5 8t25.5 -2q11 -3 18.5 -12t12.5 -21q-2 -17 -12 -30.5t-25 -24.5q-11 -3 -21.5 -5t-21.5 -5q-25 6 -51 16t-41 33q-4 12 -3.5 23t2 22t4 22t3.5 23q-5 9 -13.5 7.5t-17.5 0.5l-67 -2q0 3 -2.5 4t-2.5 4q7 5 15 4.5t14 1.5q19 -3 39 -1.5t39 1.5q8 6 9 16t1 19 q6 14 7 32.5t12 29.5q5 3 9 2t7 -4t6 -7t6 -6q6 -8 6.5 -16.5t0.5 -18.5v-20t4 -19q4 -6 9.5 -7.5t11.5 -1l12 1t12 -0.5q24 1 48 1.5t52 1.5t60 3t71 7q3 -2 4.5 -2.5t3.5 -4.5zM1327 1028q-25 0 -52.5 -1t-51.5 -9q-8 3 -15 5t-12 11q5 28 7.5 57.5t-5.5 57.5 q-5 6 -13.5 0.5t-15.5 -8.5q-14 -9 -28 -19t-26 -22t-20 -26.5t-10 -31.5q-8 -8 -18.5 -11.5t-19.5 1.5q-6 7 -6.5 15t0 16t1.5 16.5t-2 16.5l-2 63q-6 6 -16 3.5t-21 0.5q-2 1 -6 1.5t-7.5 1t-6 2t-2.5 6.5q26 -2 52.5 2.5t53.5 -0.5q6 -6 6.5 -14t0 -16.5t1.5 -15.5 t11 -10q28 13 53.5 30t52.5 28q6 -4 14 -4h15t12.5 -2.5t8.5 -12.5q5 -22 3.5 -43.5t0.5 -44.5q3 -6 2.5 -12.5t5.5 -11.5q8 -2 14 -3t12 3q8 0 16 -2.5t19 -2.5q2 -2 2.5 -4.5t-2.5 -5.5zM915 1145q8 -38 -14 -64q-11 -7 -21 -15.5t-20 -16.5t-21 -14t-24 -7q-6 2 -9 -0.5 t-5 -6t-4.5 -5.5t-8.5 2q-11 8 -24.5 4t-26.5 -2q-12 0 -22 0.5t-21 5.5q-8 7 -16 14.5t-14.5 16.5t-9 20t2.5 23q7 18 18.5 34t31.5 27q21 11 44.5 22t51.5 5q16 -1 33 -2.5t32 -6t27 -12.5t20 -22zM926 1360q-11 -13 -27.5 -17.5t-32.5 0.5q-9 13 -17.5 24.5t-10.5 25.5 q-13 21 -31.5 32.5t-40 18.5t-44.5 11.5t-44 10.5l-64 4q-5 -5 -12.5 -3t-13.5 -1q-35 -11 -61.5 -20.5t-51.5 -22.5q-6 -8 -15 -14t-17 -12.5t-15 -14.5t-8 -20q-13 -31 -17 -69.5t-6 -73.5q10 -8 22 -5.5t23 0.5q44 5 87 5h89q4 -2 4.5 -7t-1.5 -8q-9 -6 -16.5 -5t-15.5 4 t-15.5 5.5t-16.5 -0.5q-20 2 -42 -1t-42 -1q-18 -3 -38 -4t-36 -10l-6 -8q-2 -19 -2 -34v-29.5t1 -30t3 -35.5q1 -7 0.5 -14.5t-0.5 -14.5t1.5 -14.5t6.5 -14.5q26 -2 41.5 -1.5t29 2t29.5 3.5t42 3q6 5 13 2t13 -5q2 -2 1 -4t1 -4l-8 -4q-24 4 -42.5 3.5t-37.5 -3t-41 -4.5 t-53 0q-22 -2 -46.5 -4t-47.5 0q-32 -2 -67 -2t-64 8l-4 6q3 3 8 6t10 5q16 -8 37 -10t43 -5q14 2 28 1t25 7q-1 26 2 49t6.5 45t8 45.5t6.5 51.5q-2 4 -6 8q-31 1 -59 -0.5t-56 10.5q-2 5 0.5 8t5.5 3q28 -8 57.5 -8.5t57.5 1.5l4 7q5 34 11.5 70.5t19.5 64.5v6 q46 54 107 86.5t136 40.5q38 5 75 -4t69 -23q9 -3 20 -3t21 -5q35 -8 69.5 -24.5t57.5 -47.5q3 -3 2.5 -8t-2.5 -10zM1571 -127q-23 1 -48.5 -1t-52 -4.5t-51.5 -4t-47 1.5q-57 2 -112.5 -1t-110.5 -7t-110 -5t-111 5q-51 -8 -99 -3.5t-98 9.5q-60 5 -122.5 3.5t-125.5 -1.5 q-21 0 -47.5 -0.5t-54.5 -2.5t-54.5 -5t-47.5 -9q-8 -2 -17 -1.5t-14 10.5q0 32 -2.5 66.5t8.5 66.5q3 40 1.5 81.5t4.5 82.5q-4 23 -3.5 45.5t2 45t2.5 45.5t-3 46q0 66 5.5 132.5t8.5 135.5q5 74 2 146.5t0 146.5q4 9 10.5 11t13.5 2t15 -0.5t15 1.5q8 -5 18 -5.5 t19.5 0.5t19.5 2.5t18 0.5q7 7 16 11.5t11 -9.5q3 -5 0.5 -12t5.5 -12q-4 -29 -3 -78.5t4 -107t7 -117t7 -109.5q32 10 61.5 25t58 31.5t57 32t60.5 26.5q11 5 20 12t23 12q3 2 8 7t13 0q10 -5 8 -15.5t-2 -19.5q-10 -28 -12.5 -61t2.5 -64q5 -9 13.5 -5.5t14.5 3.5 q17 14 35 23t35 22q20 12 41 23.5t43 19.5q25 17 48.5 33.5t49.5 25.5l41 33q3 8 12 14q7 0 12 -3.5t11 -8.5q0 -29 6 -58.5t6 -58.5q2 -6 6 -4.5t6 -3.5q8 -11 3.5 -21.5t-7.5 -19.5l4 -4q35 8 65 26.5t59.5 39t59 39t64.5 26.5q10 9 22 12.5t23 14.5q10 1 19 8.5t18 14 t19 8.5t22 -7q3 0 7.5 -1.5t6.5 -6.5q-2 -8 2 -13t7 -11q-2 -8 -1.5 -15.5t1 -14t0.5 -13.5t-4 -13q1 -13 0 -26t-1 -25.5t2.5 -24t8.5 -22.5q-2 -7 0.5 -13t4.5 -12t2.5 -11.5t-3.5 -10.5q2 -16 0.5 -29.5t7.5 -25.5q2 -10 3 -19.5t-5 -17.5q5 -23 5.5 -47.5t8.5 -47.5 q-5 -8 -2.5 -16t2.5 -16q0 -39 3.5 -76t8 -74t8.5 -74.5t5 -76.5q0 -3 2.5 -8.5t-0.5 -10.5zM870 1104q-5 22 -16 43.5t-37 26.5q-3 -11 -12.5 -8.5t-16.5 1.5q-14 7 -28.5 3t-24.5 -15q-11 -15 -11.5 -30t5 -29.5t14 -28.5t17.5 -27q3 -8 9.5 -6t14.5 0q14 -5 26.5 2.5 t25.5 12.5q6 6 13.5 11.5t13.5 11.5t8.5 13.5t-1.5 18.5zM1513 -20l-16 34t-20 31q-13 22 -27.5 42t-17.5 46q-5 9 -10.5 17.5t-2.5 17.5q14 17 34 27.5t34 25.5l-19 35q-18 -2 -33 -8.5t-30 -11.5q-4 -3 -8.5 -7t-9.5 -6.5t-10.5 -2.5t-10.5 5q2 41 3 81.5t-1 78.5l-4 6 q-16 0 -28.5 5t-26.5 10q-3 -23 -6.5 -48.5t0.5 -50.5q-3 -8 -3 -18.5t1 -21t1 -21t-4 -19.5q2 -32 0.5 -57t-3 -49t-2 -49t2.5 -56l-2 -14h49q7 2 13.5 -2t11.5 2v28t-2 29q1 8 -1.5 17t-3.5 17t1.5 14.5t13.5 9.5q11 -5 11.5 -14t7.5 -17q-1 -7 1.5 -13t6 -11.5l7 -11 t5.5 -11.5q10 -6 17 -14.5t13.5 -18t13.5 -19t16 -16.5q6 2 11.5 -2.5t14.5 -1.5q5 0 8.5 4t3.5 9zM1245 367q-3 9 -8 17t-16 13q-5 5 -11.5 6t-9.5 -6q-9 -12 -13 -30.5t5 -30.5q3 -11 15.5 -12t23.5 4q9 6 12.5 17t1.5 22zM1249 31q0 40 -2 79t-2 76q0 14 1.5 27.5 t-1.5 26.5q-7 5 -14 5.5t-14 -1t-14.5 -3.5t-14.5 -1q-7 -12 -9 -24.5t-1.5 -25.5t1 -26.5t-0.5 -26.5q-5 -11 -5 -25t-2 -28q3 -10 2.5 -21.5t-0.5 -23.5t2 -23.5t9 -21.5q15 0 31 2.5t30 7.5q3 6 3.5 13.5t0.5 13.5zM1147 252q-16 -2 -33.5 -5t-28.5 -22q-4 -4 -5.5 -10.5 t-4 -13t-7 -10t-13.5 -1.5q-5 16 -4.5 29.5t0.5 30.5q-4 2 -8 1.5t-8 -1.5t-7.5 -1.5t-7.5 1.5q-9 -5 -14.5 -12t-8.5 -15q0 -60 1 -114t8 -113l6 -8q5 -4 11.5 -4t13 1t12 2t10.5 -1q-3 11 -2.5 21.5t1.5 21t1 20.5t-4 21q5 23 11 46.5t21 43.5q13 9 27 12t27 14 q2 17 6.5 33t-0.5 33zM938 61q9 18 12 36t1.5 37t-5.5 38t-8 39q1 6 -5.5 11.5t-15.5 11t-18 9.5t-12 7t-9 3.5t-8 -5.5q-22 3 -39 -8q-11 -7 -15.5 -16.5t-12.5 -14.5q-5 -3 -10.5 -1t-8.5 7q8 37 4 75t-10 77l-4 14h-16q-9 -3 -12.5 -9t-4 -13.5t-0.5 -15t-2 -13.5 q-6 -34 -4 -69.5t-4 -70.5q3 -34 0 -67t0 -64q0 -18 -3 -35.5t-1 -37.5q14 -8 32 -2t32 12q10 4 16.5 1.5t11.5 -8t10 -12t11 -10.5h13t13 2q11 6 24 17t24 23.5t18 26t6 25.5zM682 70q-7 22 -6.5 45t1 45t-1.5 43.5t-13 40.5q-26 15 -48 24l-16 11q-9 -2 -17.5 -1.5 t-17 0.5t-17 -2t-16.5 -8q-14 -8 -14 -22.5t-2 -30.5q11 -5 24 -3.5t25.5 2.5t23.5 -1.5t19 -15.5q-1 -4 0.5 -7l3 -6t1.5 -5.5t-3 -6.5q-2 -3 -2.5 -8t4.5 -8q3 -5 1.5 -11t-7.5 -8q-14 -5 -28 -4t-29 -2q-23 -9 -34.5 -31.5t-16.5 -44.5q-3 -5 -3 -10.5t1 -11t1.5 -11 t-3.5 -10.5q0 -14 9.5 -22t20.5 -13q3 4 7.5 7t9.5 -2q8 -3 15.5 0t14.5 8.5t14 12t15 11.5q11 2 13 -2t1.5 -11t-1 -15t4.5 -13q10 -5 17 -0.5t16 4.5q8 4 16.5 5.5t14.5 7.5zM508 371q-25 5 -53 3.5t-54 -3.5q-15 -2 -29.5 -5.5t-25.5 -11.5q-2 -32 -6.5 -66.5t-7.5 -66.5 q5 -54 3 -111.5t1 -113.5q8 0 15 2.5t14 -0.5q12 3 23 -1.5t24 1.5q2 32 2 64.5t2 64.5q5 11 14 15.5l19 9.5q4 2 8 1.5l8 -1t7.5 0t6.5 5.5l-2 57q-8 9 -19 8.5t-24 -0.5q-3 -3 -6 -5.5t-8 -2.5q-8 1 -11 6.5t-4 12t-1 14t-3 12.5q-3 6 0.5 11t8.5 10q20 6 39.5 9.5 t39.5 6.5l13 8q-3 19 1.5 34t4.5 32zM881 158q14 -29 7.5 -60t-26.5 -53q-5 -8 -11.5 -9.5t-12.5 -4.5q-13 1 -19.5 8.5t-9.5 17.5t-4.5 21t-3.5 20q5 16 6 34t10 32q7 4 11.5 10l9 12t9.5 10.5t13 4.5l6 -6q-2 -7 -0.5 -12t5 -8.5t6.5 -7.5t4 -9zM604 86q0 -15 -9 -26.5 t-20 -20.5q-8 -2 -15.5 -8t-18.5 0q-7 1 -9 5.5t-1 9.5t3 11t3 11q0 6 5 11.5t13 8.5q12 0 20 8q7 -2 15.5 -1.5t13.5 -8.5z" />
<glyph horiz-adv-x="2335" d="M1894 -70q-9 -12 -22.5 -16.5t-28 -6t-29 -4t-24.5 -9.5q-17 -2 -33.5 -4.5t-31.5 -8.5t-27 -16.5t-19 -28.5q-8 -21 -19.5 -40.5t-21.5 -39.5t-15.5 -41.5t-0.5 -46.5q2 -9 8.5 -12.5t14.5 -4t16 1t14 3.5q4 0 7 3l6 6t6.5 4.5t9.5 -1.5q9 -6 1 -12.5t-11 -13.5 q-17 -11 -37.5 -15.5t-40.5 4.5q-16 16 -24.5 34t-2.5 40q1 8 5 19.5t12.5 29.5t21.5 43t33 60q-16 7 -32 6t-32.5 -4.5t-32.5 -5.5t-32 4q9 12 25 17.5t30 10.5q13 3 28 3t29 1.5t25.5 6.5t19.5 18q7 11 9 22.5t2 23t-1 24t1 24.5q-11 3 -11 11.5v13.5q-11 23 -29.5 34.5 t-40 17t-44 6t-43.5 1.5q-23 -2 -45.5 -11t-41.5 -23.5t-33.5 -33t-23.5 -38.5q-14 -32 -10.5 -65.5t17.5 -67.5q-4 -25 5.5 -47t20 -44.5t15.5 -46t-7 -51.5q-11 -9 -26 -8t-27 6q-14 7 -21 19t-11 26.5t-6.5 29t-6.5 27.5q9 6 11.5 15.5t3.5 19.5t2.5 19.5t7.5 17.5 q3 11 1 27t-16 22q-18 -2 -37.5 -2.5t-39 -2t-37.5 -6.5t-33 -17q2 -22 5 -45.5t1.5 -46t-9.5 -42t-28 -34.5q-12 -3 -24.5 -0.5t-24.5 8.5q-11 9 -15 20t-4 23.5t1.5 25.5t1.5 25q7 15 14 32t16 32.5t21.5 28t30.5 18.5q15 -10 33.5 -6.5t33.5 8.5l100 2q5 4 6.5 11t2.5 14 t1.5 14.5t2.5 13.5q9 29 25.5 56.5t39 48.5t51 35t60.5 16q34 3 67 1t64 -18q1 -11 8 -16.5t15 -10t15 -10t9 -16.5q9 -15 12 -32.5t1.5 -35.5t-5 -36.5t-6.5 -34.5q47 0 91.5 8t86.5 16zM1063 -111q-9 -6 -17 -3t-16.5 7.5t-17 7.5t-17.5 -3q-14 -9 -20 -22t-9 -26.5 t-7 -26.5t-13 -24q-3 -28 -9.5 -54t-6.5 -52q-7 -3 -13.5 -7t-15.5 -1q-6 7 -7 17t0.5 19.5t3.5 19t1 17.5q7 9 9 21t2 24t1 23.5t6 21.5q-6 11 -5.5 26.5t-2.5 25.5q-5 1 -8.5 -0.5t-7 -3.5t-7 -2.5t-8.5 4.5q4 12 11 20t18 16q17 0 25 -12t14 -24q8 3 15 12t15 16t16.5 9 t19.5 -9zM790 -18q-1 -51 1.5 -103t4 -103.5t-0.5 -101.5t-13.5 -97t-34 -90t-61.5 -81q-65 -40 -144 -49.5t-153 10.5q-8 5 -16.5 12.5t-8.5 16.5q5 20 13 40.5t32 28.5q-6 -17 -13.5 -33t-10.5 -34q26 -17 59.5 -23t68.5 -3.5t69 12t61 24.5q29 10 46 28.5t28 41t18.5 47 t18.5 45.5q6 36 9 75.5t4.5 79t0.5 76.5t-2 68q4 11 3.5 23.5t-2 25.5t-2.5 25.5t1 23.5q-3 11 -12.5 7.5t-12.5 -5.5q-8 -8 -13 -17t-9.5 -18t-9.5 -17.5t-13 -14.5q2 -15 -4.5 -24t-15.5 -16.5t-17 -15.5t-8 -22q-42 -47 -77.5 -95t-69.5 -98q-8 -12 -15 -24t-22 -10 q-10 13 -11.5 28.5t0.5 31t4 32t-1 32.5q10 34 18.5 72t34.5 72q18 49 51.5 97t83.5 79q14 4 26.5 2t24 -7.5t22 -13t21.5 -14.5q10 11 16 24t9 25q24 -9 24 -41q-5 -5 -5 -8.5t1.5 -7.5t3 -8.5t0.5 -9.5zM1452 428q-36 -5 -71 -16t-69.5 -21t-70 -16.5t-72.5 -3.5 q-7 -6 -10 -23t-1 -33.5t11 -26.5t27 -3q6 8 9 23t15 20q10 -19 3 -36.5t-19 -31.5q-6 -4 -21 -4.5t-29.5 8.5t-23.5 31.5t-4 64.5q-5 7 -10 13.5t0 15.5q12 9 17.5 20t7.5 23t3 25t3 26q-3 2 -4 4.5t-4 4.5q-18 -12 -30.5 -27.5t-23 -32t-21 -33.5t-24.5 -32 q0 -15 -8 -26.5t-17.5 -22.5t-16 -23.5t-3.5 -28.5q-6 -6 -6.5 -15.5t-2 -19.5t-6 -17.5t-18.5 -8.5q-18 4 -24 15t-6 24.5t2 28t0 26.5q-3 19 -1.5 36.5t3.5 34.5t3.5 33.5t-1.5 34.5q-9 -5 -14.5 -13t-9.5 -16.5t-8 -17.5t-11 -16q-10 -12 -19 -28.5t-20 -30.5t-25.5 -22 t-36.5 -3q-11 17 -12 35.5t4 38t15 38t20 35.5q9 10 19 23.5t21.5 24t25 15.5t30.5 -1q11 -5 21 0q18 43 28 90.5t13 93.5l20 16q13 -4 15 -10.5t-1 -14t-6.5 -16t-1.5 -16.5q-8 -57 -18.5 -113t-15.5 -112q-1 -15 -3.5 -30t-4 -29.5t-1.5 -29.5t5 -30q16 21 30.5 45 t30.5 49t33.5 49t40.5 45q25 36 65 62q16 -13 31 -29.5t31 -27.5q0 -19 -2.5 -41.5t2.5 -40.5q55 12 105.5 20.5t103.5 24.5q8 -5 12 -10.5t2 -16.5zM2134 1190q-2 29 -10 60t-23 59t-37 51t-53 37q12 18 25.5 16.5t25.5 -12t22.5 -25.5t18.5 -24q32 -39 46.5 -85.5 t15.5 -95.5t-10 -98t-29 -94q-15 -35 -36 -68t-48 -62t-59.5 -52.5t-69.5 -38.5q28 20 53.5 43.5t44.5 54.5q16 16 32 34t29.5 38t23 43t13.5 49q25 40 27.5 83.5t-2.5 86.5zM1950 983q-7 -15 -19 -30.5t-31 -20.5q-15 5 -23 13.5t-18 21.5l5 28q5 -2 6.5 -6t3 -9t3.5 -10 t9 -7q11 -4 19.5 6t13.5 16q8 47 1 92.5t-32 85.5l-12 -6q-25 -23 -46.5 -42t-35.5 -50l-16 -8q-28 -28 -49 -60t-46 -55q-12 -2 -17.5 3.5t-8 13.5t-4 17.5t-5.5 16.5q4 8 2.5 18.5t-8.5 16.5q-6 1 -9 -1.5t-4.5 -6t-2.5 -7.5t-4 -5q-16 -16 -30 -23.5t-36 -9.5 q-23 6 -28.5 18t-3 28t8.5 34t5 35q8 30 26 53.5t41 48.5q10 2 21.5 6.5t23.5 6t22.5 -1.5t19.5 -15l8 -12q-13 -35 -15.5 -73t-7.5 -75q2 -6 5.5 -13t11.5 -7q11 0 17 5.5t10.5 13t8.5 16t11 14.5q45 38 83.5 78.5t75.5 81.5q13 -5 17.5 -16t6 -24t2.5 -25.5t7 -21.5 q10 -5 6 -16q16 -31 16 -64t-5 -67zM1671 1384q-6 -11 -20 -20.5t-29 -7.5q-3 6 -8.5 13.5t-16.5 -1.5q-29 -23 -58 -47.5t-54.5 -51.5t-45.5 -57.5t-32 -64.5q-7 -42 -10.5 -86.5t2 -87.5t23 -80.5t52.5 -65.5q10 -8 21.5 -10.5t23.5 -2.5t25 1t25 0q12 8 21 17.5t22 17.5 q1 -9 -3 -15.5t-11 -11.5t-15 -9.5t-14 -10.5q-31 -13 -67 -5t-60 29q-22 20 -36.5 43.5t-19.5 51.5q-10 4 -10 9.5t2 12t3 12.5t-7 11q4 7 2 14t-4.5 14.5t-3.5 15.5t4 17q-2 61 17.5 114t52.5 98.5t76 85.5t87 75q8 1 18.5 3.5t20.5 2.5t17.5 -4.5t9.5 -18.5zM1296 1020 q-14 -34 -45 -60t-71 -26q-41 0 -77 15.5t-55 49.5q-15 23 -15 49t5 54q1 9 5.5 16.5t9.5 14t9 14t5 16.5q28 23 62 30t69 -5q7 -6 15.5 -9t6.5 -16q-3 -4 -6.5 -3t-7.5 3.5t-8.5 5t-9.5 2.5q-28 8 -54.5 -1.5t-48.5 -30.5q-15 -25 -24 -54.5t4 -58.5q43 -60 110 -70 q9 4 19.5 5.5l21 3t20 6t17.5 14.5q6 4 10.5 11.5t9 14t10 10t13.5 -0.5zM981 963q-11 -25 -19 -50.5t-26 -48.5q-14 -6 -25.5 1t-17.5 20q-16 35 -21.5 75t0.5 78q-3 2 -1.5 17t3 33.5t1 36t-6.5 26.5q-13 -31 -14 -63.5t-2 -64t-8 -62t-31 -56.5q-3 -3 -14.5 -6t-25 2.5 t-26 23.5t-18.5 58q6 38 8 74t8 73q1 7 -1 14.5t-3.5 15t-0.5 15t9 13.5q7 3 14.5 0.5t12.5 -8.5q1 -32 -2.5 -65.5t-6 -65t-1 -59.5t13.5 -48q15 -10 21.5 -4t10 18t5 25t6.5 18q4 21 4.5 43t1.5 43.5t3 43t8 42.5q5 6 9 15.5t9 17t12 10t19 -5.5q14 -40 15 -78.5t-1 -76.5 t-1.5 -77t13.5 -79q2 -6 9.5 -8t13.5 6q1 1 4 11.5t8.5 23t13.5 23t17 10.5zM661 901q-4 -3 -8 -7t-20 -8.5t-49.5 -9.5t-94.5 -10q-69 -6 -132 -17.5t-128 -33.5q-5 -11 -12.5 -14t-15.5 -2t-15.5 5t-13.5 7q-2 9 2.5 15t11 11t12 10t7.5 13q12 25 21.5 49.5t17.5 48.5 q-4 13 4 27t14 27q45 103 86 208.5t66 217.5q-4 12 -3 23.5t9 19.5q12 4 16 -4.5t10 -14.5q-14 -79 -40.5 -153.5t-57.5 -147t-61 -146t-50 -151.5l5 -4q76 13 148.5 27t154.5 16q24 -5 54.5 -4t55.5 10zM1401 -315q12 26 3.5 56.5t-24.5 53.5q-9 -12 -11.5 -26.5 t-4.5 -28.5q3 -17 9 -34.5t28 -20.5zM1126 -188q-5 -23 -7.5 -48t5.5 -47q6 -6 17 -5.5t20 7t13 18t-3 27.5q2 9 5 23t2.5 27t-5.5 23.5t-18 12.5zM717 -12q-3 11 -11.5 17.5t-19.5 8.5t-22.5 1t-20.5 -5q-22 -18 -43.5 -38.5t-38.5 -43.5q-10 -32 -24.5 -62t-26.5 -60.5 t-19.5 -62.5t-3.5 -67q6 -2 7.5 2t5.5 7q27 37 58.5 72t61.5 71.5t56 75.5t41 84zM1182 426q2 5 5 13t3.5 15.5t-2 13t-11.5 7.5l-10 -59q11 2 11 4.5t4 5.5zM899 471q-14 3 -26.5 -6.5t-20.5 -22.5q-11 -14 -21.5 -29.5t-18 -32t-9 -33.5t5.5 -34q11 -5 15 1.5t7 13.5 q22 23 40 47t32 55zM1651 1178q-5 4 -8.5 2.5t-6 -4l-5 -5t-5.5 -0.5q-23 -11 -38 -29.5t-23.5 -40.5t-12 -46t-2.5 -47q7 -2 13 1t12 7t11.5 6.5t12.5 1.5q6 14 18 29t21 31.5t11.5 33t-11.5 33.5q6 0 9 3t4 7.5t0.5 9t-0.5 7.5z" />
<glyph horiz-adv-x="971" d="M762 1475l-277 118l-278 -118l-53 116l335 172l328 -168z" />
<glyph horiz-adv-x="1051" d="M897 1657q-44 -77 -105 -118t-137 -41q-47 0 -82.5 13.5t-76.5 40.5t-60.5 37.5t-47.5 10.5q-36 0 -67 -22t-57 -67l-110 77q43 77 104.5 118t137.5 41q47 0 82 -13.5t75.5 -40.5t61 -37.5t48.5 -10.5q36 0 66 22t57 67z" />
<glyph horiz-adv-x="860" d="M707 1751q0 -55 -18.5 -102.5t-54.5 -83.5t-88.5 -56t-117.5 -20q-66 0 -118 20t-86.5 56.5t-52 84t-17.5 101.5h135q0 -25 10.5 -47t29.5 -39t45 -26t56 -9q32 0 58 9t44.5 25.5t28.5 39t10 47.5h136z" />
<glyph horiz-adv-x="578" d="M424 1616q0 -27 -10.5 -52t-29 -43.5t-43 -29t-52.5 -10.5q-27 0 -52 10.5t-43.5 29t-29 43t-10.5 52.5t10.5 52.5t29 43t43.5 29t52 10.5q28 0 52.5 -10t43.5 -29t29 -43.5t10 -52.5z" />
<glyph horiz-adv-x="817" d="M664 1688q0 -51 -19 -94t-55 -74.5t-84.5 -48.5t-106.5 -17t-103.5 13.5t-77 40.5t-48 68.5t-16.5 96.5q0 51 19 94t54 74.5t84 48.5t107 17t103.5 -13.5t77.5 -41t48.5 -69t16.5 -95.5zM508 1679q0 28 -6.5 49.5t-19 35.5t-30.5 21t-42 7q-21 0 -40 -7t-33 -21t-22 -35 t-8 -48q0 -28 6.5 -49t19 -35t31.5 -21t44 -7q21 0 39 7t32 21t21.5 34.5t7.5 47.5z" />
<glyph horiz-adv-x="680" d="M526 1554l-245 -329l-127 73l213 344z" />
<glyph horiz-adv-x="651" d="M633 1335q0 -25 -9.5 -48t-26.5 -40.5t-40 -27t-49 -9.5q-25 0 -47.5 9.5t-39.5 27t-26.5 40.5t-9.5 48t9.5 47.5t26.5 39.5t39.5 26.5t47.5 9.5q26 0 49 -9t40 -26t26.5 -39.5t9.5 -48.5zM264 1335q0 -26 -9.5 -48.5t-26 -40t-39 -27t-48.5 -9.5q-25 0 -48 9.5t-40.5 27 t-27 40.5t-9.5 48t9.5 47.5t27 39.5t40.5 26.5t48 9.5q26 0 48.5 -9t39.5 -26t26 -39.5t9 -48.5z" />
<glyph horiz-adv-x="1440" d="M1438 -394q-91 -13 -165 -11t-137.5 12t-121.5 24.5t-116 25.5t-121 15.5t-138 -5.5v195q87 11 156 7t130 -14.5t118 -24.5t117 -24.5t127.5 -13t150.5 9.5v-196zM1364 711q0 -174 -52.5 -309.5t-143 -229.5t-211.5 -143.5t-257 -49.5q-155 0 -271.5 49t-194.5 139.5 t-117 218.5t-39 286q0 173 52.5 309t142.5 230t211 143.5t257 49.5q155 0 271.5 -49.5t195 -140t117.5 -218.5t39 -285zM1129 681q0 118 -25.5 214.5t-76 165.5t-127 107t-178.5 38q-87 0 -162 -33t-129.5 -96.5t-86 -157.5t-31.5 -216q0 -118 25.5 -215t76 -166 t126.5 -106.5t179 -37.5q86 0 161 32.5t130 96t86.5 158t31.5 216.5z" />
</font>
</defs>
</svg>
