<?xml version="1.0" encoding="utf-8"?>
<!-- Generator: Adobe Illustrator 15.1.0, SVG Export Plug-In . SVG Version: 6.00 Build 0)  -->
<!DOCTYPE svg PUBLIC "-//W3C//DTD SVG 1.1//EN" "http://www.w3.org/Graphics/SVG/1.1/DTD/svg11.dtd">
<svg version="1.1" id="Layer_1" xmlns="http://www.w3.org/2000/svg" xmlns:xlink="http://www.w3.org/1999/xlink" x="0px" y="0px"
	 width="792px" height="306px" viewBox="0 0 792 306" enable-background="new 0 0 792 306" xml:space="preserve">
<g>
	<polygon fill="#6D2700" points="573.345,146.694 561.097,130.931 547.325,130.931 547.325,177.492 560.363,177.492 
		560.363,149.822 572.002,163.855 574.334,163.855 586.248,149.754 586.248,177.492 599.28,177.492 599.28,130.931 585.571,130.931 
			"/>
	<path fill="#6D2700" d="M524.479,157.298c0,7.048-3.533,10.241-8.851,10.241c-5.321,0-8.844-3.061-8.844-10.373v-26.235h-13.107
		v26.312c0,14.234,8.314,21.616,21.951,21.616c13.633,0,22.013-7.715,21.955-21.482v-26.446h-13.104V157.298z"/>
	<polygon fill="#6D2700" points="461.668,159.336 483.688,159.336 483.688,148.624 461.668,148.624 461.668,141.978 
		485.018,141.978 485.018,130.931 448.695,130.931 448.695,177.492 485.943,177.492 485.943,166.386 461.668,166.386 	"/>
	<path fill="#6D2700" d="M422.146,148.024c-4.517-0.651-7.626-0.977-7.626-4.19c0-2.667,3.804-3.664,6.959-3.664
		c4.014,0,7.628,0.877,10.783,3.288l6.442-8.262c-4.932-3.948-10.68-5.552-17.583-5.552c-9.729,0-19.62,4.646-19.62,14.556
		c0,11.647,8.895,13.646,18.735,14.871c5.256,0.657,7.693,1.982,7.693,4.324c0,2.611-2.96,4.518-7.234,4.518
		c-3.877,0-8.938-1.167-13.473-5.655l-7.167,8.479c5.614,5.927,12.65,8.191,20.937,8.124c10.321-0.065,19.822-4.98,19.822-15.625
		C440.814,152.452,431.442,149.367,422.146,148.024z"/>
	<path fill="#6D2700" d="M380.031,157.298c0,7.048-3.532,10.241-8.848,10.241c-5.323,0-8.847-3.061-8.847-10.373v-26.235h-13.104
		v26.312c0,14.234,8.315,21.616,21.951,21.616c13.633,0,22.013-7.715,21.955-21.482v-26.446h-13.107V157.298z"/>
	<polygon fill="#6D2700" points="313.558,146.694 301.313,130.931 287.55,130.931 287.55,177.492 300.587,177.492 300.587,149.822 
		312.226,163.855 314.552,163.855 326.462,149.754 326.462,177.492 339.493,177.492 339.493,130.931 325.796,130.931 	"/>
	<polygon fill="#6D2700" points="769.893,94.029 769.893,58.645 756.721,58.645 756.721,105.204 792.174,105.204 792.174,94.029 	
		"/>
	<polygon fill="#6D2700" points="727.87,58.645 714.689,58.645 714.689,105.204 750.138,105.204 750.138,94.029 727.87,94.029 	"/>
	<rect x="690.559" y="58.645" fill="#6D2700" width="13.169" height="46.56"/>
	<path fill="#6D2700" d="M676.093,80.727c4.062-1.861,5.122-5.519,5.122-9.044c0-8.913-7.584-13.039-16.894-13.039H640.51v46.56
		h24.012c8.514-0.064,18.021-3.19,18.021-13.635C682.542,87.378,680.415,83.058,676.093,80.727z M653.476,69.288h10.645
		c2.593,0,4.057,1.797,4.057,3.857c0,2.063-1.464,3.658-4.189,3.658h-10.512V69.288z M664.589,94.962h-11.113v-8.448h11.113
		c3.256,0,4.919,1.73,4.919,4.258C669.508,93.364,667.912,94.962,664.589,94.962z"/>
	<path fill="#6D2700" d="M589.977,57.313c-15.057,0-25.574,9.186-25.574,24.612c0,15.691,10.518,24.608,25.574,24.608
		c15.121,0,25.577-8.917,25.577-24.608C615.554,66.299,605.098,57.313,589.977,57.313z M589.977,95.203
		c-7.366,0-12.555-5.432-12.555-13.278c0-7.778,5.123-13.277,12.555-13.277c7.628,0,12.56,5.231,12.56,13.277
		C602.536,89.702,597.604,95.203,589.977,95.203z"/>
	<polygon fill="#6D2700" points="562.005,94.029 539.728,94.029 539.728,58.645 526.555,58.645 526.555,105.204 562.005,105.204 	
		"/>
	<path fill="#6D2700" d="M482.782,105.204l3.028-8.446h18.551l3.028,8.446h14.21l-18.889-46.56h-15.01l-18.889,46.56H482.782z
		 M495.086,70.886l5.602,15.628h-11.206L495.086,70.886z"/>
	<polygon fill="#6D2700" points="468.394,78.401 447.104,78.401 447.104,69.687 469.788,69.687 469.788,58.645 434.067,58.645 
		434.067,105.204 447.104,105.204 447.104,89.177 468.394,89.177 	"/>
	<polygon fill="#6D2700" points="403.512,89.177 424.798,89.177 424.798,78.401 403.512,78.401 403.512,69.687 426.196,69.687 
		426.196,58.645 390.475,58.645 390.475,105.204 403.512,105.204 	"/>
	<path fill="#6D2700" d="M380.742,85.089V58.645h-13.108V85.01c0,7.047-3.53,10.243-8.846,10.243c-5.323,0-8.847-3.061-8.847-10.378
		v-26.23h-13.104v26.314c0,14.23,8.313,21.615,21.951,21.615C372.418,106.573,380.799,98.859,380.742,85.089z"/>
	<path fill="#6D2700" d="M329.584,91.569c0-4.191-2.128-8.512-6.451-10.842c4.056-1.861,5.12-5.519,5.12-9.044
		c0-8.913-7.582-13.039-16.896-13.039H287.55v46.56h24.011C320.072,105.14,329.584,102.014,329.584,91.569z M300.518,69.288h10.643
		c2.593,0,4.057,1.797,4.057,3.857c0,2.063-1.464,3.658-4.189,3.658h-10.511V69.288z M300.518,86.514h11.109
		c3.257,0,4.921,1.73,4.921,4.258c0,2.592-1.598,4.189-4.921,4.189h-11.109V86.514z"/>
	<g>
		<path fill="#6D2700" d="M125.937,89.959c-6.266,0.968-13.262,4.334-17.135,7.735c-2.324,2.04-3.521,4.089-2.762,5.643
			c0.283,0.573,1.729,0.682,3.405,0.602c2.492-0.122,5.492-0.66,5.924-0.713c0.115-0.014,0.277,0.119,0.477,0.352
			c0.613,0.705,1.599,2.329,2.749,3.589c0.902,0.992,1.911,1.761,2.917,1.679c6.515-0.523,18.499-9.09,19.69-14.926
			C139.374,91.18,132.788,88.902,125.937,89.959z"/>
		<path fill="#6D2700" d="M221.354,72.385c9.905-11.899,12.618-17.521,10.983-21.916c-3.198-8.594-21.039-7.759-32.297-12.622
			c-15.645-6.759-41.204-38.258-78.418-37.843c-13.98,0.155-30.158,3.192-48.969,14.157C23.338,42.901-9.179,86.376,2.317,108.415
			c3.712,7.114,10.997,12.63,18.487,15.925c1.488,16.845,2.909,32.946,3.096,35.055c0.688,7.723,2.899,14.597,6.572,20.435
			c3.674,5.835,8.913,10.79,15.575,14.732c14.248,8.435,43.063,25.512,57.623,34.174c6.72,3.999,13.707,6.027,20.767,6.027
			c7.061,0,14.047-2.028,20.764-6.027c14.737-8.768,43.491-25.813,57.618-34.174c6.661-3.942,11.903-8.897,15.578-14.732
			c3.673-5.838,5.883-12.712,6.571-20.435c0.399-4.518,6.254-70.789,6.693-75.734c0.083-0.915,0.136-1.821,0.166-2.711
			c-0.026,0.028-0.053,0.06-0.076,0.09c-5.454,6.532-11.911,12.465-18.297,17.745c-1.604,18.165-3.979,45.053-4.928,55.786
			c-7.898-0.69-11.053,0.163-16.524,1.105c-5.177,0.888-8.884,1.916-11.976,1.625c-3-0.282-5.42-1.81-8.036-5.917
			c-0.171-0.269-0.231-2.105-0.226-2.848c0.007-1.085,0.149-2.386,0.28-3.095c3.197,0.991,5.883,0.707,8.097-0.319
			c4.533-2.103,7.752-6.496,8.547-9.062c0.082-0.259-0.216-0.611-0.623-0.95c-0.565-0.469-1.028-0.725-1.372-0.41
			c-1.855,1.699-3.949,0.837-5.096,0.35c-1.807-0.766-3.073-2.919-4.873-4.315c0.772-2.359,1.259-5.483,1.435-7.32
			c0.368-3.878,0.645-9.911-0.022-15.828C181.42,105.415,207.336,89.226,221.354,72.385z M51.4,177.978
			c-6.616-4.906-9.977-11.23-10.761-20.072c-0.35-3.933-1.421-16.074-2.617-29.595c3.558,0.49,7.067,0.84,10.321,1.062
			c2.312,11.503,6.312,18.513,12.42,25.705C58.111,159.791,54.029,170.49,51.4,177.978z M173.904,87.679
			c-0.397,0.598-1.643,0.359-3.136,0.627c-5.71,1.021-9.326,1.549-14.313,3.321c-2.53,0.895-3.362,2.61-2.091,5.794
			c3.729,9.363,6.495,17.241,6.495,21.697c-0.881,1.526-2.729,3.651-4.39,4.712c-1.138,0.727-2.416,1.163-3.738,0.919
			c-1.609-0.301-6.098-2.049-7.915-1.659c-1.817,0.392-5.738,3.542-5.355,4.211c0.382,0.669,7.077,2.615,5.164,2.716
			c-0.512,0.024-1.462,0.093-2.666,0.333c-3.321,0.654-10.162,1.316-13.347,6.026c-1.845,2.725-4.333,4.59-7.364,5.098
			c-1.98,0.333-3.669,0.168-4.915-1.757c-0.284-0.44-1.165-0.071-1.923,0.499c-0.579,0.434-1.093,1.136-1.014,1.367
			c1.47,4.197,5.499,9.509,11.798,10.697c2.333-1.735,10.093-4.338,15.606-5.185c4.54-0.693,11.202-1.338,11.966-1.338l0.065,7.44
			c-1.935,0.339-6.145,1.236-7.84,2.049c-0.839,0.406-1.336,1.388-1.616,3.86c-0.3,2.66-0.422,5.392-0.669,5.798
			c-0.261,0.425-1.932,1.439-4.028,2.276c-1.739,0.698-3.771,1.278-5.529,1.3c-9.043,0.12-26.559-2.949-33.088-11.022
			c-0.835-1.032-1.663-1.947-3.041-4.356c-0.438-0.771-0.714-1.013-0.861-0.941c-0.321,0.15-0.498,4.989-0.146,5.949
			c0.856,2.342,2.226,8.191,9.302,13.261c5.255,3.769,13.365,6.396,16.657,7.296c3.439,0.943,10.753,2.381,14.864,2.381
			c2.879,0,4.587,0.954,4.907,1.797c1.543,4.039,2.847,5.548,4.706,7.625c2.516,2.814,6.455,2.785,13.176,1.213
			c7.146-1.672,10.335-5.242,12.209-8.805c0.414,0.845-0.579,6.488-1.595,11.453c-11.459,6.797-23.211,13.77-31.061,18.436
			c-11.365-6.248-24.874-13.65-36.393-20.133c-6.91-3.887-14.669-7.226-15.466-19.775c-0.392-6.169-1.902-35.481-2.009-39.137
			c-0.008-0.241-0.3-0.461-0.637,0.195c-0.658,1.289-2.363,4.367-4.525,3.799c-7.727-2.014-13.289-11.06-15.827-20.25
			c-1.053-3.817-0.208-5.756,1.051-7.057c3.249-3.356,7.441-2.399,10.035-0.503l1.565,2.163c-2.702,0.485-3.998,1.42-3.953,4.347
			c0.059,4.136,3.064,8.749,3.064,8.749s1.038,1.276,2.022,1.343c0.563,0.035,2.285,0.308,2.042-0.313
			c-0.668-1.697-0.849-5.022,0.077-6.591c0.351-0.598,1.513-1.119,2.827-1.531c2.066-0.659,2.658-1.416,3.467-1.571
			c3.68-12.888,8.942-18.556,10.502-29.834c0.648-2.455-0.494-16.73-0.761-19.953c9.201-2.63,35.287-9.1,55.308-5.267
			c9.244,1.77,17.177,8.173,22.289,24.77C174.088,86.963,174.084,87.409,173.904,87.679z"/>
	</g>
</g>
</svg>
