<?xml version="1.0" encoding="utf-8"?>
<!-- Generator: Adobe Illustrator 15.1.0, SVG Export Plug-In . SVG Version: 6.00 Build 0)  -->
<!DOCTYPE svg PUBLIC "-//W3C//DTD SVG 1.1//EN" "http://www.w3.org/Graphics/SVG/1.1/DTD/svg11.dtd">
<svg version="1.1" id="Layer_1" xmlns="http://www.w3.org/2000/svg" xmlns:xlink="http://www.w3.org/1999/xlink" x="0px" y="0px"
	 width="792px" height="306px" viewBox="0 0 792 306" enable-background="new 0 0 792 306" xml:space="preserve">
<g>
	<polygon fill="#003A4A" points="780.916,164.579 770.955,177.415 760.978,164.579 749.765,164.579 749.765,202.498 
		760.386,202.498 760.386,179.963 769.865,191.393 771.76,191.393 781.461,179.908 781.461,202.498 792.074,202.498 
		792.074,164.579 	"/>
	<path fill="#003A4A" d="M731.155,186.051c0,5.74-2.872,8.342-7.205,8.342c-4.334,0-7.202-2.494-7.202-8.449v-21.364h-10.677v21.429
		c0,11.593,6.771,17.605,17.879,17.605c11.102,0,17.93-6.285,17.879-17.498v-21.536h-10.674V186.051z"/>
	<polygon fill="#003A4A" points="680.002,187.713 697.938,187.713 697.938,178.986 680.002,178.986 680.002,173.574 699.02,173.574 
		699.02,164.579 669.44,164.579 669.44,202.498 699.773,202.498 699.773,193.453 680.002,193.453 	"/>
	<path fill="#003A4A" d="M647.815,178.498c-3.68-0.531-6.211-0.796-6.211-3.412c0-2.172,3.102-2.984,5.669-2.984
		c3.267,0,6.209,0.715,8.78,2.676l5.247-6.725c-4.015-3.216-8.697-4.525-14.317-4.525c-7.925,0-15.979,3.785-15.979,11.856
		c0,9.485,7.242,11.114,15.258,12.11c4.278,0.535,6.265,1.617,6.265,3.522c0,2.128-2.411,3.679-5.89,3.679
		c-3.159,0-7.278-0.951-10.976-4.605l-5.834,6.904c4.572,4.827,10.303,6.671,17.05,6.617c8.404-0.051,16.146-4.059,16.146-12.727
		C663.022,182.105,655.385,179.594,647.815,178.498z"/>
	<path fill="#003A4A" d="M613.516,186.051c0,5.74-2.872,8.342-7.203,8.342c-4.334,0-7.203-2.494-7.203-8.449v-21.364h-10.676v21.429
		c0,11.593,6.775,17.605,17.879,17.605c11.103,0,17.929-6.285,17.878-17.498v-21.536h-10.675V186.051z"/>
	<polygon fill="#003A4A" points="559.381,177.415 549.41,164.579 538.197,164.579 538.197,202.498 548.816,202.498 548.816,179.963 
		558.295,191.393 560.188,191.393 569.888,179.908 569.888,202.498 580.501,202.498 580.501,164.579 569.349,164.579 	"/>
	<path fill="#003A4A" d="M502.114,178.498c-3.677-0.531-6.209-0.796-6.209-3.412c0-2.172,3.098-2.984,5.667-2.984
		c3.268,0,6.211,0.715,8.782,2.676l5.247-6.725c-4.016-3.216-8.698-4.525-14.32-4.525c-7.923,0-15.979,3.785-15.979,11.856
		c0,9.485,7.244,11.114,15.259,12.11c4.278,0.535,6.266,1.617,6.266,3.522c0,2.128-2.414,3.679-5.891,3.679
		c-3.158,0-7.281-0.951-10.976-4.605l-5.835,6.904c4.572,4.827,10.301,6.671,17.049,6.617c8.407-0.051,16.148-4.059,16.148-12.727
		C517.323,182.105,509.687,179.594,502.114,178.498z"/>
	<polygon fill="#003A4A" points="457.162,177.415 447.194,164.579 435.979,164.579 435.979,202.498 446.599,202.498 
		446.599,179.965 456.077,191.393 457.975,191.393 467.672,179.908 467.672,202.498 478.288,202.498 478.288,164.579 
		467.128,164.579 	"/>
	<path fill="#003A4A" d="M429.128,176.928c0-6.826-5.038-12.349-14.733-12.349H395.87v37.919h10.724v-12.826h3.915l8.3,12.826
		h12.544l-10.262-14.422C426.568,186.084,429.128,182.504,429.128,176.928z M414.326,181.709h-7.732v-8.747h7.801
		c2.816,0,4.171,1.978,4.171,4.359C418.565,179.597,417.305,181.709,414.326,181.709z"/>
	<path fill="#003A4A" d="M364.424,164.58l-15.384,37.918h11.375l2.467-6.881h15.109l2.468,6.881h11.571l-15.383-37.918H364.424z
		 M365.872,187.276l4.564-12.728L375,187.276H365.872z"/>
	<polygon fill="#003A4A" points="316.759,202.498 345.781,202.498 345.781,193.453 327.321,193.453 327.321,187.713 
		345.255,187.713 345.255,178.986 327.321,178.986 327.321,173.574 346.339,173.574 346.339,164.579 316.759,164.579 	"/>
	<path fill="#003A4A" d="M309.905,176.928c0-6.826-5.035-12.349-14.733-12.349h-18.524v37.919h10.725v-12.826h3.915l8.299,12.826
		h12.544l-10.261-14.422C307.346,186.084,309.905,182.504,309.905,176.928z M295.105,181.709h-7.733v-8.747h7.799
		c2.819,0,4.172,1.978,4.172,4.359C299.344,179.597,298.083,181.709,295.105,181.709z"/>
	<rect x="256.996" y="164.579" fill="#003A4A" width="10.726" height="37.919"/>
	<polygon fill="#003A4A" points="221.17,202.498 231.791,202.498 231.791,189.441 249.122,189.441 249.122,180.668 231.791,180.668 
		231.791,173.574 250.257,173.574 250.257,164.579 221.17,164.579 	"/>
	<polygon fill="#003A4A" points="354.819,143.625 365.544,143.625 365.544,128.51 380.93,105.706 368.523,105.706 360.342,118.707 
		352.485,105.706 340.128,105.706 354.819,128.51 	"/>
	<path fill="#003A4A" d="M341.157,124.394c0-10.454-6.444-18.688-19.825-18.688h-16.25v37.919h16.25
		C334.929,143.625,341.157,134.85,341.157,124.394z M315.7,114.643h5.632c6.553,0,9.208,4.442,9.208,9.644
		c0,5.199-2.383,10.292-9.208,10.292H315.7V114.643z"/>
	<path fill="#003A4A" d="M277.602,144.708c12.313,0,20.829-7.263,20.829-20.042c0-12.724-8.516-20.044-20.829-20.044
		c-12.265,0-20.83,7.482-20.83,20.044C256.772,137.445,265.337,144.708,277.602,144.708z M277.602,113.853
		c6.21,0,10.226,4.262,10.226,10.813c0,6.333-4.016,10.815-10.226,10.815c-6,0-10.226-4.426-10.226-10.815
		C267.376,118.331,271.548,113.853,277.602,113.853z"/>
	<path fill="#003A4A" d="M239.445,135.568c-7.39,0-9.959-5.626-10.012-10.595c-0.052-4.969,2.782-10.98,10.012-10.98
		c2.52,0,5.951,0.91,8.627,3.531l5.884-6.75c-4.231-4.206-9.102-6.119-14.511-6.119c-14.084,0-20.749,10.429-20.703,20.263
		c0.057,10.377,5.787,19.823,20.508,19.823c5.678,0,10.58-1.934,15.073-6.757l-5.56-7.102
		C246.074,134.177,242.228,135.568,239.445,135.568z"/>
	<path fill="#003A4A" d="M159.406,96.148c-3.211-1.707-11.056-5.868-19.814-10.512c-16.252,6.99-55.259,23.762-57.152,24.578
		c-3.748,1.611-6.075,4.419-5.327,6.155c0.598,1.387,3.234,3.372,9.789,0.572c4.682-2,27.042-11.633,27.042-11.633l4.329,10.063
		c0,0-22.943,9.882-26.936,11.586c-5.53,2.358-7.178,5.805-6.229,8.006c1.082,2.515,4.621,4.092,10.596,1.523
		c3.432-1.478,26.709-11.492,26.709-11.492l4.124,9.588c0,0-22.938,9.879-26.929,11.586c-5.528,2.36-7.095,5.989-6.337,7.75
		c0.248,0.577,1.063,1.925,1.691,2.225c-5.296,2.278-9.187,3.954-9.42,4.056c-1.838,0.789-2.506,0.517-3.273-1.264
		c-1.882-4.375-17.662-41.05-17.662-41.05c-5.441,2.342-8.991,5.951-9.978,10.785c-1.386,6.797,1.636,16.133,7.098,23.64
		c-4.375,6.67-3.312,15.191,2.585,22.365c-13.071,7.211-18.743,24.795-19.804,37.676c-4.967-2.943-9.522-5.639-13.05-7.729
		c-2.729-1.614-4.925-3.428-6.641-5.516c2.834-15.863,11.046-33.102,26.5-45.105c-4.253-5.458-4.828-11.373-5.149-16.438
		c-3.945-0.375-5.678-1.898-7.152-3.563c-1.617-1.83-1.793-3.991-3.936-6.005c-1.746-1.642-6.667-3.311-11.523-3.806
		c0.932-3.017,3.86-5.478,7.716-6.434c2.339-0.58,5.094,1.752,7.271,2.723c2.84,1.27,7.247,1.36,9.433,0.357
		c3.38-1.552,3.732-3.643,6.447-9.226c0.624-1.287,2.43-2.49,5.936-3.999c7.607-3.271,49.726-21.382,66.629-28.651
		c-11.535-6.113-21.613-11.454-21.828-11.568C99.669,64.478,94.003,63,88.325,63c-5.677,0-11.341,1.478-16.834,4.39
		c-0.453,0.24-45.307,24.003-54.248,28.762C10.82,99.569,6.23,104.19,3.567,109.836C1.335,114.567,0.461,120.018,1,126.081
		c0.364,4.101,5.129,58.071,5.449,61.677c0.56,6.29,2.361,11.891,5.351,16.642c2.995,4.753,7.261,8.79,12.687,12.001
		c11.604,6.867,35.072,20.775,46.929,27.833c5.473,3.255,11.163,4.905,16.912,4.905c5.751,0,11.44-1.65,16.909-4.905
		c12.003-7.143,35.421-21.023,46.927-27.833c5.424-3.21,9.692-7.248,12.686-12.001c2.992-4.751,4.792-10.352,5.353-16.642
		c0.326-3.68,5.094-57.649,5.451-61.677c0.54-6.061-0.336-11.508-2.564-16.238C170.427,104.194,165.834,99.571,159.406,96.148z
		 M82.653,184.262c0.499-2.06,4.168-4.953,5.473-6.078c1.224,7.559,5.049,12.178,9.785,13.029c1.45,0.26,3.325-0.88,3.873-1.4
		c0.729-0.688,0.794-0.842,0.297-1.499c-0.567-0.749-2.589-1.433-3.929-3.385c-2.078-3.031-3.51-7.569-3.394-11.243
		c5.587-3.906,8.726-4.807,11.434-4.289c3.936,0.751,7.872,5.732,8.381,10.254c0.474,4.237-2.289,9.697-8.918,14.324
		c-4.813,3.361-10.462,4.834-15.242,2.648C86.467,194.82,81.646,188.428,82.653,184.262z M162.023,124.87
		c-0.688,7.723-4.768,53.985-5.454,61.677c-0.734,8.281-4.243,13.855-11.375,18.074c-11.842,7.011-35.223,20.87-46.957,27.853
		c-6.776,4.033-13.049,4.031-19.823,0c-2.667-1.59-5.937-3.531-9.535-5.669c-3.232-1.918-4.918-4.749-5.639-6.758
		c-3.622-10.075-1.377-18.428,6.742-25.313c2.296-1.948,4.543-0.489,6.776,1.46c2.51,2.188,5.724,6.117,9.459,7.934
		c7.423,3.609,16.566,2.109,24.325-3.281c13.036-9.057,15.775-19.555,10.389-30.604c-2.15-4.413,2.29-9.104,6.464-11.85
		c4.239-2.784,5.541-3.608,9.634-6.271c6.521-4.229,6.607-5.229,4.948-9.092c-0.399-0.929-2.858-6.647-3.432-7.977
		c-1.951-4.536-2.002-8.29,1.937-10.247l-2.737-6.36l18.668-8.021C160.895,113.899,162.597,118.405,162.023,124.87z"/>
</g>
</svg>
