<?xml version="1.0" encoding="utf-8"?>
<!-- Generator: Adobe Illustrator 15.1.0, SVG Export Plug-In . SVG Version: 6.00 Build 0)  -->
<!DOCTYPE svg PUBLIC "-//W3C//DTD SVG 1.1//EN" "http://www.w3.org/Graphics/SVG/1.1/DTD/svg11.dtd">
<svg version="1.1" id="Layer_1" xmlns="http://www.w3.org/2000/svg" xmlns:xlink="http://www.w3.org/1999/xlink" x="0px" y="0px"
	 width="792px" height="306px" viewBox="0 0 792 306" enable-background="new 0 0 792 306" xml:space="preserve">
<g>
	<polygon fill="#005244" points="777.463,154.019 769.883,163.787 762.292,154.019 753.757,154.019 753.757,182.875 
		761.839,182.875 761.839,165.728 769.048,174.424 770.493,174.424 777.88,165.687 777.88,182.875 785.957,182.875 785.957,154.019 
			"/>
	<path fill="#005244" d="M739.597,170.359c0,4.368-2.188,6.348-5.484,6.348c-3.301,0-5.484-1.897-5.484-6.43v-16.259h-8.121v16.308
		c0,8.822,5.155,13.398,13.605,13.398c8.447,0,13.641-4.783,13.608-13.316v-16.39h-8.124V170.359z"/>
	<polygon fill="#005244" points="700.668,171.624 714.314,171.624 714.314,164.983 700.668,164.983 700.668,160.863 
		715.138,160.863 715.138,154.019 692.629,154.019 692.629,182.875 715.712,182.875 715.712,175.992 700.668,175.992 	"/>
	<path fill="#005244" d="M677.17,164.611c-2.801-0.402-4.727-0.605-4.727-2.596c0-1.652,2.356-2.271,4.313-2.271
		c2.488,0,4.729,0.543,6.687,2.035l3.993-5.117c-3.057-2.447-6.621-3.444-10.899-3.444c-6.028,0-12.161,2.881-12.161,9.023
		c0,7.219,5.512,8.458,11.614,9.217c3.255,0.406,4.768,1.23,4.768,2.682c0,1.618-1.835,2.798-4.482,2.798
		c-2.405,0-5.542-0.723-8.354-3.505l-4.441,5.257c3.479,3.672,7.838,5.074,12.977,5.033c6.396-0.039,12.287-3.088,12.287-9.685
		C688.743,167.357,682.935,165.443,677.17,164.611z"/>
	<path fill="#005244" d="M651.069,170.359c0,4.368-2.188,6.348-5.481,6.348c-3.302,0-5.482-1.897-5.482-6.43v-16.259h-8.123v16.308
		c0,8.822,5.149,13.398,13.605,13.398c8.447,0,13.641-4.783,13.604-13.316v-16.39h-8.123V170.359z"/>
	<polygon fill="#005244" points="609.872,163.787 602.281,154.019 593.751,154.019 593.751,182.875 601.83,182.875 601.83,165.728 
		609.045,174.424 610.486,174.424 617.869,165.687 617.869,182.875 625.943,182.875 625.943,154.019 617.454,154.019 	"/>
	<polygon fill="#005244" points="565.675,163.914 559.696,154.019 550.291,154.019 561.474,171.374 561.474,182.875 
		569.633,182.875 569.633,171.374 581.34,154.019 571.901,154.019 	"/>
	<path fill="#005244" d="M549.652,163.416c0-5.193-3.832-9.397-11.209-9.397h-14.098v28.856h8.16v-9.76h2.979l6.315,9.76h9.546
		l-7.809-10.975C547.704,170.385,549.652,167.66,549.652,163.416z M538.392,167.056h-5.886v-6.657h5.938
		c2.143,0,3.172,1.505,3.172,3.317C541.615,165.447,540.655,167.056,538.392,167.056z"/>
	<path fill="#005244" d="M503.432,153.193c-9.333,0-15.85,5.695-15.85,15.254c0,9.727,6.517,15.252,15.85,15.252
		c9.369,0,15.851-5.525,15.851-15.252C519.282,158.765,512.801,153.193,503.432,153.193z M503.432,176.678
		c-4.565,0-7.783-3.369-7.783-8.23c0-4.82,3.177-8.229,7.783-8.229c4.726,0,7.782,3.24,7.782,8.229
		C511.214,173.268,508.157,176.678,503.432,176.678z"/>
	<polygon fill="#005244" points="460.76,160.74 469.173,160.74 469.173,182.875 477.291,182.875 477.291,160.74 485.744,160.74 
		485.744,154.019 460.76,154.019 	"/>
	<path fill="#005244" d="M447.881,164.611c-2.797-0.402-4.727-0.605-4.727-2.596c0-1.652,2.359-2.271,4.314-2.271
		c2.488,0,4.728,0.543,6.684,2.035l3.993-5.117c-3.057-2.447-6.619-3.444-10.897-3.444c-6.031,0-12.161,2.881-12.161,9.023
		c0,7.219,5.512,8.458,11.611,9.217c3.259,0.406,4.768,1.23,4.768,2.682c0,1.618-1.833,2.798-4.481,2.798
		c-2.401,0-5.544-0.723-8.354-3.505l-4.44,5.257c3.479,3.672,7.841,5.074,12.977,5.033c6.396-0.039,12.287-3.088,12.287-9.685
		C459.454,167.357,453.643,165.443,447.881,164.611z"/>
	<rect x="421.585" y="154.019" fill="#005244" width="8.166" height="28.856"/>
	<polygon fill="#005244" points="406.63,165.027 396.243,165.027 396.243,154.062 388.081,154.062 388.081,182.917 396.243,182.917 
		396.243,171.99 406.63,171.99 406.63,182.917 414.793,182.917 414.793,154.062 406.63,154.062 	"/>
	<polygon fill="#005244" points="361.517,154.019 353.354,154.019 353.354,182.875 375.335,182.875 375.335,175.951 
		361.517,175.951 	"/>
	<path fill="#005244" d="M329.273,154.02l-11.708,28.855h8.657l1.877-5.235h11.5l1.877,5.235h8.807l-11.707-28.855H329.273z
		 M330.376,171.292l3.473-9.687l3.473,9.687H330.376z"/>
	<path fill="#005244" d="M315.512,163.416c0-5.193-3.833-9.397-11.212-9.397h-14.097v28.856h8.162v-9.76h2.978l6.316,9.76h9.546
		l-7.809-10.975C313.564,170.385,315.512,167.66,315.512,163.416z M304.249,167.056h-5.884v-6.657h5.935
		c2.145,0,3.175,1.505,3.175,3.317C307.474,165.447,306.515,167.056,304.249,167.056z"/>
	<path fill="#005244" d="M276.047,170.359c0,4.368-2.188,6.348-5.484,6.348c-3.299,0-5.483-1.897-5.483-6.43v-16.259h-8.123v16.308
		c0,8.822,5.154,13.398,13.605,13.398c8.449,0,13.642-4.783,13.607-13.316v-16.39h-8.124V170.359z"/>
	<polygon fill="#005244" points="227.5,160.74 235.91,160.74 235.91,182.875 244.033,182.875 244.033,160.74 252.482,160.74 
		252.482,154.019 227.5,154.019 	"/>
	<path fill="#005244" d="M209.383,154.02l-11.708,28.855h8.657l1.877-5.235h11.499l1.878,5.235h8.806l-11.707-28.855H209.383z
		 M210.486,171.292l3.473-9.687l3.473,9.687H210.486z"/>
	<path fill="#005244" d="M186.55,163.914c0.041,1.113,0.041,2.432,0.247,5.894L174.6,154.019h-6.929v28.856h8.25v-9.234
		l-0.129-6.305l12.038,15.539h6.925v-28.856h-8.204V163.914z"/>
	<path fill="#005244" d="M330.61,128.312h2.979l6.317,9.76h9.545l-7.809-10.974c4.168-1.516,6.116-4.24,6.116-8.483
		c0-5.195-3.833-9.399-11.213-9.399h-14.097v28.857h8.161V128.312z M330.61,115.595h5.936c2.145,0,3.174,1.505,3.174,3.317
		c0,1.733-0.959,3.339-3.225,3.339h-5.885V115.595z"/>
	<polygon fill="#005244" points="316.682,131.188 301.635,131.188 301.635,126.818 315.28,126.818 315.28,120.183 301.635,120.183 
		301.635,116.058 316.105,116.058 316.105,109.215 293.596,109.215 293.596,138.072 316.682,138.072 	"/>
	<path fill="#005244" d="M277.446,109.215h-14.017v28.857h8.157v-7.79h5.86c7.703-0.082,11.577-4.66,11.577-10.554
		C289.022,114.081,285.188,109.215,277.446,109.215z M277.446,123.396h-5.86v-7.172h5.86c2.219,0,3.416,1.73,3.416,3.629
		C280.862,121.747,279.706,123.396,277.446,123.396z"/>
	<path fill="#005244" d="M238.176,132.838h11.498l1.878,5.234h8.807l-11.708-28.857h-9.302l-11.707,28.857h8.657L238.176,132.838z
		 M243.924,116.804l3.474,9.686h-6.947L243.924,116.804z"/>
	<path fill="#005244" d="M208.352,128.312h2.979l6.315,9.76h9.546l-7.809-10.974c4.168-1.516,6.117-4.24,6.117-8.483
		c0-5.195-3.834-9.399-11.213-9.399H200.19v28.857h8.162V128.312z M208.352,115.595h5.935c2.145,0,3.175,1.505,3.175,3.317
		c0,1.733-0.96,3.339-3.226,3.339h-5.884V115.595z"/>
	<path fill="#005244" d="M180.036,109.215h-12.365v28.857h12.365c10.35,0,15.089-6.676,15.089-14.635
		C195.125,115.481,190.22,109.215,180.036,109.215z M180.036,131.188h-4.286v-15.17h4.286c4.99,0,7.009,3.379,7.009,7.338
		C187.045,127.313,185.231,131.188,180.036,131.188z"/>
	<path fill="#005244" d="M122.352,102.911c4.603-10.159,2.868-20.032-3.982-26.882c-1.849-1.847-7.491-3.852-10.731-3.581
		c-4.269,0.357-10.317,2.455-17.184,7.099c-5.462-1.122-16.015-1.731-22.299-1.299c-3.327-3.829-5.962-6.517-10.171-8.665
		c-3.557-1.815-10.536-2.424-15.114,0.095c-6.016,3.313-7.466,10.504-6.887,16.71c0.422,4.516,1.344,8.24,0.344,10.844
		c-1.06,2.751-2.147,7.503-2.197,9.892c-4.994,2.729-6.792,9.059-8.33,15.279c-2.153,8.718-0.791,18.426,0.202,21.704
		c2.37,7.842,1.22,23.467,0.611,29.164c-0.219,2.029-3.708,5.872-6.783,8.691c-3.129-2.857-4.767-6.451-5.191-11.227
		c-0.521-5.851-3.625-41.06-4.147-46.937c-0.536-6.024,1.521-9.809,6.881-12.662c1.713-0.912,5.135-2.729,9.308-4.94
		c0.417-5.266,2.086-7.631,2.337-9.592c0.151-1.179,0.008-2.305-0.188-3.335c-7.167,3.798-13.751,7.291-16.351,8.673
		c-4.604,2.451-7.972,5.713-10.04,9.674c-1.969,3.769-2.761,8.171-2.321,13.105c0.276,3.121,3.903,44.192,4.146,46.936
		c0.426,4.787,1.797,9.048,4.074,12.665c2.277,3.616,5.524,6.688,9.653,9.133c8.831,5.226,26.69,15.812,35.714,21.18
		c4.165,2.479,8.495,3.735,12.871,3.735s8.706-1.257,12.868-3.735c9.136-5.434,26.957-15.997,35.712-21.18
		c4.127-2.442,7.376-5.517,9.655-9.133c2.275-3.617,3.646-7.876,4.073-12.665c0.248-2.8,3.876-43.872,4.148-46.937
		c0.356-4.005-0.099-7.66-1.336-10.91C130.01,109.383,126.87,105.706,122.352,102.911z M117.99,173.974
		c-1.103,4.571-3.698,7.892-8.138,10.519c-9.014,5.334-26.805,15.882-35.734,21.195c-3.036,1.807-5.941,2.549-8.868,2.229
		c6.274-6.618,15.915-17.324,18.344-21.226c1.492-2.397,1.777-5.535,1.228-9.103c-1.097-7.12-8.07-17.741-13.244-25.873
		c-1.674-2.627-0.698-4.177,2.599-5.814c2.357,1.17,10.2,6.359,11.625,7.069c4.356,2.179,11.215-1.487,11.805-4.063
		c0.988-4.322,3.658-9.48,5.689-13.31c1.965-3.707,2.875-9.093,2.785-12.938c-0.087-3.536-4.273-8.407-4.791-9.043
		c0.784-0.539,2.861-1.967,2.861-1.967c1.392-0.966,1.114-2.349,0.071-3.845c-0.784-1.125-2.456-2.903-3.722-4.027
		c-0.971-0.862-3.126-0.312-4.207,0.342c-1.388,0.84-2.362,1.859-3.081,3.117c-0.435,0.761-0.345,1.763-0.23,2.16
		c0.498,1.718,4.079,4.357,4.778,6.161c-0.125,0.431-1.045,3.827-1.195,4.352c-1.234-1.2-2.695-3.633-5.55-4.148
		c-2.37-0.427-4.106,0.106-6.088,1.362c-2.436,1.604-4.559,3.731-5.915,5.336c-0.602-0.452-1.74-1.306-2.768-2.078
		c0.713-1.987,2.138-4.095,2.718-5.133c0.695-1.248,1.338-2.393,1.625-3.017c0.556-1.212,1.191-1.521,0.908-3.325
		c-0.497-3.102-3.268-6.026-5.361-6.354c-2.923-0.452-8.378,4.561-10.388,6.465c-0.587-0.077-1.49-0.95-2.207-1.513
		c-0.262-0.335,0.001-1.211,0.373-2.087c0.96-2.266,3.791-6.533,6.835-9.054c0.74-0.523-0.928-2.146-3.535-0.673
		c-4.053,2.292-12.124,10.462-14.199,15.886c-2.533,6.62-2.079,9.756-0.6,15.883c0.508,4.257-1.578,3.707-2.626,1.644
		c-0.897-1.92-2.503-9.983-5.765-10.803c-2.231-0.563-5.851,1.083-10.441,3.558c1.673-4.655,2.321-7.236,6.091-10.89
		c2.206-2.137,5.588-5.328,8.37-6.552c2.37-4.662,7.383-9.377,10.495-12.224c-1.562-3.25-3.561-5.907-5.738-8.879
		c-1.222-1.67-2.218-2.904-4.348-2.842c-2.329,0.066-3.248-0.114-3.541-1.042c-0.326-1.038,0.24-2.572,3.25-3.539
		c3.072-0.984,6.521,0.654,8.409,2.089c3.657,2.782,6.673,5.936,8.404,9.098c8.499-0.394,20.623,0.442,28.886,1.85
		c3.041-2.23,6.14-4.702,11.43-6.429c4.978-1.626,9.229-1.205,11.36,5.492c0.286,0.897,0.398,2.488,0.284,3.526
		c-0.22,2.01-0.707,4.051-1.087,4.847c-0.058,0.12-0.083,0.182-0.118,0.17c-0.029-0.011-0.049-0.078-0.078-0.202
		c-0.464-1.962-0.764-3.084-1.85-4.569c-1.006-1.375-1.995-2.248-2.944-2.727c-1.537-0.774-3.069-0.17-4.933,0.852
		c-1.704,1.167-2.097,1.684-3.48,3.289c2.562,1.91,4.144,3.731,6.137,6.836c0.032,0.049,0.063,0.097,0.093,0.146
		c2.895,4.608,5.412,10.921,9.036,18.91c0.465,1.896,1.863,7.21,1.941,12.477c0.052,3.639-0.622,7.229-2.444,9.712
		c-3.106,4.234-6.462,12.742-8.461,21.027C110.61,165.154,114.711,170.414,117.99,173.974z"/>
</g>
</svg>
