<?xml version="1.0" encoding="utf-8"?>
<!-- Generator: Adobe Illustrator 15.1.0, SVG Export Plug-In . SVG Version: 6.00 Build 0)  -->
<!DOCTYPE svg PUBLIC "-//W3C//DTD SVG 1.1//EN" "http://www.w3.org/Graphics/SVG/1.1/DTD/svg11.dtd">
<svg version="1.1" id="Layer_1" xmlns="http://www.w3.org/2000/svg" xmlns:xlink="http://www.w3.org/1999/xlink" x="0px" y="0px"
	 width="792px" height="306px" viewBox="0 0 792 306" enable-background="new 0 0 792 306" xml:space="preserve">
<g>
	<polygon fill="#CB521E" points="546.641,185.221 534.605,169.734 521.074,169.734 521.074,215.482 533.884,215.482 
		533.884,188.297 545.32,202.084 547.612,202.084 559.318,188.229 559.318,215.482 572.123,215.482 572.123,169.734 
		558.656,169.734 	"/>
	<path fill="#CB521E" d="M498.624,195.64c0,6.925-3.471,10.064-8.694,10.064c-5.229,0-8.692-3.009-8.692-10.195v-25.774h-12.878
		v25.854c0,13.984,8.17,21.238,21.57,21.238c13.395,0,21.63-7.58,21.573-21.108v-25.983h-12.879V195.64z"/>
	<polygon fill="#CB521E" points="436.909,197.645 458.544,197.645 458.544,187.117 436.909,187.117 436.909,180.586 459.85,180.586 
		459.85,169.734 424.16,169.734 424.16,215.482 460.761,215.482 460.761,204.569 436.909,204.569 	"/>
	<path fill="#CB521E" d="M398.072,186.527c-4.438-0.641-7.492-0.96-7.492-4.117c0-2.621,3.738-3.601,6.838-3.601
		c3.943,0,7.494,0.862,10.596,3.229l6.329-8.114c-4.846-3.879-10.493-5.459-17.278-5.459c-9.559,0-19.276,4.567-19.276,14.305
		c0,11.444,8.738,13.41,18.41,14.612c5.163,0.644,7.559,1.948,7.559,4.251c0,2.564-2.909,4.437-7.109,4.437
		c-3.81,0-8.784-1.146-13.239-5.556l-7.042,8.329c5.518,5.823,12.432,8.049,20.574,7.983c10.14-0.063,19.477-4.896,19.477-15.354
		C416.418,190.879,407.207,187.847,398.072,186.527z"/>
	<path fill="#CB521E" d="M356.692,195.64c0,6.925-3.47,10.064-8.694,10.064c-5.23,0-8.692-3.009-8.692-10.195v-25.774h-12.877
		v25.854c0,13.984,8.17,21.238,21.569,21.238c13.395,0,21.629-7.58,21.574-21.108v-25.983h-12.88V195.64z"/>
	<polygon fill="#CB521E" points="291.376,185.221 279.344,169.734 265.821,169.734 265.821,215.482 278.631,215.482 
		278.631,188.297 290.067,202.084 292.353,202.084 304.056,188.229 304.056,215.482 316.86,215.482 316.86,169.734 303.401,169.734 
			"/>
	<path fill="#CB521E" d="M777.69,98.704v15.685c0.067,1.766,0.067,3.858,0.39,9.346l-19.336-25.031h-10.985v45.749h13.071v-14.638
		l-0.196-10.001l19.086,24.639h10.978V98.704H777.69z"/>
	<path fill="#CB521E" d="M709.816,98.704l-18.559,45.749h13.724l2.977-8.296h18.229l2.98,8.296h13.959l-18.562-45.749H709.816z
		 M711.564,126.088l5.508-15.356l5.508,15.356H711.564z"/>
	<rect x="673.686" y="98.704" fill="#CB521E" width="12.942" height="45.749"/>
	<path fill="#CB521E" d="M641.738,98.704h-19.605v45.749h19.605c16.406,0,23.919-10.586,23.919-23.202
		C665.657,108.637,657.883,98.704,641.738,98.704z M641.738,133.54h-6.796v-24.051h6.796c7.907,0,11.111,5.357,11.111,11.634
		C652.85,127.396,649.975,133.54,641.738,133.54z"/>
	<path fill="#CB521E" d="M598.354,114.389c0.064,1.766,0.064,3.858,0.394,9.346l-19.346-25.031h-10.98v45.749h13.07v-14.638
		l-0.195-10.001l19.084,24.639h10.979V98.704h-13.006V114.389z"/>
	<rect x="544.713" y="98.704" fill="#CB521E" width="12.938" height="45.749"/>
	<path fill="#CB521E" d="M503.576,115.499c-4.438-0.64-7.494-0.96-7.494-4.119c0-2.621,3.741-3.601,6.841-3.601
		c3.941,0,7.492,0.862,10.595,3.229l6.33-8.111c-4.845-3.881-10.492-5.462-17.277-5.462c-9.56,0-19.278,4.569-19.278,14.305
		c0,11.447,8.74,13.41,18.411,14.614c5.161,0.642,7.559,1.948,7.559,4.25c0,2.566-2.91,4.437-7.107,4.437
		c-3.811,0-8.786-1.149-13.241-5.556l-7.041,8.329c5.518,5.823,12.431,8.05,20.572,7.985c10.141-0.065,19.479-4.898,19.479-15.356
		C521.923,119.853,512.712,116.82,503.576,115.499z"/>
	<path fill="#CB521E" d="M474.83,98.704h-12.996v15.685c0.059,1.766,0.059,3.858,0.383,9.346l-19.339-25.031h-10.981v45.749h13.074
		v-14.638l-0.201-10.001l19.085,24.639h10.976V98.704z"/>
	<rect x="408.186" y="98.704" fill="#CB521E" width="12.94" height="45.749"/>
	<path fill="#CB521E" d="M368.385,136.156h18.229l2.977,8.296h13.96l-18.558-45.749h-14.75l-18.559,45.749h13.724L368.385,136.156z
		 M377.499,110.731l5.507,15.356h-11.012L377.499,110.731z"/>
	<polygon fill="#CB521E" points="348.721,133.474 326.832,133.474 326.832,98.704 313.886,98.704 313.886,144.453 348.721,144.453 	
		"/>
	<path fill="#CB521E" d="M278.758,132.103h9.282c12.219-0.13,18.359-7.388,18.359-16.734c0-8.956-6.075-16.665-18.359-16.665
		h-22.219v45.749h12.938V132.103z M278.758,109.815h9.282c3.525,0,5.424,2.743,5.424,5.754c0,3-1.824,5.619-5.424,5.619h-9.282
		V109.815z"/>
	<path fill="#CB521E" d="M191.302,87.174c-5.587-2.974-22.794-12.095-38.163-20.239l21.017-33.493L169.444,31l-43.038,60.032
		l20.042-51.81l-4.641-2.167L123.61,75.647l0.759-38.182l-5.565-0.261l-4.074,39.416l-13.345-34.416l-4.912,2.19l14.629,49.195
		c0,0-3.036,4.931-3.048,4.953L76.167,32.034l-5.183,2.157l20.543,54.08c-29.255,7.796-50.984,30.454-51.143,65.409
		c-3.565,0.942-13.324,3.949-20.394,6.135c-1.461-16.534-2.936-33.26-3.358-37.99c-0.851-9.55,2.41-15.552,10.909-20.074
		c6.875-3.66,31.099-16.497,48.056-25.481l-5.909-15.557c-17.012,9.015-42.813,22.688-49.904,26.461
		c-7.299,3.886-12.639,9.061-15.917,15.337c-3.121,5.976-4.377,12.953-3.68,20.775c0.438,4.948,6.188,70.063,6.573,74.413
		c0.676,7.589,2.849,14.344,6.456,20.078c3.613,5.734,8.76,10.604,15.306,14.479c14,8.285,42.314,25.065,56.62,33.579
		c6.603,3.93,13.468,5.919,20.405,5.919c6.938,0,13.802-1.991,20.4-5.919c14.482-8.616,42.736-25.363,56.618-33.579
		c6.544-3.875,11.693-8.745,15.306-14.479c3.607-5.734,5.781-12.489,6.457-20.078c0.393-4.438,6.146-69.554,6.577-74.413
		c0.565-6.35-0.157-12.146-2.119-17.298C205.792,98.125,199.911,91.755,191.302,87.174z M113.442,236.465
		c-25.702,0.988-55.242-5.678-66.641-12.574c-2.351-1.422-3.908-2.896-4.521-4.268l48.997-89.828
		c-1.867-11.081-3.699-23.283-3.737-24.598c-0.02-0.734,0.176-0.906,1.743-0.823c2.264,0.122,14.733,3.845,17.41,4.759
		l-7.133,13.545l9.613,9.019c2.083,10.606,9.193,61.367,9.172,76.536C117.428,217.2,115.563,229.907,113.442,236.465z
		 M167.231,222.145c-5.781,3.424-12.874,5.891-20.605,7.722c0,0-11.966-15.844-14.312-22.04c-0.451-3.563-0.934-7.228-1.442-10.95
		c2.662-0.979,7.202-2.407,8.856-2.784c0.544-0.124,0.465-2.819,0.241-3.912c-0.213-1.036-0.648-3.409-1.194-3.328
		c-1.445,0.209-6.46,1.171-9.055,1.768c-0.495-3.468-1.009-6.953-1.53-10.43c2.853-0.893,7.329-2.251,7.958-2.453
		c0.348-0.113,0.317-2.695,0.134-3.662c-0.189-0.995-0.548-3.498-1.026-3.424c-1.486,0.219-5.903,0.959-8.317,1.393
		c-0.51-3.244-1.023-6.45-1.54-9.594c2.307-0.634,6.067-1.624,7.576-2.031c0.301-0.078,0.348-2.643,0.199-3.579
		c-0.145-0.901-0.47-3.313-0.929-3.25c-1.359,0.122-5.667,0.797-8.125,1.217c-1.268-7.43-2.521-14.333-3.688-20.283
		c6.87-8.364,8.406-13.231,8.406-13.231s-4.118-7.606-5.593-10.332c3.223-1.228,11.867-4.487,14.885-4.693
		c0.737-0.052,1.373-0.033,1.863,0.081c0.218,0.05,0.31,0.324,0.442,1.097c0.613,3.659,0.199,16.203-13.021,31.768l1.935,5.578
		c3.16-2.355,8.017-6.463,10.977-10.892l41.141,75.397C178.861,213.382,173.834,218.239,167.231,222.145z M194.46,121.825
		c-0.417,4.657-1.853,20.938-3.292,37.214c-4.712-1.137-11.37-2.598-14.142-3.068c0.761-26.97-12.848-52.771-39.617-63.977
		l6.93-11.037c15.608,8.271,33.463,17.738,39.207,20.794C192.045,106.273,195.307,112.275,194.46,121.825z"/>
</g>
</svg>
