<?xml version="1.0" encoding="utf-8"?>
<!-- Generator: Adobe Illustrator 15.1.0, SVG Export Plug-In . SVG Version: 6.00 Build 0)  -->
<!DOCTYPE svg PUBLIC "-//W3C//DTD SVG 1.1//EN" "http://www.w3.org/Graphics/SVG/1.1/DTD/svg11.dtd">
<svg version="1.1" id="Layer_1" xmlns="http://www.w3.org/2000/svg" xmlns:xlink="http://www.w3.org/1999/xlink" x="0px" y="0px"
	 width="792px" height="306px" viewBox="0 0 792 306" enable-background="new 0 0 792 306" xml:space="preserve">
<g>
	<polygon fill="#A30B35" points="781.957,160.818 773.277,172.004 764.585,160.818 754.811,160.818 754.811,193.861 
		764.063,193.861 764.063,174.225 772.324,184.184 773.979,184.184 782.432,174.176 782.432,193.861 791.684,193.861 
		791.684,160.818 	"/>
	<path fill="#A30B35" d="M738.596,179.528c0,5.002-2.509,7.269-6.279,7.269c-3.78,0-6.277-2.172-6.277-7.363v-18.615h-9.303v18.67
		c0,10.105,5.899,15.344,15.58,15.344c9.676,0,15.623-5.477,15.582-15.247v-18.767h-9.303V179.528z"/>
	<polygon fill="#A30B35" points="694.019,180.977 709.648,180.977 709.648,173.374 694.019,173.374 694.019,168.655 
		710.588,168.655 710.588,160.818 684.811,160.818 684.811,193.861 711.249,193.861 711.249,185.979 694.019,185.979 	"/>
	<path fill="#A30B35" d="M665.967,172.949c-3.205-0.464-5.409-0.696-5.409-2.979c0-1.89,2.698-2.599,4.938-2.599
		c2.849,0,5.412,0.622,7.654,2.331l4.569-5.859c-3.497-2.803-7.576-3.942-12.479-3.942c-6.903,0-13.926,3.3-13.926,10.331
		c0,8.266,6.315,9.686,13.3,10.554c3.729,0.466,5.459,1.409,5.459,3.071c0,1.851-2.101,3.204-5.132,3.204
		c-2.752,0-6.347-0.829-9.563-4.015l-5.089,6.018c3.985,4.208,8.982,5.813,14.863,5.768c7.324-0.049,14.066-3.537,14.066-11.092
		C679.219,176.091,672.564,173.9,665.967,172.949z"/>
	<path fill="#A30B35" d="M636.079,179.528c0,5.002-2.504,7.269-6.277,7.269c-3.778,0-6.28-2.172-6.28-7.363v-18.615h-9.301v18.67
		c0,10.105,5.899,15.344,15.581,15.344c9.673,0,15.619-5.477,15.579-15.247v-18.767h-9.302V179.528z"/>
	<polygon fill="#A30B35" points="588.901,172.004 580.211,160.818 570.443,160.818 570.443,193.861 579.695,193.861 
		579.695,174.225 587.955,184.184 589.606,184.184 598.06,174.176 598.06,193.861 607.309,193.861 607.309,160.818 597.588,160.818 
			"/>
	<polygon fill="#A30B35" points="526.483,168.512 536.113,168.512 536.113,193.861 545.41,193.861 545.41,168.512 555.09,168.512 
		555.09,160.818 526.483,160.818 	"/>
	<path fill="#A30B35" d="M522.36,171.578c0-5.948-4.39-10.76-12.84-10.76h-16.145v33.043h9.347v-11.178h3.41l7.232,11.178h10.933
		l-8.944-12.567C520.128,179.559,522.36,176.438,522.36,171.578z M509.462,175.745h-6.739v-7.623h6.798
		c2.456,0,3.635,1.724,3.635,3.8C513.155,173.904,512.057,175.745,509.462,175.745z"/>
	<path fill="#A30B35" d="M465.974,160.818l-13.404,33.043h9.91l2.148-5.996h13.169l2.151,5.996h10.082l-13.403-33.043H465.974z
		 M467.235,180.598l3.978-11.094l3.979,11.094H467.235z"/>
	<path fill="#A30B35" d="M428.5,172.147c0.047,1.274,0.047,2.784,0.287,6.752l-13.977-18.081h-7.93v33.043h9.441v-10.575
		l-0.141-7.22l13.783,17.795h7.929v-33.043H428.5V172.147z"/>
	<path fill="#A30B35" d="M400.91,171.578c0-5.574-3.859-10.154-11.304-10.705c-0.495-0.037-1.008-0.055-1.536-0.055h-16.143v33.043
		h9.345v-11.178h3.411l7.234,11.178h10.931l-8.941-12.567C398.678,179.559,400.91,176.438,400.91,171.578z M388.011,175.745h-6.739
		v-7.623h6.798c0.949,0,1.708,0.259,2.28,0.698l1.216,4.264C391.2,174.567,390.084,175.745,388.011,175.745z"/>
	<polygon fill="#A30B35" points="348.377,180.975 364.002,180.975 364.002,173.374 348.377,173.374 348.377,168.655 
		364.948,168.655 364.948,160.818 339.171,160.818 339.171,193.861 365.607,193.861 365.607,185.979 348.377,185.979 	"/>
	<polygon fill="#A30B35" points="305.439,168.512 315.066,168.512 315.066,193.861 324.368,193.861 324.368,168.512 
		334.046,168.512 334.046,160.818 305.439,160.818 	"/>
	<path fill="#A30B35" d="M290.604,172.949c-3.206-0.464-5.413-0.696-5.413-2.979c0-1.89,2.7-2.599,4.94-2.599
		c2.848,0,5.412,0.622,7.652,2.331l4.573-5.859c-3.5-2.803-7.581-3.942-12.479-3.942c-6.906,0-13.924,3.3-13.924,10.331
		c0,8.266,6.312,9.686,13.297,10.554c3.729,0.466,5.459,1.409,5.459,3.071c0,1.851-2.102,3.204-5.132,3.204
		c-2.754,0-6.347-0.829-9.566-4.015l-5.085,6.018c3.985,4.208,8.979,5.813,14.859,5.768c7.325-0.049,14.069-3.537,14.069-11.092
		C303.855,176.091,297.202,173.9,290.604,172.949z"/>
	<polygon fill="#A30B35" points="253.295,180.975 268.913,180.975 268.913,173.374 253.295,173.374 253.295,168.655 
		269.858,168.655 269.858,160.818 244.084,160.818 244.084,193.861 270.523,193.861 270.523,185.979 253.295,185.979 	"/>
	<path fill="#A30B35" d="M226.224,172.201c-0.756,2.74-1.369,5.384-1.836,7.884l-6.286-19.267h-6.465l-6.092,19.267
		c-0.47-2.452-0.943-5.144-1.741-7.646l-4.252-11.62h-10.198l12.322,33.043h7.552l5.669-15.851l5.853,15.851h7.597l12.039-33.043
		h-10.192L226.224,172.201z"/>
	<polygon fill="#A30B35" points="410.314,142.511 419.661,142.511 419.661,129.338 433.068,109.465 422.256,109.465 
		415.126,120.794 408.28,109.465 397.511,109.465 410.314,129.338 	"/>
	<polygon fill="#A30B35" points="395.888,134.626 378.659,134.626 378.659,129.623 394.219,129.623 394.219,122.023 
		378.659,122.023 378.659,117.302 394.651,117.302 394.651,109.465 369.449,109.465 369.449,142.511 395.888,142.511 	"/>
	<path fill="#A30B35" d="M340.098,131.936l-0.141-7.224l13.784,17.798h7.928v-33.046h-9.393v11.329
		c0.047,1.277,0.047,2.786,0.285,6.753l-13.976-18.083h-7.93v33.046h9.442V131.936z"/>
	<polygon fill="#A30B35" points="306.553,142.511 315.854,142.511 315.854,117.16 325.532,117.16 325.532,109.465 296.925,109.465 
		296.925,117.16 306.553,117.16 	"/>
	<rect x="282.453" y="109.465" fill="#A30B35" width="9.346" height="33.046"/>
	<polygon fill="#A30B35" points="265.328,122.023 253.431,122.023 253.431,109.465 244.084,109.465 244.084,142.511 
		253.431,142.511 253.431,129.999 265.328,129.999 265.328,142.511 274.673,142.511 274.673,109.465 265.328,109.465 	"/>
	<path fill="#A30B35" d="M226.224,120.852c-0.756,2.739-1.369,5.381-1.836,7.881l-6.286-19.268h-6.465l-6.092,19.268
		c-0.47-2.451-0.943-5.142-1.741-7.645l-4.252-11.623h-10.198l12.322,33.046h7.552l5.669-15.85l5.853,15.85h7.597l12.039-33.046
		h-10.192L226.224,120.852z"/>
	<g>
		<path fill="#A30B35" d="M138.176,101.186c-3.161-1.684-11.471-6.09-20.26-10.749c-0.319-4.983-0.706-10.792-0.813-12.09
			c-0.256-3.135-1.303-4.332-3.987-4.455c-3.642-0.164-25.257-1.145-25.257-1.145l-0.504-6.038l-5.244-0.239
			c0,0-0.229-2.283-0.302-2.899c-0.18-1.481-0.773-1.901-1.997-1.983c-1.222-0.083-8.142-0.536-9.221-0.582
			c-1.58-0.069-2.501,0.453-2.428,2.164c0.025,0.55,0.266,2.629,0.266,2.629l-5.68-0.233l0.515,6.066c0,0-21.743-0.986-25.058-1.135
			c-3.612-0.165-4.854,0.899-4.527,4.411c0.327,3.51,9.117,89.189,9.117,89.189l-10.824,0.263l1.686,23.243l9.91-0.401l0.839,19.016
			c-6.709-3.977-13.193-7.82-17.731-10.506c-6.214-3.676-9.272-8.535-9.913-15.75c-0.258-2.909-1.03-11.638-1.899-21.494
			c5.29-0.921,12.619-2.148,16.506-2.658l-6.283-60.354c-4.846,2.571-8.824,4.681-10.797,5.731
			c-5.273,2.807-9.129,6.541-11.498,11.078c-2.253,4.313-3.16,9.356-2.657,15.005c0.317,3.574,4.47,50.605,4.746,53.747
			c0.49,5.481,2.059,10.362,4.665,14.502c2.609,4.143,6.328,7.661,11.056,10.459c10.112,5.984,30.563,18.105,40.896,24.254
			c4.77,2.838,9.729,4.275,14.739,4.275c5.011,0,9.969-1.438,14.735-4.275c10.46-6.222,30.868-18.32,40.894-24.254
			c4.728-2.798,8.447-6.316,11.056-10.459c2.606-4.14,4.176-9.021,4.664-14.502c0.285-3.206,4.44-50.238,4.751-53.748
			c0.408-4.587-0.113-8.771-1.532-12.493C148.643,109.095,144.395,104.493,138.176,101.186z M106.237,83.606l5.24,68.729
			c-3.361-2.935-7.772-6.717-10.592-8.736c-1.348-0.964-2.113-1.44-2.663-1.401c-0.62,0.044-1.502,0.934-2.443,2.101
			c-3.239,4.007-6.948,11.205-8.982,14.37c-0.123,0.189-0.242,0.313-0.376,0.313c-0.098,0.004-0.198-0.065-0.282-0.195
			c-0.562-0.862-3.222-5.468-5.551-7.688c-0.658-0.627-1.102-1.025-1.591-1.082c-1.679-0.19-3.87-0.33-5.352-0.272
			c-1.606-3.772-3.113-8.901-5.67-15.335c-2.375-5.979-3.664-8.584-5.141-8.571c-1.366,0.012-3.049,2.438-6.708,7.173
			c-1.904,2.459-3.96,4.983-5.009,6.28l-4.501-57.989L106.237,83.606z M67.596,219.983c-3.402-2.027-7.927-4.713-12.833-7.623
			l0.713-17.823l21.762-1.139l3.967,28.332C76.654,223.342,72.261,222.759,67.596,219.983z M90.827,216.442l-1.509-23.515
			l12.964-0.854c0.858-2.773,3.509-5.15,6.017-6.407l6.007,16.847C106.594,207.085,97.764,212.32,90.827,216.442z M135.705,179.961
			c-0.642,7.215-3.698,12.074-9.913,15.75c-1.152,0.684-2.428,1.439-3.802,2.252l-2.521-13.862l9.754-0.497l-0.476-7.634
			l-84.479,3.667l-0.52-8.757l80.206-3.437l-1.513-15.387l-0.016-0.214c2.759,0.019,9.927,0.091,15.748,0.185
			C137.105,164.135,136.012,176.508,135.705,179.961z"/>
		<circle fill="#A30B35" cx="87.108" cy="104.005" r="12.72"/>
	</g>
</g>
</svg>
