<?xml version="1.0" encoding="utf-8"?>
<!-- Generator: Adobe Illustrator 16.0.3, SVG Export Plug-In . SVG Version: 6.00 Build 0)  -->
<!DOCTYPE svg PUBLIC "-//W3C//DTD SVG 1.1//EN" "http://www.w3.org/Graphics/SVG/1.1/DTD/svg11.dtd">
<svg version="1.1" id="Layer_1" xmlns="http://www.w3.org/2000/svg" xmlns:xlink="http://www.w3.org/1999/xlink" x="0px" y="0px"
	 width="18.105px" height="18.105px" viewBox="0 0 18.105 18.105" enable-background="new 0 0 18.105 18.105" xml:space="preserve">
<path fill="#FFFFFF" d="M15.322,0H3.009C1.409,0,0,1.163,0,2.763v12.313c0,1.6,1.41,3.03,3.009,3.03h7.624
	c-0.014-2.373,0.003-5.016-0.008-7.312c-0.486-0.005-0.974-0.03-1.459-0.038c0.002-0.813,0.001-1.64,0.001-2.451
	c0.485-0.006,0.972-0.007,1.458-0.012c0.015-0.789-0.016-1.583,0.016-2.372c0.048-0.624,0.287-1.255,0.753-1.688
	c0.565-0.538,1.369-0.72,2.126-0.742c0.801-0.008,1.604-0.004,2.404-0.004c0.003,0.847,0.003,1.691,0,2.537
	c-0.518-0.001-1.037,0.001-1.555-0.001c-0.328-0.021-0.666,0.229-0.726,0.555c-0.008,0.565-0.003,1.132-0.002,1.696
	c0.76,0.003,1.521,0,2.279,0.002c-0.056,0.819-0.158,1.635-0.276,2.445c-0.671,0.006-1.343,0.066-2.014,0.07
	c-0.005,2.296,0.002,4.938-0.004,7.313h1.694c1.601,0,2.784-1.431,2.784-3.03V2.763C18.106,1.163,16.922,0,15.322,0z"/>
</svg>
