<?xml version="1.0" encoding="utf-8"?>
<!-- Generator: Adobe Illustrator 16.0.3, SVG Export Plug-In . SVG Version: 6.00 Build 0)  -->
<!DOCTYPE svg PUBLIC "-//W3C//DTD SVG 1.1//EN" "http://www.w3.org/Graphics/SVG/1.1/DTD/svg11.dtd">
<svg version="1.1" id="Layer_1" xmlns="http://www.w3.org/2000/svg" xmlns:xlink="http://www.w3.org/1999/xlink" x="0px" y="0px"
	 width="17.999px" height="12.481px" viewBox="238.001 249.759 17.999 12.481"
	 enable-background="new 238.001 249.759 17.999 12.481" xml:space="preserve">
<g id="_x23_020201ff">
	<path fill="#FFFFFF" d="M249.267,250.338c0.39-0.294,0.842-0.522,1.332-0.58c-0.067,0.293-0.346,0.446-0.588,0.58
		c0.366-0.108,0.723-0.268,1.108-0.294c0.103-0.003,0.25,0,0.287,0.12c0.055,0.149-0.096,0.265-0.21,0.327
		c-0.421,0.217-0.907,0.249-1.335,0.449c0.88-0.083,1.758,0.259,2.425,0.821c0.796,0.656,1.322,1.604,1.514,2.613
		c0.704,0.189,1.464,0.052,2.125-0.229c-0.332,0.752-1.178,1.095-1.95,1.162c0.642,0.243,1.348,0.284,2.027,0.212
		c-0.538,0.596-1.371,0.828-2.153,0.81c-0.325,1.33-1.099,2.523-2.103,3.441c-1.954,1.77-4.659,2.617-7.273,2.448
		c-2.513-0.153-4.986-1.392-6.471-3.447c0.13,0.076,0.239,0.181,0.363,0.265c1.149,0.832,2.679,1.096,4.046,0.725
		c0.829-0.214,1.582-0.678,2.183-1.283c-0.384,0.025-0.812-0.043-1.09-0.332c-0.174-0.166-0.246-0.438-0.141-0.66
		c0.126-0.28,0.408-0.439,0.674-0.564c-0.872,0.124-1.823-0.282-2.225-1.089c0.294-0.351,0.766-0.464,1.203-0.498
		c-0.509-0.148-1.032-0.33-1.418-0.71c-0.307-0.288-0.506-0.687-0.566-1.102c0.36-0.067,0.722-0.149,1.091-0.134
		c-0.837-0.436-1.603-1.266-1.536-2.269c1.588,0.58,3.15,1.24,4.642,2.038c0.522,0.287,0.956,0.702,1.383,1.111
		c0.413-1.074,0.857-2.151,1.529-3.093c0.36-0.496,0.785-0.957,1.308-1.283C249.427,250.056,249.344,250.197,249.267,250.338z"/>
</g>
</svg>
