<?xml version="1.0" encoding="utf-8"?>
<!-- Generator: Adobe Illustrator 16.0.3, SVG Export Plug-In . SVG Version: 6.00 Build 0)  -->
<!DOCTYPE svg PUBLIC "-//W3C//DTD SVG 1.1//EN" "http://www.w3.org/Graphics/SVG/1.1/DTD/svg11.dtd">
<svg version="1.1" id="Layer_1" xmlns="http://www.w3.org/2000/svg" xmlns:xlink="http://www.w3.org/1999/xlink" x="0px" y="0px"
	 width="18px" height="15.433px" viewBox="32 64 18 15.433" enable-background="new 32 64 18 15.433" xml:space="preserve">
<g>
	<path fill="#FFFFFF" d="M40.441,72.502l-0.731-0.551l-0.004-0.004c-0.233-0.185-0.401-0.333-0.401-0.591
		c0-0.281,0.201-0.474,0.438-0.699l0.021-0.016c0.803-0.611,1.796-1.378,1.796-2.998c0-1.081-0.478-1.796-0.937-2.318h0.522
		L43.571,64h-5.364c-1.017,0-2.519,0.128-3.801,1.149l-0.004,0.012c-0.876,0.723-1.398,1.788-1.398,2.836
		c0,0.852,0.35,1.696,0.96,2.307c0.86,0.868,1.94,1.048,2.696,1.048c0.061,0,0.121,0,0.181-0.004
		c-0.032,0.121-0.048,0.253-0.048,0.414c0,0.438,0.145,0.775,0.325,1.053c-0.964,0.076-2.334,0.261-3.411,0.896
		C32.125,74.623,32,75.961,32,76.347c0,1.535,1.435,3.086,4.641,3.086c3.68,0,5.605-2.001,5.605-3.978
		C42.246,73.964,41.33,73.221,40.441,72.502z M35.403,67.05c0-0.539,0.12-0.944,0.374-1.242c0.261-0.317,0.731-0.526,1.165-0.526
		c0.8,0,1.322,0.603,1.624,1.109c0.369,0.623,0.599,1.45,0.599,2.153c0,0.197,0,0.804-0.41,1.198
		c-0.281,0.269-0.751,0.458-1.149,0.458c-0.824,0-1.346-0.591-1.635-1.085C35.552,68.399,35.403,67.58,35.403,67.05z M40.269,76.214
		c0,1.101-1.012,1.788-2.644,1.788c-1.933,0-3.227-0.828-3.227-2.062c0-1.048,0.864-1.479,1.519-1.708
		c0.759-0.245,1.78-0.293,2.013-0.293c0.157,0,0.245,0,0.35,0.008C39.75,74.961,40.269,75.398,40.269,76.214z"/>
	<polygon fill="#FFFFFF" points="46.866,67.134 46.866,64 45.5,64 45.5,67.134 42.286,67.134 42.286,68.5 45.5,68.5 45.5,71.754 
		46.866,71.754 46.866,68.5 50,68.5 50,67.134 	"/>
</g>
</svg>
